<svg width="16" height="16" viewBox="0 0 16 16" fill="none" xmlns="http://www.w3.org/2000/svg">
<path d="M11.6886 5.17967C11.642 5.17301 11.5953 5.17301 11.5486 5.17967C10.5153 5.14634 9.69531 4.29967 9.69531 3.25967C9.69531 2.19967 10.5553 1.33301 11.622 1.33301C12.682 1.33301 13.5486 2.19301 13.5486 3.25967C13.542 4.29967 12.722 5.14634 11.6886 5.17967Z" fill="white"/>
<path d="M13.8636 9.80027C13.117 10.3003 12.0703 10.4869 11.1036 10.3603C11.357 9.8136 11.4903 9.20694 11.497 8.56694C11.497 7.90027 11.3503 7.26694 11.0703 6.7136C12.057 6.58027 13.1036 6.76694 13.857 7.26694C14.9103 7.96027 14.9103 9.10027 13.8636 9.80027Z" fill="white"/>
<path d="M4.29083 5.17967C4.3375 5.17301 4.38417 5.17301 4.43083 5.17967C5.46417 5.14634 6.28417 4.29967 6.28417 3.25967C6.28417 2.19301 5.42417 1.33301 4.3575 1.33301C3.2975 1.33301 2.4375 2.19301 2.4375 3.25967C2.4375 4.29967 3.2575 5.14634 4.29083 5.17967Z" fill="white"/>
<path d="M4.36479 8.56706C4.36479 9.21373 4.50479 9.82706 4.75813 10.3804C3.81813 10.4804 2.83813 10.2804 2.11813 9.80706C1.06479 9.10706 1.06479 7.96706 2.11813 7.26706C2.83146 6.78706 3.83813 6.59373 4.78479 6.70039C4.51146 7.26039 4.36479 7.89373 4.36479 8.56706Z" fill="white"/>
<path d="M8.08312 10.58C8.02979 10.5733 7.96979 10.5733 7.90979 10.58C6.68312 10.54 5.70312 9.53333 5.70312 8.29333C5.70979 7.02667 6.72979 6 8.00312 6C9.26979 6 10.2965 7.02667 10.2965 8.29333C10.2898 9.53333 9.31646 10.54 8.08312 10.58Z" fill="white"/>
<path d="M5.91125 11.9598C4.90458 12.6331 4.90458 13.7398 5.91125 14.4064C7.05792 15.1731 8.93792 15.1731 10.0846 14.4064C11.0913 13.7331 11.0913 12.6264 10.0846 11.9598C8.94458 11.1931 7.06458 11.1931 5.91125 11.9598Z" fill="white"/>
</svg>
