<svg width="48" height="47" viewBox="0 0 48 47" fill="none" xmlns="http://www.w3.org/2000/svg">
<rect x="0.609375" width="47" height="47" rx="7" fill="#E5F4F0"/>
<path d="M34.4422 18.7547C34.8284 19.3293 34.3531 20.0202 33.6608 20.0202H14.7734C14.2212 20.0202 13.7734 19.5725 13.7734 19.0202V16.9543C13.7734 14.311 15.9184 12.166 18.5618 12.166H21.0751C22.8409 12.166 23.3934 12.7402 24.0976 13.6827L25.6143 15.6977C25.9501 16.1418 25.9934 16.196 26.6218 16.196H29.6443C31.6416 16.196 33.4043 17.2105 34.4422 18.7547Z" fill="#009169"/>
<path d="M35.4218 22.6412C35.4199 22.0902 34.9728 21.6445 34.4218 21.6445L14.7734 21.6449C14.2211 21.6449 13.7734 22.0926 13.7734 22.6449V28.0366C13.7734 31.2324 16.3734 33.8324 19.5693 33.8324H29.6443C32.8401 33.8324 35.4401 31.2324 35.4401 28.0366L35.4218 22.6412ZM27.3151 28.1449H25.4843V30.0407C25.4843 30.4849 25.1159 30.8532 24.6718 30.8532C24.2168 30.8532 23.8593 30.4849 23.8593 30.0407V28.1449H21.8984C21.4543 28.1449 21.0859 27.7766 21.0859 27.3324C21.0859 26.8882 21.4543 26.5199 21.8984 26.5199H23.8593V24.6241C23.8593 24.1799 24.2168 23.8116 24.6718 23.8116C25.1159 23.8116 25.4843 24.1799 25.4843 24.6241V26.5199H27.3151C27.7593 26.5199 28.1276 26.8882 28.1276 27.3324C28.1276 27.7766 27.7593 28.1449 27.3151 28.1449Z" fill="#009169"/>
</svg>
