<svg width="46" height="46" viewBox="0 0 46 46" fill="none" xmlns="http://www.w3.org/2000/svg">
<rect width="46" height="46" rx="7" fill="#E5F4F0"/>
<path d="M18.9575 27.7689C18.4291 27.3808 17.9634 26.9151 17.5754 26.3867C17.4739 26.5748 17.3664 26.7599 17.247 26.942L16.0051 28.8615C15.7543 28.6973 15.4528 28.6048 15.1334 28.6048C14.2468 28.6048 13.5273 29.3242 13.5273 30.2108C13.5273 31.0975 14.2468 31.8169 15.1334 31.8169C16.02 31.8169 16.7395 31.0975 16.7395 30.2108C16.7395 29.8884 16.644 29.5899 16.4827 29.3362L18.4023 28.0943C18.5844 27.9779 18.7695 27.8674 18.9575 27.7659V27.7689Z" fill="#009169"/>
<path d="M17.5793 18.8492C17.9673 18.3208 18.433 17.8551 18.9614 17.467C18.7734 17.3655 18.5883 17.258 18.4062 17.1386L16.4867 15.8968C16.6508 15.646 16.7434 15.3445 16.7434 15.0221C16.7434 14.1355 16.0239 13.416 15.1373 13.416C14.2507 13.416 13.5312 14.1355 13.5312 15.0221C13.5312 15.9087 14.2507 16.6282 15.1373 16.6282C15.4597 16.6282 15.7583 16.5326 16.009 16.3714L17.2509 18.2909C17.3673 18.473 17.4778 18.6581 17.5793 18.8462V18.8492Z" fill="#009169"/>
<path d="M30.3163 31.8208C31.2029 31.8208 31.9224 31.1014 31.9224 30.2147C31.9224 29.3281 31.2029 28.6087 30.3163 28.6087C29.9939 28.6087 29.6954 28.7042 29.4446 28.8654L28.2027 26.9459C28.0863 26.7638 27.9759 26.5787 27.8744 26.3906C27.4863 26.919 27.0206 27.3847 26.4922 27.7728C26.6803 27.8743 26.8653 27.9818 27.0474 28.1012L28.967 29.343C28.8028 29.5938 28.7102 29.8953 28.7102 30.2177C28.7102 31.1043 29.4297 31.8238 30.3163 31.8238V31.8208Z" fill="#009169"/>
<path d="M31.9302 15.026C31.9302 14.1394 31.2107 13.4199 30.3241 13.4199C29.4375 13.4199 28.718 14.1394 28.718 15.026C28.718 15.3484 28.8136 15.6469 28.9748 15.9007L27.0553 17.1425C26.8732 17.259 26.6881 17.3694 26.5 17.4709C27.0284 17.859 27.4941 18.3247 27.8822 18.8531C27.9837 18.665 28.0911 18.4799 28.2106 18.2978L29.4524 16.3783C29.7032 16.5425 30.0047 16.635 30.3241 16.635C31.2107 16.635 31.9302 15.9156 31.9302 15.029V15.026Z" fill="#009169"/>
<path d="M28.5852 22.6207C28.5852 19.3907 25.9582 16.7637 22.7282 16.7637C19.4981 16.7637 16.8711 19.3907 16.8711 22.6207C16.8711 25.8508 19.4981 28.4778 22.7282 28.4778C25.9582 28.4778 28.5852 25.8508 28.5852 22.6207ZM22.7282 27.2569C20.1728 27.2569 18.0921 25.1761 18.0921 22.6207C18.0921 20.0654 20.1728 17.9846 22.7282 17.9846C25.2835 17.9846 27.3643 20.0654 27.3643 22.6207C27.3643 25.1761 25.2835 27.2569 22.7282 27.2569Z" fill="#009169"/>
<path d="M9.23184 16.5749C9.31543 16.8615 9.41693 17.1391 9.54231 17.4107C10.0379 18.4884 10.8648 19.393 11.8619 19.9661C12.8559 20.5423 14.0202 20.7871 15.1098 20.6527C14.8382 20.6139 14.5695 20.5721 14.3098 20.5005C14.05 20.4318 13.7933 20.3512 13.5485 20.2497C13.3037 20.1482 13.0649 20.0348 12.841 19.9034C12.6171 19.7691 12.3992 19.6288 12.1962 19.4676C11.3812 18.8317 10.7663 17.9809 10.4289 17.0436C10.2588 16.5749 10.1603 16.0853 10.1274 15.5957C10.1125 15.3509 10.1185 15.1031 10.1334 14.8584C10.1543 14.6136 10.1871 14.3718 10.2409 14.1329C10.2976 13.8971 10.3603 13.6613 10.4468 13.4344C10.5334 13.2075 10.6349 12.9866 10.7513 12.7746C10.8707 12.5627 10.9991 12.3567 11.1454 12.1627C11.2917 11.9686 11.4529 11.7865 11.623 11.6134C11.7962 11.4432 11.9783 11.282 12.1723 11.1357C12.3664 10.9895 12.5723 10.8611 12.7843 10.7417C12.9963 10.6223 13.2172 10.5238 13.444 10.4372C13.6709 10.3506 13.9068 10.2879 14.1426 10.2312C14.3814 10.1775 14.6232 10.1446 14.868 10.1237C15.1128 10.1088 15.3576 10.1058 15.6054 10.1178C16.0949 10.1506 16.5845 10.2521 17.0532 10.4193C17.9906 10.7566 18.8414 11.3716 19.4772 12.1865C19.6385 12.3895 19.7788 12.6075 19.9131 12.8314C20.0444 13.0582 20.1579 13.2941 20.2594 13.5389C20.3609 13.7837 20.4415 14.0374 20.5101 14.3001C20.5788 14.5598 20.6236 14.8285 20.6624 15.1002C20.7997 14.0105 20.5549 12.8463 19.9788 11.8522C19.4056 10.8521 18.5011 10.0252 17.4234 9.53266C17.1547 9.40727 16.8741 9.30876 16.5875 9.22219C16.3009 9.1386 16.0084 9.08487 15.7128 9.04606C15.4173 9.01024 15.1158 8.99531 14.8173 9.00128C14.5187 9.01322 14.2172 9.04009 13.9217 9.09382C13.6261 9.14756 13.3336 9.22219 13.047 9.3207C12.7634 9.4222 12.4828 9.53863 12.2171 9.67893C11.9514 9.82223 11.6947 9.98044 11.4499 10.1596C11.2081 10.3417 10.9782 10.5357 10.7633 10.7477C10.5513 10.9626 10.3543 11.1925 10.1752 11.4343C9.99607 11.6791 9.83486 11.9358 9.69456 12.2015C9.41693 12.7388 9.21393 13.312 9.10945 13.9061C9.05571 14.2016 9.02885 14.5031 9.0169 14.8016C9.01093 15.1002 9.02586 15.3987 9.06168 15.6972C9.10348 15.9928 9.15721 16.2883 9.2408 16.5719L9.23184 16.5749Z" fill="#009169"/>
<path d="M24.9509 14.304C25.0195 14.0443 25.1001 13.7876 25.2016 13.5428C25.3031 13.298 25.4166 13.0592 25.5479 12.8353C25.6822 12.6114 25.8226 12.3935 25.9838 12.1905C26.6196 11.3755 27.4704 10.7605 28.4078 10.4232C28.8765 10.253 29.3661 10.1545 29.8556 10.1217C30.1004 10.1067 30.3482 10.1127 30.593 10.1276C30.8378 10.1485 31.0796 10.1814 31.3184 10.2351C31.5542 10.2918 31.7901 10.3545 32.017 10.4411C32.2438 10.5277 32.4648 10.6292 32.6767 10.7456C32.8887 10.865 33.0946 10.9934 33.2887 11.1396C33.4827 11.2859 33.6648 11.4471 33.838 11.6173C34.0081 11.7904 34.1693 11.9725 34.3156 12.1666C34.4619 12.3606 34.5903 12.5666 34.7097 12.7786C34.8291 12.9905 34.9276 13.2114 35.0142 13.4383C35.1007 13.6652 35.1634 13.901 35.2201 14.1368C35.2739 14.3757 35.3067 14.6175 35.3276 14.8623C35.3425 15.1071 35.3455 15.3518 35.3336 15.5996C35.3007 16.0892 35.1992 16.5788 35.0321 17.0475C34.6947 17.9848 34.0798 18.8356 33.2648 19.4715C33.0618 19.6327 32.8439 19.773 32.62 19.9073C32.3931 20.0387 32.1573 20.1521 31.9125 20.2536C31.6677 20.3551 31.4139 20.4357 31.1512 20.5044C30.8915 20.5731 30.6228 20.6178 30.3512 20.6566C31.4408 20.794 32.6051 20.5492 33.5991 19.97C34.5992 19.3969 35.4231 18.4923 35.9187 17.4147C36.0441 17.146 36.1426 16.8654 36.2292 16.5788C36.3127 16.2922 36.3665 15.9996 36.4053 15.7011C36.4411 15.4056 36.456 15.1041 36.4501 14.8055C36.4381 14.507 36.4113 14.2055 36.3575 13.91C36.3038 13.6144 36.2292 13.3219 36.1306 13.0353C36.0291 12.7517 35.9127 12.4711 35.7724 12.2054C35.6291 11.9397 35.4709 11.683 35.2918 11.4382C35.1127 11.1964 34.9156 10.9665 34.7037 10.7516C34.4888 10.5396 34.2589 10.3426 34.0171 10.1635C33.7723 9.98435 33.5185 9.82315 33.2499 9.68284C32.7125 9.40521 32.1394 9.20221 31.5453 9.09773C31.2498 9.04399 30.9482 9.01713 30.6497 9.00519C30.3512 8.99922 30.0527 9.01414 29.7541 9.04996C29.4586 9.09176 29.1631 9.14549 28.8795 9.22908C28.5929 9.31267 28.3152 9.41417 28.0436 9.53955C26.9659 10.0351 26.0614 10.862 25.4882 11.8591C24.9121 12.8532 24.6673 14.0174 24.8016 15.1071C24.8404 14.8354 24.8822 14.5667 24.9538 14.307L24.9509 14.304Z" fill="#009169"/>
<path d="M36.2257 28.6646C36.1421 28.378 36.0406 28.1004 35.9152 27.8287C35.4196 26.7511 34.5927 25.8465 33.5956 25.2734C32.6016 24.6972 31.4373 24.4524 30.3477 24.5868C30.6193 24.6256 30.888 24.6674 31.1477 24.739C31.4075 24.8077 31.6642 24.8883 31.909 24.9898C32.1538 25.0942 32.3926 25.2047 32.6165 25.3361C32.8404 25.4704 33.0583 25.6107 33.2613 25.7719C34.0763 26.4078 34.6912 27.2586 35.0286 28.1959C35.1987 28.6646 35.2972 29.1542 35.3301 29.6438C35.345 29.8886 35.339 30.1363 35.3241 30.3811C35.3032 30.6259 35.2704 30.8677 35.2166 31.1066C35.1599 31.3424 35.0972 31.5782 35.0107 31.8051C34.9241 32.032 34.8226 32.2529 34.7062 32.4648C34.5867 32.6768 34.4584 32.8828 34.3121 33.0768C34.1658 33.2709 34.0046 33.453 33.8345 33.6261C33.6613 33.7963 33.4792 33.9575 33.2852 34.1038C33.0911 34.25 32.8852 34.3784 32.6732 34.4978C32.4612 34.6172 32.2403 34.7157 32.0135 34.8023C31.7866 34.8889 31.5507 34.9516 31.3149 35.0083C31.0761 35.062 30.8343 35.0949 30.5895 35.1158C30.3447 35.1307 30.0999 35.1337 29.8521 35.1217C29.3626 35.0889 28.873 34.9874 28.4043 34.8202C27.4669 34.4829 26.6161 33.8679 25.9803 33.0529C25.8191 32.8499 25.6787 32.632 25.5444 32.4081C25.4101 32.1812 25.2996 31.9454 25.1981 31.7006C25.0966 31.4558 25.016 31.1991 24.9474 30.9394C24.8787 30.6797 24.8339 30.411 24.7951 30.1393C24.6578 31.2289 24.9026 32.3932 25.4817 33.3873C26.0549 34.3874 26.9594 35.2143 28.0371 35.7068C28.3058 35.8322 28.5864 35.9307 28.873 36.0173C29.1596 36.1009 29.4521 36.1546 29.7506 36.1934C30.0462 36.2293 30.3477 36.2442 30.6462 36.2382C30.9447 36.2263 31.2462 36.1994 31.5418 36.1457C31.8373 36.0919 32.1299 36.0173 32.4165 35.9188C32.7001 35.8173 32.9807 35.7009 33.2464 35.5606C33.5121 35.4173 33.7688 35.259 34.0136 35.0799C34.2554 34.8978 34.4853 34.7038 34.7002 34.4918C34.9121 34.2769 35.1092 34.047 35.2883 33.8052C35.4674 33.5604 35.6286 33.3067 35.7689 33.038C36.0465 32.5007 36.2495 31.9275 36.354 31.3334C36.4078 31.0379 36.4346 30.7364 36.4466 30.4379C36.4525 30.1393 36.4376 29.8408 36.4018 29.5423C36.36 29.2467 36.3063 28.9512 36.2227 28.6676L36.2257 28.6646Z" fill="#009169"/>
<path d="M20.5005 30.9368C20.4318 31.1965 20.3512 31.4532 20.2497 31.698C20.1482 31.9428 20.0348 32.1816 19.9034 32.4055C19.7691 32.6294 19.6288 32.8474 19.4676 33.0504C18.8317 33.8653 17.9809 34.4803 17.0436 34.8176C16.5749 34.9878 16.0853 35.0863 15.5957 35.1191C15.3509 35.1341 15.1031 35.1281 14.8584 35.1132C14.6136 35.0923 14.3718 35.0594 14.1329 35.0057C13.8971 34.949 13.6613 34.8863 13.4344 34.7997C13.2075 34.7131 12.9866 34.6116 12.7746 34.4952C12.5627 34.3758 12.3567 34.2474 12.1627 34.1012C11.9686 33.9549 11.7865 33.7937 11.6134 33.6235C11.4432 33.4504 11.282 33.2683 11.1357 33.0742C10.9895 32.8802 10.8611 32.6742 10.7417 32.4623C10.6223 32.2503 10.5238 32.0294 10.4372 31.8025C10.3506 31.5756 10.2879 31.3398 10.2312 31.104C10.1775 30.8652 10.1446 30.6233 10.1237 30.3786C10.1088 30.1338 10.1058 29.889 10.1178 29.6412C10.1506 29.1516 10.2521 28.662 10.4193 28.1933C10.7566 27.256 11.3716 26.4052 12.1865 25.7693C12.3895 25.6081 12.6075 25.4678 12.8314 25.3335C13.0582 25.1991 13.2941 25.0887 13.5389 24.9872C13.7837 24.8857 14.0404 24.8051 14.3001 24.7364C14.5598 24.6678 14.8285 24.623 15.1002 24.5842C14.0105 24.4468 12.8463 24.6916 11.8522 25.2708C10.8521 25.8439 10.0252 26.7485 9.53266 27.8262C9.40727 28.0948 9.30876 28.3754 9.22219 28.662C9.1386 28.9486 9.08487 29.2412 9.04606 29.5397C9.01024 29.8352 8.99531 30.1367 9.00128 30.4353C9.01322 30.7338 9.04009 31.0353 9.09382 31.3309C9.14756 31.6264 9.22219 31.9189 9.3207 32.2055C9.4222 32.4891 9.53863 32.7697 9.67893 33.0354C9.82223 33.3011 9.98044 33.5579 10.1596 33.8026C10.3387 34.0444 10.5357 34.2743 10.7477 34.4893C10.9626 34.7012 11.1925 34.8982 11.4343 35.0773C11.6791 35.2565 11.9328 35.4177 12.2015 35.558C12.7388 35.8356 13.312 36.0386 13.9061 36.1431C14.2016 36.1968 14.5031 36.2237 14.8016 36.2356C15.1002 36.2416 15.3987 36.2267 15.6972 36.1908C15.9928 36.1491 16.2883 36.0953 16.5719 36.0117C16.8585 35.9281 17.1361 35.8266 17.4078 35.7013C18.4854 35.2057 19.39 34.3788 19.9631 33.3817C20.5393 32.3876 20.7841 31.2234 20.6498 30.1338C20.6109 30.4054 20.5692 30.6741 20.4975 30.9338L20.5005 30.9368Z" fill="#009169"/>
<path d="M25.0542 21.8384C25.296 21.9339 25.5617 22.0085 25.7945 22.125C25.8393 22.1459 25.9259 22.1936 25.9319 22.2444V22.9817C25.914 23.0414 25.7438 23.1161 25.6871 23.1429C25.4841 23.2385 25.2691 23.3131 25.0602 23.3967L24.9378 23.6743C25.0243 23.8892 25.1378 24.0922 25.2214 24.3102C25.2453 24.3729 25.299 24.5012 25.2721 24.5639C25.2542 24.6027 25.1527 24.6863 25.1169 24.7191C24.9975 24.8386 24.8781 24.955 24.7587 25.0744C24.687 25.1311 24.5795 25.0833 24.4989 25.0595C24.2691 24.9848 24.0422 24.8774 23.8183 24.7878L23.5317 24.9012L23.5198 24.9132C23.4302 25.1341 23.3556 25.3699 23.2511 25.5849C23.2153 25.6565 23.1735 25.767 23.0809 25.764C22.86 25.752 22.6212 25.7789 22.4033 25.764C22.3854 25.764 22.3645 25.761 22.3466 25.752C22.2928 25.7282 22.2242 25.5759 22.1943 25.5192C22.0988 25.3192 22.0212 25.1102 21.9346 24.9072L21.645 24.7848C21.4689 24.8594 21.2987 24.943 21.1196 25.0147C21.045 25.0445 20.851 25.1251 20.7823 25.1192C20.7554 25.1192 20.7286 25.1013 20.7077 25.0863L20.2181 24.6087C20.1763 24.5639 20.1942 24.4952 20.2061 24.4415C20.2181 24.3878 20.2449 24.3281 20.2658 24.2714C20.3405 24.0713 20.433 23.8803 20.5166 23.6833L20.4032 23.4116C20.4032 23.4116 20.3823 23.3967 20.3703 23.3907C20.1554 23.2982 19.9225 23.2385 19.7076 23.137C19.6539 23.1131 19.5285 23.0564 19.5195 22.9937V22.2563C19.5374 22.1906 19.6986 22.122 19.7584 22.0951C19.9643 21.9996 20.1793 21.9249 20.3882 21.8384C20.442 21.7548 20.4688 21.6533 20.5106 21.5637V21.5398C20.4091 21.3159 20.2838 21.0921 20.2061 20.8622C20.1852 20.8025 20.1494 20.7099 20.1912 20.6562C20.3554 20.5129 20.5047 20.3248 20.6659 20.1845C20.6868 20.1666 20.7196 20.1398 20.7465 20.1368C20.8151 20.1278 20.9196 20.1696 20.9853 20.1905C21.2062 20.2651 21.4182 20.3637 21.6361 20.4502L21.9227 20.3338C22.0271 20.098 22.0988 19.8382 22.2182 19.6114C22.251 19.5517 22.2869 19.474 22.3615 19.4681C22.5824 19.48 22.8302 19.4472 23.0481 19.4681C23.1317 19.474 23.1586 19.5308 23.1944 19.5964C23.3227 19.8203 23.4063 20.086 23.5138 20.3219L23.5317 20.3368L23.8034 20.4443H23.8183C23.9855 20.3666 24.1556 20.289 24.3258 20.2204C24.4034 20.1905 24.4989 20.1457 24.5795 20.1248C24.6542 20.1069 24.696 20.1009 24.7557 20.1517L25.2453 20.6353C25.2751 20.6771 25.2572 20.7398 25.2453 20.7876C25.2333 20.8353 25.2154 20.8831 25.1975 20.9279C25.1229 21.1368 25.0243 21.3398 24.9348 21.5458L25.0542 21.8294V21.8384ZM22.663 21.5458C21.7794 21.5995 21.3017 22.6145 21.8809 23.3101C22.4152 23.9489 23.475 23.7728 23.7616 22.9907C24.0332 22.2533 23.4362 21.501 22.666 21.5458H22.663Z" fill="#009169"/>
</svg>
