<svg width="17" height="16" viewBox="0 0 17 16" fill="none" xmlns="http://www.w3.org/2000/svg">
<path d="M12.8504 7.68654C12.4704 7.58654 12.0237 7.5332 11.4904 7.5332C10.7504 7.5332 10.4771 7.7132 10.0971 7.99987C10.0771 8.0132 10.0571 8.0332 10.0371 8.0532L9.40375 8.72654C8.87708 9.2932 7.91042 9.2932 7.37708 8.72654L6.74375 8.05987C6.72375 8.0332 6.70375 8.0132 6.68375 7.99987C6.29708 7.7132 6.02375 7.5332 5.29042 7.5332C4.75708 7.5332 4.31042 7.57987 3.93042 7.68654C2.34375 8.1132 2.34375 9.3732 2.34375 10.4799V11.0999C2.34375 12.7732 2.34375 14.6665 5.91042 14.6665H10.8704C13.2371 14.6665 14.4371 13.4665 14.4371 11.0999V10.4799C14.4371 9.3732 14.4371 8.1132 12.8504 7.68654Z" fill="white"/>
<path d="M10.2526 1.33398H6.5326C3.58594 1.33398 3.58594 2.90065 3.58594 4.28065V6.74732C3.6126 6.73398 3.64594 6.72732 3.6726 6.72065C4.13927 6.59398 4.66594 6.53398 5.2926 6.53398C6.31927 6.53398 6.80594 6.83398 7.28594 7.20065C7.3526 7.24732 7.41927 7.30732 7.47927 7.37398L8.10594 8.03398C8.1726 8.10732 8.27927 8.14732 8.3926 8.14732C8.50594 8.14732 8.6126 8.10732 8.6726 8.04065L9.3126 7.36732C9.36594 7.31398 9.42594 7.25398 9.4926 7.20732C9.98594 6.83398 10.4659 6.53398 11.4926 6.53398C12.1193 6.53398 12.6459 6.59398 13.1126 6.72065C13.1393 6.72732 13.1726 6.73398 13.1993 6.74732V4.28065C13.1993 2.90065 13.1993 1.33398 10.2526 1.33398ZM9.42594 5.66732H7.35927C7.10594 5.66732 6.8926 5.45398 6.8926 5.20065C6.8926 4.94065 7.10594 4.73398 7.35927 4.73398H9.42594C9.67927 4.73398 9.8926 4.94065 9.8926 5.20065C9.8926 5.45398 9.67927 5.66732 9.42594 5.66732ZM9.94594 3.80732H6.83927C6.58594 3.80732 6.37927 3.59398 6.37927 3.34065C6.37927 3.08065 6.58594 2.87398 6.83927 2.87398H9.94594C10.1993 2.87398 10.4059 3.08065 10.4059 3.34065C10.4059 3.59398 10.1993 3.80732 9.94594 3.80732Z" fill="white"/>
</svg>
