<svg width="47" height="47" viewBox="0 0 47 47" fill="none" xmlns="http://www.w3.org/2000/svg">
<path d="M0 7C0 3.13401 3.13401 0 7 0H40C43.866 0 47 3.13401 47 7V40C47 43.866 43.866 47 40 47H7C3.13401 47 0 43.866 0 40V7Z" fill="#009169"/>
<path d="M39.8054 27.339C39.7937 27.3214 39.78 27.3019 39.7624 27.2843C38.3512 25.8751 36.94 24.4659 35.5288 23.0566C35.4663 22.9941 35.3959 22.9706 35.3295 22.9726C35.308 22.9687 35.2865 22.9648 35.2611 22.9648H31.6021C31.0764 22.3256 30.5506 21.6884 30.0248 21.0493C30.3571 20.9711 30.6952 20.9203 31.0392 20.8793C31.7057 20.803 32.2862 20.6076 32.6986 20.0505C33.4355 19.0537 33.1169 17.664 32.0751 17.0268C31.8289 16.8763 31.565 16.7884 31.3011 16.7512V15.6352H36.5432C36.9205 15.6352 36.9205 15.0488 36.5432 15.0488H31.7194C31.7253 15.0254 31.7292 15.0019 31.7311 14.9765C31.7546 14.6306 31.5885 14.2318 31.2581 14.0813C31.0842 14.0012 30.8868 13.9738 30.6991 14.0286C30.5154 14.0833 30.3512 14.2123 30.275 14.3882C30.189 14.5817 30.1792 14.783 30.2046 14.9902C30.2066 15.0117 30.2105 15.0312 30.2144 15.0488H25.414C25.0368 15.0488 25.0368 15.6352 25.414 15.6352H30.7109V16.7591C30.0405 16.8685 29.4326 17.3181 29.1492 18.01C29.0749 18.1878 29.0319 18.3755 29.0163 18.567C26.6435 18.5827 24.468 19.7202 22.1245 19.9587C20.7857 20.0955 19.5015 19.8062 18.2057 19.5052C16.8551 19.1905 15.5025 18.8739 14.1519 18.5592C14.0483 18.5357 13.8021 18.524 13.7258 18.4282C13.6594 18.3442 13.6887 18.1175 13.6711 18.008C13.6242 17.7344 13.5069 17.4686 13.3467 17.2418C13.0652 16.847 12.645 16.5636 12.172 16.4952V15.6391H17.4063C17.7835 15.6391 17.7835 15.0527 17.4063 15.0527H12.4652C12.4867 14.8905 12.4632 14.7381 12.3889 14.5895C12.3225 14.4566 12.2013 14.3335 12.0703 14.2631C11.9101 14.1791 11.7342 14.1537 11.5582 14.1927C11.4117 14.226 11.2631 14.3178 11.1654 14.4312C11.0383 14.5797 10.9543 14.7654 10.966 14.9648C10.966 14.9941 10.9758 15.0234 10.9856 15.0527H6.28292C5.90569 15.0527 5.90569 15.6391 6.28292 15.6391H11.5876V16.4366C11.0442 16.462 10.5321 16.7552 10.1979 17.1852C9.77961 17.7227 9.67797 18.4224 9.78547 19.0811C9.88711 19.7085 10.2037 20.3711 10.7901 20.674C11.3432 20.9594 11.9765 20.9164 12.5785 20.9164C13.2568 20.9164 13.8275 21.0669 14.3748 21.4852C14.9259 21.9073 15.3833 22.4546 15.8543 22.9589L16.642 23.8033C15.3931 24.1746 14.4549 25.189 13.6183 26.1487C13.3525 26.4536 13.0848 26.7664 12.8873 27.1221C12.6821 27.4954 12.5316 27.9039 12.3752 28.3007C12.0762 29.061 11.8143 29.8409 11.6501 30.6442C11.482 31.4729 11.4253 32.3055 11.5172 33.1421H10.8878C10.6826 33.1421 10.4872 33.3219 10.4969 33.533C10.5067 33.7441 10.6689 33.9239 10.8878 33.9239H12.8678C13.073 33.9239 13.2685 33.7441 13.2587 33.533C13.2489 33.3219 13.0867 33.1421 12.8678 33.1421H12.299C12.1759 32.2293 12.2814 31.3009 12.5043 30.4116C12.7349 29.4851 13.0593 28.5391 13.4796 27.6811C13.6887 27.255 13.9917 26.9071 14.3024 26.5533C14.5761 26.2425 14.8536 25.9357 15.1527 25.6484C15.7273 25.0952 16.3782 24.6339 17.1737 24.4756C17.201 24.4698 17.2264 24.4619 17.2499 24.4522L17.5255 24.7473C18.0044 25.2594 18.4754 25.8067 19.0794 26.1741C19.2729 26.2914 19.4781 26.3813 19.6892 26.4536C19.4566 26.8797 19.2944 27.3371 19.2572 27.8374C19.1986 28.6232 19.5191 29.3894 20.1368 29.878C20.7212 30.3393 21.4893 30.5289 22.2125 30.3197C22.5174 30.2318 22.7969 30.0813 23.0412 29.8858C23.1663 29.8682 23.2758 29.7666 23.3031 29.6454C23.5142 29.4206 23.6843 29.1587 23.7957 28.8655C24.1084 28.0466 23.9462 27.0732 23.5846 26.2816C24.0771 26.0979 24.5384 25.8399 24.9489 25.5037C25.3144 25.2027 25.6271 24.845 25.9164 24.4717C27.2552 25.4294 28.3322 26.7273 29.0319 28.2166C29.7414 29.7275 30.0307 31.4104 29.9799 33.0737H29.3857C29.1805 33.0737 28.985 33.2535 28.9948 33.4646C29.0046 33.6757 29.1668 33.8555 29.3857 33.8555H31.4673C31.6725 33.8555 31.868 33.6757 31.8582 33.4646C31.8484 33.2535 31.6862 33.0737 31.4673 33.0737H30.7636C30.8477 30.2513 29.9408 27.4387 28.039 25.3219C27.5425 24.7688 26.9816 24.2821 26.3815 23.8463C26.7119 23.3928 27.0383 22.9374 27.4292 22.5328C27.9022 22.0442 28.4631 21.6533 29.0788 21.3698C29.1922 21.3171 29.3056 21.2721 29.4189 21.2311C30.0268 21.9699 30.6346 22.7068 31.2425 23.4456V26.782C31.2425 26.782 31.2425 26.7918 31.2425 26.7957C31.2327 26.8719 31.2542 26.954 31.3246 27.0244C32.8355 28.545 34.3483 30.0656 35.8592 31.5863C35.9354 31.6625 36.0233 31.682 36.1035 31.6664C36.1054 31.6664 36.1093 31.6664 36.1113 31.6664C36.1191 31.6664 36.1289 31.6625 36.1367 31.6605C36.1817 31.6488 36.2266 31.6254 36.2657 31.5843C37.5127 30.3354 38.7597 29.0864 40.0067 27.8374C40.208 27.6361 40.0223 27.3508 39.8034 27.3371L39.8054 27.339ZM22.189 29.4988C21.1785 29.9366 20.0488 29.1333 20.0293 28.0583C20.0234 27.7612 20.0859 27.4778 20.1895 27.2081L22.3943 29.3933C22.3298 29.4324 22.2614 29.4675 22.189 29.4988ZM22.8282 28.9984C22.0405 28.2186 21.2528 27.4368 20.4632 26.6569C20.469 26.6491 20.4729 26.6413 20.4769 26.6315C20.6879 26.6589 20.899 26.6725 21.1121 26.6745C21.6828 26.6804 22.2614 26.6256 22.8223 26.5005C23.2093 27.2706 23.3305 28.3183 22.8282 28.9984ZM36.0624 30.9608C34.6512 29.5399 33.2381 28.1209 31.8269 26.6999V23.9831C32.1162 24.2724 32.4035 24.5597 32.6928 24.8489C32.8022 24.9584 32.9996 24.9662 33.1071 24.8489C33.2146 24.7317 33.2225 24.5499 33.1071 24.4346L32.2256 23.5531H35.1927C36.5726 24.931 37.9525 26.309 39.3324 27.6869L36.0624 30.9628V30.9608Z" fill="#E5F4F0"/>
<path d="M34.0254 25.7066C33.9081 25.5991 33.7263 25.5913 33.611 25.7066C33.353 25.9646 33.093 26.2246 32.835 26.4826C32.7256 26.592 32.7178 26.7895 32.835 26.897C32.9523 27.0045 33.1341 27.0123 33.2494 26.897C33.5074 26.639 33.7674 26.379 34.0254 26.121C34.1348 26.0115 34.1426 25.8141 34.0254 25.7066Z" fill="#E5F4F0"/>
<path d="M35.3524 24.3773C35.2957 24.3265 35.2234 24.2874 35.1452 24.2913C35.067 24.2952 34.9947 24.3206 34.938 24.3773C34.7172 24.5981 34.4944 24.821 34.2735 25.0418C34.2207 25.0946 34.1875 25.1747 34.1875 25.249C34.1875 25.3233 34.2188 25.4073 34.2735 25.4562C34.3302 25.507 34.4025 25.5461 34.4807 25.5422C34.5589 25.5383 34.6312 25.5129 34.6879 25.4562L35.3524 24.7916C35.4052 24.7389 35.4384 24.6587 35.4384 24.5845C35.4384 24.5102 35.4071 24.4261 35.3524 24.3773Z" fill="#E5F4F0"/>
</svg>
