<svg width="46" height="46" viewBox="0 0 46 46" fill="none" xmlns="http://www.w3.org/2000/svg">
<path d="M0 7C0 3.13401 3.13401 0 7 0H39C42.866 0 46 3.13401 46 7V39C46 42.866 42.866 46 39 46H7C3.13401 46 0 42.866 0 39V7Z" fill="#E5F4F0"/>
<path d="M40.8054 26.339C40.7937 26.3214 40.78 26.3019 40.7624 26.2843C39.3512 24.8751 37.94 23.4659 36.5288 22.0566C36.4663 21.9941 36.3959 21.9706 36.3295 21.9726C36.308 21.9687 36.2865 21.9648 36.2611 21.9648H32.6021C32.0764 21.3256 31.5506 20.6884 31.0248 20.0493C31.3571 19.9711 31.6952 19.9203 32.0392 19.8793C32.7057 19.803 33.2862 19.6076 33.6986 19.0505C34.4355 18.0537 34.1169 16.664 33.0751 16.0268C32.8289 15.8763 32.565 15.7884 32.3011 15.7512V14.6352H37.5432C37.9205 14.6352 37.9205 14.0488 37.5432 14.0488H32.7194C32.7253 14.0254 32.7292 14.0019 32.7311 13.9765C32.7546 13.6306 32.5885 13.2318 32.2581 13.0813C32.0842 13.0012 31.8868 12.9738 31.6991 13.0286C31.5154 13.0833 31.3512 13.2123 31.275 13.3882C31.189 13.5817 31.1792 13.783 31.2046 13.9902C31.2066 14.0117 31.2105 14.0312 31.2144 14.0488H26.414C26.0368 14.0488 26.0368 14.6352 26.414 14.6352H31.7109V15.7591C31.0405 15.8685 30.4326 16.3181 30.1492 17.01C30.0749 17.1878 30.0319 17.3755 30.0163 17.567C27.6435 17.5827 25.468 18.7202 23.1245 18.9587C21.7857 19.0955 20.5015 18.8062 19.2057 18.5052C17.8551 18.1905 16.5025 17.8739 15.1519 17.5592C15.0483 17.5357 14.8021 17.524 14.7258 17.4282C14.6594 17.3442 14.6887 17.1175 14.6711 17.008C14.6242 16.7344 14.5069 16.4686 14.3467 16.2418C14.0652 15.847 13.645 15.5636 13.172 15.4952V14.6391H18.4063C18.7835 14.6391 18.7835 14.0527 18.4063 14.0527H13.4652C13.4867 13.8905 13.4632 13.7381 13.3889 13.5895C13.3225 13.4566 13.2013 13.3335 13.0703 13.2631C12.9101 13.1791 12.7342 13.1537 12.5582 13.1927C12.4117 13.226 12.2631 13.3178 12.1654 13.4312C12.0383 13.5797 11.9543 13.7654 11.966 13.9648C11.966 13.9941 11.9758 14.0234 11.9856 14.0527H7.28292C6.90569 14.0527 6.90569 14.6391 7.28292 14.6391H12.5876V15.4366C12.0442 15.462 11.5321 15.7552 11.1979 16.1852C10.7796 16.7227 10.678 17.4224 10.7855 18.0811C10.8871 18.7085 11.2037 19.3711 11.7901 19.674C12.3432 19.9594 12.9765 19.9164 13.5785 19.9164C14.2568 19.9164 14.8275 20.0669 15.3748 20.4852C15.9259 20.9073 16.3833 21.4546 16.8543 21.9589L17.642 22.8033C16.3931 23.1746 15.4549 24.189 14.6183 25.1487C14.3525 25.4536 14.0848 25.7664 13.8873 26.1221C13.6821 26.4954 13.5316 26.9039 13.3752 27.3007C13.0762 28.061 12.8143 28.8409 12.6501 29.6442C12.482 30.4729 12.4253 31.3055 12.5172 32.1421H11.8878C11.6826 32.1421 11.4872 32.3219 11.4969 32.533C11.5067 32.7441 11.6689 32.9239 11.8878 32.9239H13.8678C14.073 32.9239 14.2685 32.7441 14.2587 32.533C14.2489 32.3219 14.0867 32.1421 13.8678 32.1421H13.299C13.1759 31.2293 13.2814 30.3009 13.5043 29.4116C13.7349 28.4851 14.0593 27.5391 14.4796 26.6811C14.6887 26.255 14.9917 25.9071 15.3024 25.5533C15.5761 25.2425 15.8536 24.9357 16.1527 24.6484C16.7273 24.0952 17.3782 23.6339 18.1737 23.4756C18.201 23.4698 18.2264 23.4619 18.2499 23.4522L18.5255 23.7473C19.0044 24.2594 19.4754 24.8067 20.0794 25.1741C20.2729 25.2914 20.4781 25.3813 20.6892 25.4536C20.4566 25.8797 20.2944 26.3371 20.2572 26.8374C20.1986 27.6232 20.5191 28.3894 21.1368 28.878C21.7212 29.3393 22.4893 29.5289 23.2125 29.3197C23.5174 29.2318 23.7969 29.0813 24.0412 28.8858C24.1663 28.8682 24.2758 28.7666 24.3031 28.6454C24.5142 28.4206 24.6843 28.1587 24.7957 27.8655C25.1084 27.0466 24.9462 26.0732 24.5846 25.2816C25.0771 25.0979 25.5384 24.8399 25.9489 24.5037C26.3144 24.2027 26.6271 23.845 26.9164 23.4717C28.2552 24.4294 29.3322 25.7273 30.0319 27.2166C30.7414 28.7275 31.0307 30.4104 30.9799 32.0737H30.3857C30.1805 32.0737 29.985 32.2535 29.9948 32.4646C30.0046 32.6757 30.1668 32.8555 30.3857 32.8555H32.4673C32.6725 32.8555 32.868 32.6757 32.8582 32.4646C32.8484 32.2535 32.6862 32.0737 32.4673 32.0737H31.7636C31.8477 29.2513 30.9408 26.4387 29.039 24.3219C28.5425 23.7688 27.9816 23.2821 27.3815 22.8463C27.7119 22.3928 28.0383 21.9374 28.4292 21.5328C28.9022 21.0442 29.4631 20.6533 30.0788 20.3698C30.1922 20.3171 30.3056 20.2721 30.4189 20.2311C31.0268 20.9699 31.6346 21.7068 32.2425 22.4456V25.782C32.2425 25.782 32.2425 25.7918 32.2425 25.7957C32.2327 25.8719 32.2542 25.954 32.3246 26.0244C33.8355 27.545 35.3483 29.0656 36.8592 30.5863C36.9354 30.6625 37.0233 30.682 37.1035 30.6664C37.1054 30.6664 37.1093 30.6664 37.1113 30.6664C37.1191 30.6664 37.1289 30.6625 37.1367 30.6605C37.1817 30.6488 37.2266 30.6254 37.2657 30.5843C38.5127 29.3354 39.7597 28.0864 41.0067 26.8374C41.208 26.6361 41.0223 26.3508 40.8034 26.3371L40.8054 26.339ZM23.189 28.4988C22.1785 28.9366 21.0488 28.1333 21.0293 27.0583C21.0234 26.7612 21.0859 26.4778 21.1895 26.2081L23.3943 28.3933C23.3298 28.4324 23.2614 28.4675 23.189 28.4988ZM23.8282 27.9984C23.0405 27.2186 22.2528 26.4368 21.4632 25.6569C21.469 25.6491 21.4729 25.6413 21.4769 25.6315C21.6879 25.6589 21.899 25.6725 22.1121 25.6745C22.6828 25.6804 23.2614 25.6256 23.8223 25.5005C24.2093 26.2706 24.3305 27.3183 23.8282 27.9984ZM37.0624 29.9608C35.6512 28.5399 34.2381 27.1209 32.8269 25.6999V22.9831C33.1162 23.2724 33.4035 23.5597 33.6928 23.8489C33.8022 23.9584 33.9996 23.9662 34.1071 23.8489C34.2146 23.7317 34.2225 23.5499 34.1071 23.4346L33.2256 22.5531H36.1927C37.5726 23.931 38.9525 25.309 40.3324 26.6869L37.0624 29.9628V29.9608Z" fill="#009169"/>
<path d="M35.0215 24.7066C34.9042 24.5991 34.7224 24.5913 34.6071 24.7066C34.3491 24.9646 34.0891 25.2246 33.8311 25.4826C33.7217 25.592 33.7139 25.7895 33.8311 25.897C33.9484 26.0045 34.1302 26.0123 34.2455 25.897C34.5035 25.639 34.7635 25.379 35.0215 25.121C35.1309 25.0115 35.1387 24.8141 35.0215 24.7066Z" fill="#009169"/>
<path d="M36.3524 23.3773C36.2957 23.3265 36.2234 23.2874 36.1452 23.2913C36.067 23.2952 35.9947 23.3206 35.938 23.3773C35.7172 23.5981 35.4944 23.821 35.2735 24.0418C35.2207 24.0946 35.1875 24.1747 35.1875 24.249C35.1875 24.3233 35.2188 24.4073 35.2735 24.4562C35.3302 24.507 35.4025 24.5461 35.4807 24.5422C35.5589 24.5383 35.6312 24.5129 35.6879 24.4562L36.3524 23.7916C36.4052 23.7389 36.4384 23.6587 36.4384 23.5845C36.4384 23.5102 36.4071 23.4261 36.3524 23.3773Z" fill="#009169"/>
</svg>
