<svg width="48" height="47" viewBox="0 0 48 47" fill="none" xmlns="http://www.w3.org/2000/svg">
<path d="M0.609375 7C0.609375 3.13401 3.74338 0 7.60938 0H40.6094C44.4754 0 47.6094 3.13401 47.6094 7V40C47.6094 43.866 44.4754 47 40.6094 47H7.60937C3.74338 47 0.609375 43.866 0.609375 40V7Z" fill="#009169"/>
<path d="M28.7837 31.3411C26.3221 31.5036 26.3221 34.8186 28.7837 34.9811H34.6287C35.3404 34.9811 36.0171 34.7428 36.5421 34.2986C38.2687 32.9011 37.3471 30.0844 35.0721 29.8244C34.2554 25.2528 27.1271 26.9861 28.8187 31.3411" fill="#E5F4F0"/>
<path d="M28.7837 31.3411C26.3221 31.5036 26.3221 34.8186 28.7837 34.9811H34.6287C35.3404 34.9811 36.0171 34.7428 36.5421 34.2986C38.2687 32.9011 37.3471 30.0844 35.0721 29.8244C34.2554 25.2528 27.1271 26.9861 28.8187 31.3411" fill="#E5F4F0"/>
<path d="M36.2786 21.9918V26.6177C36.2786 26.9643 35.6836 27.116 35.427 26.8668C34.8786 26.336 34.1903 25.9352 33.397 25.7077C31.5653 25.1768 29.4536 25.6968 28.1236 26.9752C27.2836 27.8094 26.8286 28.8493 26.8053 29.976C26.8053 30.171 26.7003 30.3443 26.537 30.4635C25.697 31.081 25.1836 32.0452 25.1836 33.1502V33.161C25.1836 33.5077 24.9153 33.8218 24.542 33.8218H19.1753C15.7453 33.8327 12.9453 31.2327 12.9453 28.0368V16.9543C12.9453 14.311 15.2553 12.166 18.102 12.166H20.8086C22.7103 12.166 23.3053 12.7402 24.0636 13.6827L25.697 15.6977C26.0586 16.1418 26.1053 16.196 26.782 16.196H30.037C32.8136 16.196 35.1703 17.886 35.9753 20.226C36.1503 20.7135 36.2436 21.2118 36.267 21.7427C36.2786 21.8185 36.2786 21.916 36.2786 21.9918Z" fill="#E5F4F0"/>
</svg>
