<svg width="17" height="16" viewBox="0 0 17 16" fill="none" xmlns="http://www.w3.org/2000/svg">
<path d="M14.4321 7.88039L14.3254 7.73372C14.1387 7.50706 13.9187 7.32706 13.6654 7.19372C13.3254 7.00039 12.9387 6.90039 12.5387 6.90039H4.23872C3.83873 6.90039 3.45873 7.00039 3.11206 7.19372C2.85206 7.33372 2.61873 7.52706 2.42539 7.76706C2.04539 8.25372 1.86539 8.85372 1.92539 9.45372L2.17206 12.5671C2.25873 13.5071 2.37206 14.6671 4.48539 14.6671H12.2987C14.4121 14.6671 14.5187 13.5071 14.6121 12.5604L14.8587 9.46039C14.9187 8.90039 14.7721 8.34039 14.4321 7.88039ZM9.98539 11.5604H6.79206C6.53206 11.5604 6.32539 11.3471 6.32539 11.0937C6.32539 10.8404 6.53206 10.6271 6.79206 10.6271H9.98539C10.2454 10.6271 10.4521 10.8404 10.4521 11.0937C10.4521 11.3537 10.2454 11.5604 9.98539 11.5604Z" fill="white"/>
<path d="M14.0589 5.44472C14.1175 5.82492 13.6968 6.08608 13.3225 5.99718C13.0703 5.93727 12.8092 5.90732 12.5406 5.90732H4.23396C3.95922 5.90732 3.68761 5.94023 3.42673 6.00377C3.05735 6.09374 2.64062 5.84239 2.64062 5.4622V4.44065C2.64063 2.06065 3.36729 1.33398 5.74729 1.33398H6.53396C7.48729 1.33398 7.78729 1.64065 8.17396 2.14065L8.97396 3.20732C9.14062 3.43398 9.14729 3.44732 9.44063 3.44732H11.0273C12.991 3.44732 13.8273 3.94301 14.0589 5.44472Z" fill="white"/>
</svg>
