<svg width="143" height="96" viewBox="0 0 143 96" fill="none" xmlns="http://www.w3.org/2000/svg">
<path d="M96.9486 47.9309C96.9294 46.0549 96.9666 44.1755 96.8652 42.304C96.6736 38.757 95.6269 35.5853 92.6118 33.3667C89.7397 31.253 86.3978 30.4248 82.9613 29.9054C82.2289 29.795 82.0621 29.5223 82.0554 28.8745C82.0464 27.8469 82.025 26.8137 81.9089 25.794C81.7016 23.9506 80.1557 22.7112 78.3112 22.7822C77.7298 22.8047 77.4515 22.9681 77.4696 23.6058C77.5056 24.8926 77.5158 27.421 77.5158 27.421V27.4672C77.5158 27.4672 77.5541 28.3483 77.5755 28.7888C77.7727 32.9127 78.1907 37.0038 79.6802 40.8978C81.1484 44.7355 83.6351 47.4678 87.8569 48.2982C90.7053 48.8582 93.5785 48.5867 96.4415 48.6689C97.0488 48.6858 96.9519 48.2858 96.9486 47.9309ZM92.4563 43.7226C92.3661 44.233 92.3526 44.2375 91.2383 44.2059C86.9781 44.0842 84.9556 42.5981 83.581 38.5734C83.2013 37.4624 82.9534 36.3165 82.7337 35.1628C82.6142 34.534 82.8283 34.3831 83.4131 34.4969C85.3995 34.8856 87.3522 35.3678 89.1121 36.4213C91.4129 37.7971 92.9205 41.0984 92.4552 43.7214L92.4563 43.7226Z" fill="#009169"/>
<path d="M67.7282 24.9598C67.6876 23.7463 67.5941 22.668 67.5941 21.4534L67.5817 21.3171C67.5817 20.6196 67.62 19.9199 67.5761 19.2247C67.344 15.5854 66.9473 11.9697 65.7282 8.50161C64.348 4.57831 62.0303 1.57106 57.7735 0.515308C54.8023 -0.222704 51.7691 0.0691204 48.7585 0.00602324C48.248 -0.00411738 48.2593 0.288834 48.2616 0.640375C48.2796 2.66512 48.2154 4.69211 48.3168 6.71122C48.5872 12.0305 51.3116 15.5403 56.3065 17.3476C58.2523 18.0518 60.25 18.5194 62.2917 18.7887C62.89 18.8664 63.1029 19.0501 63.1029 19.6619C63.1052 20.7256 63.1491 21.796 63.2685 22.854C63.4714 24.6635 64.944 25.895 66.7434 25.8916C67.4161 25.8916 67.7541 25.6978 67.7282 24.9564V24.9598ZM60.4776 13.9313C59.3633 13.697 58.2839 13.3488 57.2292 12.9116C53.9268 11.5438 52.7448 8.89146 52.7482 5.54167C52.5116 4.58282 52.9882 4.41832 53.8141 4.46001C58.6794 4.70226 61.0703 6.86446 62.1677 12.2086C62.6162 14.3956 63.0793 14.4812 60.4787 13.9325L60.4776 13.9313Z" fill="#009169"/>
<path d="M96.9267 0.573022C96.9368 0.0243024 96.6563 0.00176764 96.245 0.00627458C94.2575 0.029936 92.2665 -0.029781 90.2823 0.0626113C85.0205 0.30824 81.4803 2.94029 79.6381 7.88103C78.9158 9.81901 78.4043 11.8122 78.1688 13.8561C78.0708 14.7034 77.7531 14.8724 77.0072 14.8634C76.0168 14.851 75.0196 14.895 74.036 15.0065C72.2129 15.2127 70.9487 16.7991 71.0355 18.6222C71.0636 19.2137 71.2428 19.4684 71.8828 19.4447C73.0951 19.3985 74.312 19.4312 75.5266 19.4312C75.5266 19.4312 76.997 19.3726 77.7271 19.323C81.8037 19.0413 85.861 18.6425 89.6886 17.0459C93.4913 15.4594 95.9521 12.7508 96.6518 8.61453C97.1025 5.9498 96.8783 3.25578 96.9267 0.573022ZM87.7213 13.0426C86.1179 13.6871 84.4504 14.0893 82.616 14.2922C82.9146 12.326 83.3056 10.5334 84.0718 8.84439C85.7495 5.14982 88.3917 4.54026 91.8891 4.46364C92.3206 4.4535 92.4682 4.63828 92.4637 5.05405C92.4198 8.96157 91.6187 11.4731 87.7202 13.0426H87.7213Z" fill="#009169"/>
<path d="M74.1375 30.0749C74.1116 29.4935 73.9538 29.2006 73.3105 29.2175C72.0215 29.2513 70.9894 29.3471 69.7004 29.3471L69.4435 29.3493C68.7821 29.3493 68.1185 29.3121 67.4593 29.355C63.3749 29.622 59.3153 30.0501 55.4957 31.6693C51.6591 33.2963 49.2243 36.0861 48.5279 40.2629C48.0953 42.86 48.3139 45.4842 48.2519 48.0959C48.2395 48.6401 48.5133 48.6728 48.9302 48.6672C50.8468 48.6435 52.7678 48.7224 54.6777 48.6086C60.4432 48.2661 63.8076 45.6678 65.7219 40.2009C66.3563 38.388 66.7912 36.5255 67.0368 34.6258C67.1157 34.0106 67.3196 33.827 67.9157 33.8213C69.0176 33.8112 70.1263 33.7785 71.2181 33.6444C72.9995 33.427 74.2164 31.8631 74.1364 30.0738L74.1375 30.0749ZM61.8031 37.7919C61.6003 38.4939 61.3502 39.1902 61.0437 39.8527C59.3085 43.5958 56.601 44.0735 53.3087 44.1941C52.6946 44.2166 52.654 44.0634 52.734 42.9794C53.0788 38.3069 54.583 36.4725 59.2004 35.1238C60.2482 34.8174 61.7705 34.0286 62.2865 34.5965C62.9152 35.2883 62.1152 36.7125 61.8043 37.7908L61.8031 37.7919Z" fill="#009169"/>
<path d="M72.7767 21.9277C71.3513 21.9277 70.1953 23.0838 70.1953 24.5091C70.1953 25.9344 71.3513 27.0904 72.7767 27.0904C74.202 27.0904 75.358 25.9344 75.358 24.5091C75.358 23.0838 74.202 21.9277 72.7767 21.9277ZM72.7767 25.4443C72.2595 25.4443 71.8403 25.0251 71.8403 24.508C71.8403 23.9908 72.2595 23.5716 72.7767 23.5716C73.2938 23.5716 73.713 23.9908 73.713 24.508C73.713 25.0251 73.2938 25.4443 72.7767 25.4443Z" fill="#001D15"/>
<path d="M0 78.2203V77.4575C0.476609 77.3325 0.819136 77.2142 1.02758 77.0992C1.2349 76.9854 1.39602 76.8401 1.50982 76.6632C1.62363 76.4874 1.707 76.2328 1.75883 75.9004C1.81066 75.568 1.83658 75.0441 1.83658 74.3286V60.8664C1.83658 60.1407 1.81066 59.6134 1.75883 59.2867C1.707 58.9599 1.62137 58.7087 1.50194 58.5318C1.3825 58.356 1.22476 58.2129 1.02758 58.1036C0.830404 57.9943 0.487876 57.8726 0 57.7374V56.9746H6.81675C8.77727 56.9746 10.3829 57.1898 11.6335 57.6202C12.8842 58.0506 13.9388 58.6861 14.8008 59.5267C15.6616 60.3672 16.305 61.4128 16.7309 62.6624C17.1557 63.913 17.3686 65.4037 17.3686 67.1366C17.3686 68.8696 17.1692 70.4335 16.7692 71.7664C16.3692 73.0993 15.7856 74.217 15.0183 75.1207C14.3546 75.9094 13.54 76.5573 12.5744 77.0665C11.7755 77.4812 10.8516 77.7775 9.80372 77.9533C8.75586 78.1302 7.36547 78.2181 5.63255 78.2181H0V78.2203ZM4.74694 76.7725C5.16157 76.8142 5.77452 76.8344 6.58351 76.8344C7.45448 76.8344 8.23305 76.7623 8.91811 76.617C9.60316 76.4716 10.2251 76.2429 10.7851 75.9319C11.3451 75.621 11.8487 75.1872 12.2949 74.6328C12.7411 74.0773 13.1039 73.4396 13.3845 72.7185C13.665 71.9974 13.869 71.1963 13.9997 70.314C14.1293 69.4318 14.1946 68.4673 14.1946 67.4194C14.1946 65.3136 13.8915 63.5829 13.2842 62.2297C12.6769 60.8754 11.8217 59.8872 10.7164 59.2653C9.61105 58.6422 8.29052 58.3312 6.7559 58.3312C6.05057 58.3312 5.38129 58.3526 4.74806 58.3932V76.7725H4.74694Z" fill="#3A3B3E"/>
<path d="M24.9336 65.9246L25.151 65.9708C25.7211 65.2756 26.2507 64.728 26.7386 64.3291C27.2265 63.9302 27.7526 63.6204 28.3183 63.4029C28.8839 63.1855 29.5239 63.0762 30.2405 63.0762C30.8422 63.0762 31.3864 63.1077 31.8742 63.1697V66.7493H30.1154C29.8664 66.1893 29.6016 65.7826 29.3222 65.5279C29.0416 65.2744 28.6585 65.1471 28.1707 65.1471C27.7977 65.1471 27.4259 65.2564 27.0574 65.4739C26.689 65.6913 26.3341 66.0079 25.9916 66.4237C25.649 66.8383 25.4135 67.2282 25.284 67.591C25.1544 67.9538 25.089 68.3842 25.089 68.8822V74.3289C25.089 75.2731 25.1454 75.9243 25.2603 76.2815C25.3741 76.6398 25.5634 76.9012 25.8282 77.068C26.093 77.2336 26.4896 77.3632 27.0191 77.4567V78.2195H20.7477V77.4567C21.1421 77.3316 21.4249 77.2235 21.5962 77.1299C21.7674 77.0364 21.915 76.9069 22.0401 76.7412C22.164 76.5756 22.2576 76.3209 22.3207 75.9784C22.3826 75.6359 22.4142 75.1018 22.4142 74.3751V67.5899C22.4142 66.9262 22.404 66.391 22.3826 65.9865C22.3612 65.582 22.2891 65.2575 22.1652 65.0142C22.0412 64.7708 21.8508 64.5894 21.5973 64.4699C21.3426 64.3505 20.9821 64.2491 20.5156 64.1669V63.3579L24.1572 63.2024H25.1071L24.9358 65.9257L24.9336 65.9246Z" fill="#3A3B3E"/>
<path d="M40.6834 78.4685C38.5257 78.4685 36.8784 77.833 35.7427 76.5621C34.6069 75.2911 34.0391 73.4106 34.0391 70.9205C34.0391 69.209 34.3376 67.7611 34.9337 66.5781C35.5297 65.395 36.3477 64.5161 37.3843 63.9404C38.4221 63.3646 39.604 63.0762 40.9324 63.0762C43.1521 63.0762 44.8332 63.7218 45.9746 65.0142C47.116 66.3054 47.6861 68.16 47.6861 70.578C47.6861 72.3008 47.401 73.7531 46.8298 74.9351C46.2585 76.1181 45.4495 77.0026 44.4016 77.5885C43.3538 78.1744 42.1144 78.4674 40.6823 78.4674L40.6834 78.4685ZM36.9798 70.5938C36.9798 72.7312 37.3201 74.3728 37.9995 75.5198C38.679 76.6669 39.6513 77.2392 40.9178 77.2392C41.613 77.2392 42.2045 77.0702 42.6924 76.7333C43.1803 76.3964 43.5769 75.9424 43.8834 75.3711C44.1887 74.801 44.4095 74.1396 44.5447 73.3869C44.68 72.6343 44.7476 71.8489 44.7476 71.0287C44.7476 69.5031 44.5785 68.2377 44.2417 67.2316C43.9048 66.2254 43.4451 65.4863 42.8648 65.0142C42.2834 64.5421 41.6197 64.3066 40.8727 64.3066C39.6175 64.3066 38.6553 64.8508 37.986 65.9403C37.3167 67.0299 36.9821 68.5814 36.9821 70.5938H36.9798Z" fill="#3A3B3E"/>
<path d="M65.9837 78.2205H59.852V77.4577C60.2565 77.3326 60.5472 77.2244 60.7241 77.1309C60.8998 77.0374 61.0486 76.9078 61.168 76.7422C61.2874 76.5766 61.381 76.3197 61.4486 75.9715C61.5162 75.6245 61.55 75.0972 61.55 74.3918V70.3142C61.55 69.5885 61.5286 68.9294 61.488 68.3379C61.4463 67.7463 61.3765 67.2618 61.2773 66.8821C61.1782 66.5036 61.0598 66.2083 60.919 65.9954C60.7793 65.7824 60.6125 65.601 60.421 65.4512C60.2283 65.3013 60.0086 65.1819 59.7596 65.0929C59.5106 65.005 59.1838 64.9611 58.7793 64.9611C58.3748 64.9611 57.9906 65.041 57.6278 65.2022C57.265 65.3633 56.865 65.6405 56.429 66.0348C55.9929 66.4292 55.6763 66.8179 55.4791 67.2021C55.2819 67.5863 55.1839 68.0269 55.1839 68.5249V74.3299C55.1839 75.2222 55.2256 75.8419 55.3079 76.189C55.3912 76.5371 55.549 76.8008 55.7822 76.9822C56.0155 77.1636 56.3974 77.3225 56.9259 77.4565V78.2193H50.8257V77.4565C51.2302 77.3315 51.5186 77.2233 51.6899 77.1298C51.8612 77.0363 52.0065 76.9067 52.126 76.7411C52.2454 76.5754 52.3389 76.3208 52.4065 75.9783C52.4741 75.6357 52.5079 75.1017 52.5079 74.3749V67.5897C52.5079 66.9261 52.4978 66.3909 52.4764 65.9864C52.455 65.5819 52.3829 65.2574 52.2589 65.014C52.135 64.7706 51.9446 64.5892 51.691 64.4698C51.4364 64.3504 51.0758 64.249 50.6094 64.1667V63.3419L54.251 63.2022H55.2008L55.0296 65.7385L55.247 65.8005C56.0143 65.0219 56.634 64.4675 57.1073 64.1352C57.5794 63.8028 58.0571 63.5459 58.5393 63.3645C59.0216 63.1831 59.5331 63.0918 60.0728 63.0918C60.6125 63.0918 61.1331 63.1571 61.5748 63.2867C62.0153 63.4163 62.4052 63.6157 62.7421 63.8861C63.079 64.1566 63.3573 64.4912 63.5747 64.8901C63.7922 65.2901 63.9556 65.7689 64.0648 66.33C64.1741 66.89 64.2282 67.601 64.2282 68.4618V74.3287C64.2282 75.0442 64.2485 75.5636 64.2902 75.8847C64.3319 76.207 64.404 76.456 64.5077 76.6318C64.6113 76.8087 64.7623 76.9563 64.9595 77.0757C65.1567 77.1951 65.4992 77.3225 65.9871 77.4565V78.2193L65.9837 78.2205Z" fill="#3A3B3E"/>
<path d="M81.0519 75.5739C80.3883 76.2691 79.7787 76.8133 79.2232 77.2077C78.6677 77.602 78.0582 77.9108 77.3945 78.1339C76.7309 78.357 75.9985 78.4685 75.2008 78.4685C73.0634 78.4685 71.4499 77.8285 70.3603 76.5463C69.2708 75.2652 68.7266 73.3745 68.7266 70.8732C68.7266 69.3273 69.0037 67.9628 69.5592 66.7797C70.1147 65.5967 70.9057 64.684 71.9321 64.0407C72.9597 63.3973 74.1417 63.0762 75.4802 63.0762C76.5281 63.0762 77.4205 63.2418 78.1573 63.5742C78.8942 63.9066 79.4824 64.3607 79.9241 64.9364C80.3646 65.5122 80.7071 66.2389 80.9516 67.1155C81.195 67.9921 81.3325 69.1358 81.364 70.5476H71.5592V70.8281C71.5592 72.0529 71.6966 73.0827 71.9716 73.9176C72.2465 74.7525 72.6972 75.406 73.3259 75.8781C73.9535 76.3502 74.7704 76.5857 75.7765 76.5857C76.6272 76.5857 77.3923 76.428 78.0717 76.1114C78.7511 75.7948 79.4283 75.2787 80.1032 74.5632L81.0519 75.575V75.5739ZM78.4379 69.2552C78.3759 68.1341 78.2351 67.2192 78.0176 66.5082C77.8002 65.7972 77.4734 65.253 77.0374 64.8744C76.6013 64.4959 76.0312 64.3066 75.3259 64.3066C74.2566 64.3066 73.4036 64.7347 72.7659 65.5899C72.1282 66.4451 71.7518 67.6676 71.6369 69.2552H78.4379Z" fill="#3A3B3E"/>
<path d="M89.2691 76.7879H93.3468C93.7929 76.7879 94.1659 76.762 94.4667 76.7102C94.7676 76.6584 95.0245 76.5784 95.2374 76.4691C95.4504 76.3598 95.6419 76.2099 95.8132 76.0184C95.9844 75.8268 96.1478 75.5744 96.3033 75.2635C96.4588 74.9525 96.6064 74.5604 96.7472 74.0883C96.887 73.6162 97.0605 72.9086 97.2689 71.9644H98.8407L98.5297 78.2212H84.5391V77.4584C85.1824 77.2927 85.6128 77.1079 85.8303 76.9063C86.0478 76.7046 86.1909 76.4161 86.2585 76.042C86.3261 75.668 86.3599 75.0978 86.3599 74.3305V60.8683C86.3599 60.1528 86.334 59.6312 86.2821 59.3044C86.2303 58.9776 86.1447 58.723 86.0252 58.5416C85.9058 58.3602 85.7481 58.2148 85.5509 58.1056C85.3537 57.9963 85.0168 57.8746 84.5391 57.7394V56.9766H91.091V57.7394C90.6347 57.8633 90.3102 57.976 90.1187 58.074C89.9271 58.1732 89.7682 58.305 89.6443 58.4706C89.5192 58.6362 89.4268 58.8909 89.3637 59.2334C89.3018 59.5759 89.2702 60.1202 89.2702 60.8672V76.7879H89.2691Z" fill="#3A3B3E"/>
<path d="M113.7 75.5739C113.037 76.2691 112.427 76.8133 111.872 77.2077C111.316 77.602 110.707 77.9108 110.043 78.1339C109.379 78.357 108.647 78.4685 107.849 78.4685C105.712 78.4685 104.098 77.8285 103.009 76.5463C101.919 75.2652 101.375 73.3745 101.375 70.8732C101.375 69.3273 101.652 67.9628 102.208 66.7797C102.763 65.5967 103.554 64.684 104.581 64.0407C105.608 63.3973 106.79 63.0762 108.129 63.0762C109.177 63.0762 110.069 63.2418 110.806 63.5742C111.543 63.9066 112.131 64.3607 112.572 64.9364C113.013 65.5122 113.356 66.2389 113.6 67.1155C113.843 67.9921 113.981 69.1358 114.012 70.5476H104.208V70.8281C104.208 72.0529 104.345 73.0827 104.62 73.9176C104.895 74.7525 105.346 75.406 105.974 75.8781C106.602 76.3502 107.419 76.5857 108.425 76.5857C109.276 76.5857 110.041 76.428 110.72 76.1114C111.4 75.7948 112.077 75.2787 112.752 74.5632L113.7 75.575V75.5739ZM111.085 69.2552C111.023 68.1341 110.882 67.2192 110.665 66.5082C110.447 65.7972 110.121 65.253 109.685 64.8744C109.249 64.4959 108.678 64.3066 107.973 64.3066C106.904 64.3066 106.051 64.7347 105.413 65.5899C104.775 66.4451 104.399 67.6676 104.285 69.2552H111.086H111.085Z" fill="#3A3B3E"/>
<path d="M125.806 75.995L125.573 75.933C124.671 76.857 123.822 77.5105 123.029 77.8936C122.236 78.2778 121.392 78.4693 120.499 78.4693C119.711 78.4693 119.016 78.3161 118.414 78.0107C117.812 77.7043 117.35 77.2739 117.029 76.7195C116.707 76.1652 116.547 75.524 116.547 74.7973C116.547 73.283 117.296 72.1123 118.796 71.2875C120.294 70.4627 122.543 69.9828 125.543 69.8476V68.8357C125.543 67.7563 125.439 66.9056 125.232 66.2837C125.024 65.6617 124.698 65.2043 124.251 64.9147C123.805 64.624 123.209 64.4787 122.462 64.4787C121.653 64.4787 121.002 64.6916 120.51 65.1164C120.016 65.5423 119.645 66.18 119.396 67.0307H117.358V65.0071C118.354 64.4888 119.185 64.1068 119.848 63.8635C120.512 63.6201 121.177 63.4274 121.84 63.2877C122.504 63.148 123.179 63.0781 123.864 63.0781C124.891 63.0781 125.716 63.2415 126.338 63.5683C126.961 63.895 127.428 64.3953 127.739 65.0702C128.05 65.7451 128.205 66.7614 128.205 68.1203V73.5365C128.205 74.3049 128.21 74.8469 128.221 75.1624C128.231 75.479 128.263 75.7719 128.314 76.0412C128.366 76.3116 128.444 76.5268 128.548 76.6868C128.651 76.848 128.805 76.9854 129.006 77.0992C129.209 77.213 129.538 77.3325 129.994 77.4575V78.2203H125.73L125.808 75.995H125.806ZM125.542 71.123C123.436 71.1444 121.858 71.4239 120.81 71.9636C119.763 72.5033 119.239 73.3179 119.239 74.4074C119.239 74.999 119.358 75.4655 119.597 75.808C119.836 76.1505 120.137 76.386 120.499 76.5167C120.862 76.6463 121.293 76.7116 121.791 76.7116C122.496 76.7116 123.137 76.5404 123.713 76.1978C124.289 75.8553 124.737 75.4193 125.059 74.8908C125.38 74.3612 125.542 73.8384 125.542 73.319V71.1241V71.123Z" fill="#3A3B3E"/>
<path d="M140.373 64.9131H136.654V74.3281C136.654 75.0233 136.687 75.5473 136.755 75.8999C136.823 76.2526 136.921 76.5196 137.05 76.701C137.18 76.8825 137.351 77.0278 137.564 77.1371C137.777 77.2464 138.116 77.3523 138.584 77.456V78.2188H132.219V77.456C132.675 77.3309 133.002 77.2126 133.199 77.0977C133.396 76.9839 133.549 76.8385 133.658 76.6616C133.767 76.4858 133.847 76.2312 133.899 75.8988C133.951 75.5664 133.977 75.0425 133.977 74.327V64.912H132.094V64.1188C132.488 64.0568 132.75 64.0073 132.879 63.9712C133.009 63.9351 133.134 63.8799 133.253 63.8078C133.373 63.7357 133.476 63.632 133.564 63.4968C133.652 63.3616 133.73 63.1622 133.797 62.8974C133.865 62.6326 133.919 62.2619 133.961 61.7842C134.054 60.653 134.259 59.7347 134.576 59.0293C134.893 58.324 135.355 57.7223 135.961 57.2243C136.567 56.7263 137.216 56.3759 137.907 56.1742C138.596 55.9714 139.409 55.8711 140.343 55.8711C141.162 55.8711 141.857 55.9286 142.428 56.0424V58.8592H140.888C140.691 58.2474 140.46 57.8136 140.195 57.5601C139.93 57.3066 139.56 57.1792 139.082 57.1792C138.739 57.1792 138.452 57.2254 138.218 57.3189C137.984 57.4125 137.769 57.5578 137.572 57.755C137.375 57.9522 137.206 58.217 137.066 58.5482C136.926 58.8806 136.822 59.293 136.755 59.7854C136.687 60.2778 136.654 60.9189 136.654 61.7076V63.3413H140.373V64.9131Z" fill="#3A3B3E"/>
<path d="M23.3195 89.6131C23.3195 90.0627 23.2778 90.4491 23.1955 90.7748C23.1178 91.0835 22.9995 91.3584 22.8429 91.5973C22.6986 91.8114 22.5195 91.9939 22.3054 92.1438C22.0913 92.2947 21.8311 92.413 21.5268 92.4987C21.2215 92.5854 20.8632 92.6282 20.4508 92.6282C19.9517 92.6282 19.5246 92.573 19.1686 92.4615C18.8125 92.3499 18.5173 92.1674 18.2852 91.915C18.052 91.6615 17.8841 91.3629 17.7816 91.0181C17.679 90.6745 17.6272 90.2362 17.6272 89.7044V85.6369C17.6272 85.3157 17.6171 85.0983 17.5968 84.9845C17.5765 84.8718 17.5461 84.7817 17.5067 84.7152C17.4672 84.6498 17.4109 84.5924 17.3365 84.545C17.2621 84.4977 17.1247 84.447 16.9219 84.3941V84.091H19.5179V84.3941C19.2869 84.4515 19.1258 84.5169 19.0356 84.589C18.9444 84.6611 18.8835 84.7693 18.8497 84.9135C18.817 85.0577 18.8001 85.2988 18.8001 85.6369V90.0131C18.8001 90.4131 18.8418 90.7489 18.9263 91.0204C19.0108 91.2919 19.1291 91.5038 19.2813 91.6536C19.4334 91.8046 19.6148 91.9128 19.8255 91.9815C20.0362 92.0491 20.2976 92.0829 20.6108 92.0829C20.8992 92.0829 21.1528 92.0322 21.3714 91.9319C21.5899 91.8305 21.7725 91.6773 21.9178 91.4711C22.0643 91.2649 22.1646 91.0114 22.2175 90.7105C22.2716 90.4097 22.2975 90.0063 22.2975 89.4993V85.6357C22.2975 85.2774 22.2795 85.0318 22.2446 84.9C22.2096 84.7681 22.1522 84.6667 22.0711 84.5969C21.9911 84.527 21.8243 84.4594 21.573 84.3929V84.0898H24.0395V84.3929C23.8006 84.4549 23.6361 84.5225 23.5482 84.5969C23.4592 84.6712 23.3983 84.7783 23.3657 84.918C23.333 85.0577 23.3161 85.2977 23.3161 85.6346V89.6086L23.3195 89.6131Z" fill="#3A3B3E"/>
<path d="M31.1917 92.5292H28.7568V92.2261C28.918 92.1766 29.0329 92.1338 29.1027 92.0966C29.1726 92.0594 29.2312 92.0076 29.2785 91.9422C29.3258 91.8769 29.363 91.7743 29.3901 91.6369C29.4171 91.4994 29.4306 91.2898 29.4306 91.0093V89.3901C29.4306 89.1017 29.4227 88.8403 29.4058 88.6048C29.3889 88.3705 29.3619 88.1778 29.3225 88.0268C29.283 87.8769 29.2357 87.7586 29.1805 87.6741C29.1253 87.5896 29.0588 87.5175 28.9822 87.4578C28.9056 87.3981 28.8188 87.3508 28.7197 87.3158C28.6205 87.2809 28.4909 87.2629 28.3298 87.2629C28.1687 87.2629 28.0166 87.2944 27.8724 87.3586C27.7281 87.4229 27.5693 87.5333 27.3969 87.6899C27.2234 87.8465 27.0983 88.0009 27.0194 88.153C26.9405 88.3051 26.9022 88.4809 26.9022 88.6781V90.9834C26.9022 91.3383 26.9191 91.5839 26.9518 91.7225C26.9845 91.8611 27.0476 91.9659 27.14 92.038C27.2324 92.1101 27.3845 92.1732 27.594 92.2261V92.5292H25.1716V92.2261C25.3327 92.1766 25.4465 92.1338 25.5141 92.0966C25.5817 92.0594 25.6403 92.0076 25.6876 91.9422C25.7349 91.8769 25.7721 91.7754 25.7992 91.6391C25.8262 91.5028 25.8397 91.2909 25.8397 91.0025V88.3074C25.8397 88.0437 25.8352 87.8319 25.8273 87.6708C25.8194 87.5096 25.7901 87.3812 25.7406 87.2843C25.691 87.1874 25.6155 87.1153 25.5152 87.0679C25.4138 87.0206 25.2707 86.9801 25.0859 86.9474V86.6195L26.5327 86.5643H26.9101L26.8425 87.5716L26.9293 87.5964C27.2346 87.2877 27.4802 87.0668 27.6684 86.935C27.8555 86.8032 28.0459 86.7006 28.2374 86.6296C28.429 86.5575 28.6318 86.5215 28.8459 86.5215C29.0599 86.5215 29.2673 86.5474 29.4419 86.5992C29.6165 86.6511 29.772 86.7299 29.905 86.837C30.0391 86.944 30.1495 87.077 30.2351 87.2358C30.3207 87.3947 30.3861 87.5851 30.43 87.8071C30.4729 88.0291 30.4954 88.3119 30.4954 88.6544V90.9845C30.4954 91.2684 30.5033 91.4746 30.5202 91.6031C30.5371 91.7304 30.5652 91.8295 30.6069 91.8994C30.6486 91.9692 30.7083 92.0278 30.7861 92.0752C30.8638 92.1225 31.0002 92.1732 31.194 92.2261V92.5292H31.1917Z" fill="#3A3B3E"/>
<path d="M33.8848 90.9848C33.8848 91.3398 33.9017 91.5854 33.9344 91.724C33.9671 91.8626 34.0301 91.9673 34.1225 92.0395C34.2149 92.1116 34.367 92.1747 34.5766 92.2276V92.5307H32.1226V92.2276C32.3288 92.1747 32.4719 92.1183 32.5519 92.0609C32.6319 92.0034 32.6893 91.9347 32.7254 91.8536C32.7603 91.7736 32.7851 91.6643 32.7998 91.5257C32.8144 91.3871 32.8212 91.2068 32.8212 90.9848V85.8109C32.8212 85.4154 32.8178 85.1393 32.8122 84.9827C32.8065 84.8261 32.7896 84.6931 32.7626 84.5839C32.7355 84.4746 32.6983 84.3889 32.651 84.327C32.6037 84.265 32.5395 84.2154 32.4595 84.1782C32.3795 84.141 32.2341 84.1039 32.0234 84.0667V83.7456L33.513 83.6836H33.8837V90.9837L33.8848 90.9848Z" fill="#3A3B3E"/>
<path d="M35.6716 92.2264C35.8327 92.1768 35.9465 92.134 36.0141 92.0968C36.0817 92.0596 36.1403 92.0078 36.1876 91.9424C36.2349 91.8771 36.2721 91.7757 36.2992 91.6394C36.3262 91.503 36.3397 91.2912 36.3397 91.0027V88.3076C36.3397 88.0439 36.3352 87.8321 36.3273 87.671C36.3194 87.5099 36.2901 87.3814 36.2406 87.2845C36.191 87.1876 36.1155 87.1155 36.0152 87.0682C35.9138 87.0209 35.7707 86.9803 35.5859 86.9476V86.6197L37.0259 86.5645H37.4034V90.9836C37.4034 91.3385 37.4203 91.5841 37.4529 91.7227C37.4856 91.8613 37.5487 91.9661 37.6411 92.0382C37.7335 92.1103 37.8856 92.1734 38.0952 92.2264V92.5295H35.6727V92.2264H35.6716ZM37.4394 84.1973V85.3961H36.3025V84.1973H37.4394Z" fill="#3A3B3E"/>
<path d="M40.8559 87.5735L40.9426 87.5983C41.1894 87.3516 41.3933 87.1645 41.5511 87.0395C41.71 86.9133 41.8632 86.813 42.0119 86.7364C42.1606 86.6598 42.2992 86.6057 42.4288 86.573C42.5584 86.5403 42.6913 86.5234 42.8277 86.5234C43.2401 86.5234 43.5758 86.6181 43.835 86.8074C44.0941 86.9967 44.2744 87.2874 44.3724 87.6783C44.6812 87.3651 44.9313 87.1341 45.124 86.9865C45.3155 86.8378 45.5116 86.724 45.711 86.644C45.9104 86.564 46.1256 86.5234 46.3566 86.5234C46.6327 86.5234 46.8704 86.564 47.071 86.644C47.2704 86.724 47.4394 86.8479 47.578 87.0147C47.7166 87.1814 47.8169 87.391 47.8811 87.6423C47.9453 87.8935 47.9769 88.2316 47.9769 88.6563V90.9864C47.9769 91.2997 47.987 91.516 48.0073 91.6354C48.0276 91.7549 48.058 91.8473 48.0974 91.9137C48.1369 91.9791 48.1954 92.0366 48.2732 92.0839C48.3509 92.1312 48.4839 92.1796 48.6687 92.2292V92.5323H46.2394V92.2292C46.4006 92.1796 46.5155 92.1368 46.5853 92.0996C46.6552 92.0625 46.7138 92.0106 46.7611 91.9453C46.8084 91.8799 46.8456 91.7774 46.8727 91.6399C46.8997 91.5025 46.9132 91.2929 46.9132 91.0123V89.3932C46.9132 89.0428 46.9042 88.7532 46.885 88.5245C46.8659 88.2958 46.8377 88.1133 46.7983 87.978C46.7589 87.8417 46.7115 87.7347 46.6563 87.6569C46.6011 87.5792 46.538 87.5105 46.4682 87.453C46.3983 87.3955 46.316 87.3505 46.2214 87.3167C46.1268 87.284 46.0006 87.2671 45.8439 87.2671C45.6794 87.2671 45.5251 87.2998 45.3831 87.3662C45.2411 87.4327 45.0868 87.5431 44.92 87.6997C44.7533 87.8564 44.6327 88.0141 44.5583 88.173C44.484 88.3318 44.4468 88.5178 44.4468 88.7318V90.9876C44.4468 91.3008 44.4569 91.5171 44.4772 91.6366C44.4975 91.756 44.5279 91.8484 44.5674 91.9149C44.6068 91.9802 44.6654 92.0377 44.7431 92.085C44.8209 92.1323 44.9538 92.1808 45.1386 92.2303V92.5334H42.7094V92.2303C42.8705 92.1808 42.9854 92.138 43.0553 92.1008C43.1251 92.0636 43.1837 92.0118 43.231 91.9464C43.2784 91.8811 43.3156 91.7785 43.3426 91.6411C43.3696 91.5036 43.3832 91.294 43.3832 91.0135V89.3944C43.3832 89.0282 43.373 88.7285 43.3527 88.4986C43.3325 88.2676 43.2998 88.0828 43.257 87.942C43.2141 87.8023 43.1578 87.6885 43.0902 87.6017C43.0226 87.515 42.9527 87.4496 42.8829 87.4034C42.813 87.3583 42.7308 87.3245 42.6361 87.3009C42.5415 87.2783 42.4344 87.2671 42.315 87.2671C42.146 87.2671 41.9871 87.3054 41.8395 87.382C41.6908 87.4586 41.5398 87.569 41.3855 87.7121C41.2311 87.8564 41.1139 88.0073 41.0362 88.1628C40.9573 88.3195 40.919 88.4885 40.919 88.6699V90.9876C40.919 91.2219 40.9257 91.4022 40.937 91.525C40.9494 91.649 40.9686 91.7459 40.9956 91.8157C41.0226 91.8856 41.0564 91.9419 41.0981 91.9858C41.1387 92.0287 41.1984 92.0704 41.2739 92.1098C41.3505 92.1492 41.4643 92.1898 41.6164 92.2303V92.5334H39.194V92.2303C39.3506 92.1808 39.4632 92.138 39.5308 92.1008C39.5985 92.0636 39.657 92.0118 39.7066 91.9464C39.7562 91.8811 39.7934 91.7797 39.8182 91.6433C39.843 91.507 39.8553 91.2952 39.8553 91.0067V88.3116C39.8553 88.0479 39.8508 87.8361 39.843 87.675C39.8351 87.5138 39.8058 87.3854 39.7562 87.2885C39.7066 87.1916 39.6311 87.1195 39.5308 87.0722C39.4294 87.0248 39.2863 86.9843 39.1016 86.9516V86.6237L40.5483 86.5685H40.9257L40.8581 87.5758L40.8559 87.5735Z" fill="#3A3B3E"/>
<path d="M49.7184 92.2264C49.8796 92.1768 49.9934 92.134 50.061 92.0968C50.1286 92.0596 50.1872 92.0078 50.2345 91.9424C50.2818 91.8771 50.319 91.7757 50.346 91.6394C50.3731 91.503 50.3866 91.2912 50.3866 91.0027V88.3076C50.3866 88.0439 50.3821 87.8321 50.3742 87.671C50.3663 87.5099 50.337 87.3814 50.2874 87.2845C50.2379 87.1876 50.1624 87.1155 50.0621 87.0682C49.9607 87.0209 49.8176 86.9803 49.6328 86.9476V86.6197L51.0728 86.5645H51.4502V90.9836C51.4502 91.3385 51.4671 91.5841 51.4998 91.7227C51.5325 91.8613 51.5956 91.9661 51.688 92.0382C51.7804 92.1103 51.9325 92.1734 52.1421 92.2264V92.5295H49.7196V92.2264H49.7184ZM51.4863 84.1973V85.3961H50.3494V84.1973H51.4863Z" fill="#3A3B3E"/>
<path d="M52.8672 86.9303C53.0734 86.8977 53.2401 86.8402 53.3675 86.7568C53.4948 86.6746 53.5951 86.5686 53.6672 86.4379C53.7393 86.3084 53.7956 86.145 53.8373 85.9501C53.8779 85.754 53.9218 85.469 53.9669 85.0938H54.8446V86.6205H56.8412V87.2447H54.8446V89.995C54.8446 90.395 54.8615 90.7128 54.8942 90.9494C54.9269 91.186 54.9888 91.3719 55.0801 91.506C55.1702 91.6401 55.2739 91.7358 55.3888 91.7933C55.5037 91.8508 55.6525 91.8801 55.8339 91.8801C55.9984 91.8801 56.1527 91.8463 56.297 91.7775C56.4412 91.7099 56.5832 91.6119 56.724 91.4835L57.0023 91.817C56.7094 92.1009 56.4322 92.3071 56.1708 92.4356C55.9094 92.5629 55.6378 92.6271 55.3584 92.6271C54.8266 92.6271 54.4311 92.4694 54.1719 92.1539C53.9128 91.8384 53.7821 91.3449 53.7821 90.6733V87.2424H52.8672V86.9269V86.9303Z" fill="#3A3B3E"/>
<path d="M62.4582 91.4792C62.1945 91.7552 61.9523 91.9716 61.7314 92.1282C61.5106 92.2848 61.2683 92.4076 61.0047 92.4955C60.741 92.5845 60.4503 92.6285 60.1337 92.6285C59.2853 92.6285 58.6442 92.3738 58.2115 91.8645C57.7788 91.3553 57.5625 90.6048 57.5625 89.6111C57.5625 88.997 57.6729 88.455 57.8938 87.9852C58.1146 87.5153 58.429 87.1525 58.8368 86.8968C59.2447 86.641 59.7146 86.5137 60.2464 86.5137C60.6621 86.5137 61.0171 86.5802 61.31 86.712C61.603 86.8438 61.8362 87.0241 62.012 87.2528C62.1866 87.4815 62.323 87.77 62.4199 88.1181C62.5168 88.4663 62.5708 88.9204 62.5832 89.4815H58.6892V89.593C58.6892 90.0798 58.7433 90.4888 58.8526 90.8201C58.9619 91.1513 59.1411 91.4116 59.3901 91.5986C59.6391 91.7857 59.9636 91.8803 60.3636 91.8803C60.7016 91.8803 61.0058 91.8172 61.2751 91.6921C61.5444 91.566 61.8137 91.362 62.0818 91.0769L62.4593 91.4792H62.4582ZM61.4193 88.97C61.3945 88.5249 61.3393 88.161 61.2526 87.8793C61.1658 87.5976 61.0362 87.3813 60.8627 87.2303C60.6892 87.0793 60.4627 87.0049 60.1833 87.0049C59.7585 87.0049 59.4205 87.1751 59.167 87.5153C58.9135 87.8556 58.7636 88.3401 58.7185 88.9711H61.4193V88.97Z" fill="#3A3B3E"/>
<path d="M67.8649 85.8109C67.8649 85.4154 67.8615 85.1393 67.8559 84.9827C67.8503 84.8261 67.8334 84.6931 67.8063 84.5839C67.7793 84.4746 67.7421 84.3889 67.6948 84.327C67.6474 84.265 67.5832 84.2154 67.5032 84.1782C67.4232 84.141 67.2779 84.1039 67.0672 84.0667V83.7456L68.5635 83.6836H68.9285V90.8406C68.9285 91.1617 68.9342 91.3916 68.9466 91.5302C68.959 91.6688 68.986 91.7781 69.0266 91.8603C69.0683 91.9426 69.1325 92.0102 69.2215 92.0609C69.3105 92.1127 69.466 92.1612 69.688 92.2062V92.5273L68.2288 92.5893H67.8581L67.9325 91.5752L67.8401 91.5505C67.581 91.8265 67.3545 92.0338 67.163 92.1713C66.9714 92.3099 66.7675 92.4192 66.5511 92.5014C66.3348 92.5837 66.1027 92.6254 65.8559 92.6254C65.1799 92.6254 64.6594 92.3685 64.292 91.8558C63.9247 91.3431 63.7422 90.6017 63.7422 89.6339C63.7422 88.9578 63.8616 88.3843 64.1005 87.9122C64.3394 87.4401 64.6616 87.0897 65.0684 86.8587C65.474 86.6278 65.9303 86.5128 66.4373 86.5128C66.7089 86.5128 66.9568 86.5342 67.1787 86.5782C67.4018 86.621 67.6294 86.692 67.8649 86.7911V85.8086V85.8109ZM67.8649 88.8643C67.8649 88.5432 67.8503 88.2852 67.8221 88.0914C67.7928 87.8976 67.7443 87.7353 67.6767 87.6035C67.6091 87.4717 67.5167 87.3601 67.4018 87.27C67.2869 87.1799 67.1596 87.1134 67.0221 87.0717C66.8835 87.03 66.7179 87.0097 66.5241 87.0097C65.9968 87.0097 65.5945 87.2215 65.3185 87.6429C65.0424 88.0655 64.9039 88.6716 64.9039 89.4637C64.9039 90.2558 65.0176 90.8564 65.2441 91.2688C65.4706 91.6812 65.8143 91.8874 66.2762 91.8874C66.4576 91.8874 66.6075 91.8716 66.7269 91.8412C66.8463 91.8107 66.9635 91.7612 67.0796 91.6924C67.1956 91.6237 67.3128 91.5313 67.4322 91.4107C67.5517 91.2913 67.6396 91.182 67.6948 91.0829C67.75 90.9837 67.7928 90.871 67.821 90.7426C67.8491 90.6141 67.8638 90.4496 67.8638 90.248V88.8632L67.8649 88.8643Z" fill="#3A3B3E"/>
<path d="M77.8208 92.5303V92.2272C78.027 92.1866 78.1802 92.1404 78.2816 92.0909C78.383 92.0413 78.4574 91.9725 78.507 91.8835C78.5565 91.7945 78.5813 91.6762 78.5813 91.5286C78.5813 91.3889 78.5644 91.2368 78.5317 91.0745C78.4991 90.9123 78.4517 90.7298 78.3898 90.5281L78.161 89.7303H75.2811L75.0704 90.3365C74.9634 90.6419 74.8935 90.8717 74.8597 91.0283C74.8259 91.185 74.8101 91.3269 74.8101 91.4554C74.8101 91.7021 74.8732 91.8835 74.9983 91.9996C75.1245 92.1145 75.3172 92.1911 75.5763 92.2283V92.5314H72.9375V92.2283C73.1685 92.1911 73.369 92.0571 73.5403 91.8261C73.7116 91.5951 73.8772 91.2661 74.0383 90.8368L76.6163 83.9941H77.5932L79.6945 90.8864C79.7937 91.2075 79.8804 91.4531 79.9571 91.6221C80.0337 91.7912 80.1249 91.923 80.232 92.0176C80.339 92.1123 80.4855 92.1821 80.6703 92.2272V92.5303H77.8208ZM75.4479 89.1929H78.0315L76.8574 85.2065L75.4479 89.1929Z" fill="#3A3B3E"/>
<path d="M81.2389 86.6214H83V89.7672C83 90.2495 83.0191 90.6157 83.0552 90.8669C83.0924 91.1182 83.1476 91.3075 83.2219 91.4359C83.2963 91.5633 83.4011 91.6703 83.5374 91.7571C83.6738 91.8438 83.8608 91.8866 84.0997 91.8866C84.2563 91.8866 84.4061 91.8562 84.5504 91.7942C84.6946 91.7323 84.8557 91.6241 85.0326 91.4697C85.2095 91.3154 85.3368 91.1621 85.4123 91.0089C85.4889 90.8568 85.5272 90.6788 85.5272 90.4771V88.1594C85.5272 87.925 85.5216 87.747 85.5081 87.6276C85.4957 87.5081 85.4754 87.4124 85.4461 87.3403C85.4168 87.2681 85.383 87.2096 85.3447 87.1645C85.3053 87.1194 85.2501 87.0777 85.1779 87.0405C85.1058 87.0034 84.9898 86.9639 84.8287 86.9234V86.6203H86.5898V90.8421C86.5898 91.1599 86.5954 91.3886 86.6078 91.5283C86.6202 91.668 86.6472 91.7796 86.6878 91.8618C86.7295 91.9441 86.7926 92.0117 86.8793 92.0624C86.9661 92.1142 87.1204 92.1627 87.3424 92.2077V92.5289L85.9272 92.5908H85.5498L85.587 91.5768L85.4946 91.552C85.152 91.9227 84.8264 92.1954 84.5143 92.3677C84.2033 92.5413 83.8912 92.6269 83.578 92.6269C83.2028 92.6269 82.8941 92.5525 82.6507 92.4049C82.4073 92.2562 82.2259 92.0354 82.1065 91.7402C81.987 91.4461 81.9273 91.0303 81.9273 90.4951V88.1583C81.9273 87.8124 81.9138 87.5746 81.8868 87.4439C81.8597 87.3143 81.8079 87.2107 81.7324 87.1352C81.6558 87.0586 81.4901 86.9876 81.2344 86.9222V86.6191L81.2389 86.6214Z" fill="#3A3B3E"/>
<path d="M88.0078 86.9303C88.214 86.8977 88.3808 86.8402 88.5081 86.7568C88.6354 86.6746 88.7357 86.5686 88.8078 86.4379C88.8799 86.3084 88.9362 86.145 88.9779 85.9501C89.0196 85.754 89.0624 85.469 89.1075 85.0938H89.9852V86.6205H91.9818V87.2447H89.9852V89.995C89.9852 90.395 90.0021 90.7128 90.0348 90.9494C90.0675 91.186 90.1294 91.3719 90.2207 91.506C90.3109 91.6401 90.4145 91.7358 90.5294 91.7933C90.6444 91.8508 90.7931 91.8801 90.9745 91.8801C91.139 91.8801 91.2934 91.8463 91.4376 91.7775C91.5818 91.7088 91.7238 91.6119 91.8646 91.4835L92.1429 91.817C91.85 92.1009 91.5728 92.3071 91.3114 92.4356C91.05 92.5629 90.7785 92.6271 90.499 92.6271C89.9672 92.6271 89.5717 92.4694 89.3126 92.1539C89.0534 91.8384 88.9227 91.3449 88.9227 90.6733V87.2424H88.0078V86.9269V86.9303Z" fill="#3A3B3E"/>
<path d="M95.3509 92.6282C94.4934 92.6282 93.8399 92.3758 93.3881 91.871C92.9374 91.3662 92.7109 90.6192 92.7109 89.6299C92.7109 88.9505 92.8292 88.3747 93.0659 87.906C93.3025 87.4362 93.627 87.0869 94.0394 86.8582C94.4517 86.6294 94.9216 86.5156 95.4489 86.5156C96.3311 86.5156 96.9982 86.7725 97.4511 87.2852C97.9041 87.7978 98.1305 88.5347 98.1305 89.4947C98.1305 90.1786 98.0167 90.7555 97.7903 91.2254C97.5638 91.6952 97.2427 92.0468 96.8258 92.2789C96.41 92.5121 95.9176 92.6282 95.3486 92.6282H95.3509ZM93.8794 89.5003C93.8794 90.3488 94.0146 91.0012 94.2839 91.4564C94.5532 91.9116 94.9396 92.1392 95.4433 92.1392C95.7193 92.1392 95.9548 92.0727 96.1475 91.9386C96.3413 91.8045 96.499 91.6242 96.6207 91.3978C96.7424 91.1713 96.8303 90.9088 96.8832 90.6102C96.9362 90.3116 96.9632 89.9995 96.9632 89.6739C96.9632 89.0677 96.8968 88.5652 96.7627 88.1663C96.6286 87.7663 96.4461 87.4733 96.2151 87.2852C95.9841 87.0981 95.7204 87.0035 95.4241 87.0035C94.925 87.0035 94.543 87.2198 94.2771 87.6525C94.0112 88.0852 93.8782 88.7015 93.8782 89.5003H93.8794Z" fill="#3A3B3E"/>
<path d="M105.403 92.5292H102.968V92.2261C103.129 92.1766 103.244 92.1338 103.314 92.0966C103.384 92.0594 103.442 92.0076 103.489 91.9422C103.537 91.8769 103.574 91.7743 103.601 91.6369C103.628 91.4994 103.642 91.2898 103.642 91.0093V89.3901C103.642 89.1017 103.634 88.8403 103.617 88.6048C103.6 88.3705 103.573 88.1778 103.533 88.0268C103.494 87.8769 103.447 87.7586 103.391 87.6741C103.336 87.5896 103.27 87.5175 103.193 87.4578C103.117 87.3981 103.03 87.3508 102.931 87.3158C102.831 87.2809 102.702 87.2629 102.541 87.2629C102.38 87.2629 102.228 87.2944 102.083 87.3586C101.939 87.4229 101.78 87.5333 101.608 87.6899C101.435 87.8465 101.309 88.0009 101.23 88.153C101.151 88.3051 101.113 88.4809 101.113 88.6781V90.9834C101.113 91.3383 101.13 91.5839 101.163 91.7225C101.195 91.8611 101.259 91.9659 101.351 92.038C101.443 92.1101 101.595 92.1732 101.805 92.2261V92.5292H99.3825V92.2261C99.5436 92.1766 99.6574 92.1338 99.725 92.0966C99.7926 92.0594 99.8512 92.0076 99.8985 91.9422C99.9459 91.8769 99.9831 91.7754 100.01 91.6391C100.037 91.5028 100.051 91.2909 100.051 91.0025V88.3074C100.051 88.0437 100.046 87.8319 100.038 87.6708C100.03 87.5096 100.001 87.3812 99.9515 87.2843C99.9019 87.1874 99.8264 87.1153 99.7262 87.0679C99.6248 87.0206 99.4817 86.9801 99.2969 86.9474V86.6195L100.744 86.5643H101.121L101.053 87.5716L101.14 87.5964C101.446 87.2877 101.691 87.0668 101.879 86.935C102.066 86.8032 102.257 86.7006 102.448 86.6296C102.64 86.5575 102.843 86.5215 103.057 86.5215C103.271 86.5215 103.478 86.5474 103.653 86.5992C103.827 86.6511 103.983 86.7299 104.116 86.837C104.25 86.944 104.36 87.077 104.447 87.2358C104.534 87.3947 104.598 87.5851 104.642 87.8071C104.686 88.0291 104.707 88.3119 104.707 88.6544V90.9845C104.707 91.2684 104.715 91.4746 104.732 91.6031C104.749 91.7304 104.777 91.8295 104.819 91.8994C104.861 91.9692 104.92 92.0278 104.998 92.0752C105.076 92.1225 105.212 92.1732 105.406 92.2261V92.5292H105.403Z" fill="#3A3B3E"/>
<path d="M109.14 92.6282C108.282 92.6282 107.629 92.3758 107.177 91.871C106.726 91.3662 106.5 90.6192 106.5 89.6299C106.5 88.9505 106.618 88.3747 106.855 87.906C107.092 87.4362 107.416 87.0869 107.828 86.8582C108.241 86.6294 108.711 86.5156 109.238 86.5156C110.12 86.5156 110.787 86.7725 111.24 87.2852C111.693 87.7978 111.92 88.5347 111.92 89.4947C111.92 90.1786 111.806 90.7555 111.579 91.2254C111.353 91.6952 111.032 92.0468 110.615 92.2789C110.199 92.5121 109.707 92.6282 109.138 92.6282H109.14ZM107.668 89.5003C107.668 90.3488 107.804 91.0012 108.073 91.4564C108.342 91.9116 108.729 92.1392 109.232 92.1392C109.508 92.1392 109.744 92.0727 109.937 91.9386C110.13 91.8045 110.288 91.6242 110.41 91.3978C110.531 91.1713 110.619 90.9088 110.672 90.6102C110.725 90.3116 110.752 89.9995 110.752 89.6739C110.752 89.0677 110.686 88.5652 110.552 88.1663C110.418 87.7663 110.235 87.4733 110.004 87.2852C109.773 87.0981 109.51 87.0035 109.213 87.0035C108.714 87.0035 108.332 87.2198 108.066 87.6525C107.8 88.0852 107.667 88.7015 107.667 89.5003H107.668Z" fill="#3A3B3E"/>
<path d="M114.834 87.5735L114.92 87.5983C115.167 87.3516 115.371 87.1645 115.529 87.0395C115.688 86.9133 115.841 86.813 115.99 86.7364C116.138 86.6598 116.277 86.6057 116.406 86.573C116.536 86.5403 116.669 86.5234 116.805 86.5234C117.218 86.5234 117.554 86.6181 117.813 86.8074C118.072 86.9967 118.251 87.2874 118.35 87.6783C118.659 87.3651 118.909 87.1341 119.102 86.9865C119.293 86.8378 119.489 86.724 119.689 86.644C119.888 86.564 120.103 86.5234 120.334 86.5234C120.61 86.5234 120.848 86.564 121.049 86.644C121.248 86.724 121.417 86.8479 121.556 87.0147C121.693 87.1814 121.795 87.391 121.859 87.6423C121.923 87.8935 121.955 88.2316 121.955 88.6563V90.9864C121.955 91.2997 121.965 91.516 121.985 91.6354C122.005 91.7549 122.036 91.8473 122.074 91.9137C122.112 91.9802 122.172 92.0366 122.25 92.0839C122.327 92.1312 122.46 92.1796 122.645 92.2292V92.5323H120.216V92.2292C120.377 92.1796 120.492 92.1368 120.562 92.0996C120.632 92.0625 120.69 92.0106 120.738 91.9453C120.785 91.8799 120.822 91.7774 120.849 91.6399C120.876 91.5025 120.89 91.2929 120.89 91.0123V89.3932C120.89 89.0428 120.881 88.7532 120.862 88.5245C120.844 88.2958 120.814 88.1133 120.775 87.978C120.735 87.8417 120.688 87.7347 120.633 87.6569C120.578 87.5792 120.515 87.5105 120.445 87.453C120.375 87.3955 120.293 87.3505 120.198 87.3167C120.103 87.284 119.977 87.2671 119.821 87.2671C119.656 87.2671 119.502 87.2998 119.36 87.3662C119.218 87.4327 119.063 87.5431 118.897 87.6997C118.73 87.8564 118.609 88.0141 118.535 88.173C118.461 88.3318 118.423 88.5178 118.423 88.7318V90.9876C118.423 91.3008 118.434 91.5171 118.454 91.6366C118.474 91.756 118.504 91.8484 118.544 91.9149C118.583 91.9802 118.642 92.0377 118.72 92.085C118.797 92.1323 118.93 92.1808 119.115 92.2303V92.5334H116.686V92.2303C116.847 92.1808 116.962 92.138 117.032 92.1008C117.102 92.0636 117.16 92.0118 117.208 91.9464C117.255 91.8811 117.292 91.7785 117.319 91.6411C117.346 91.5036 117.36 91.294 117.36 91.0135V89.3944C117.36 89.0282 117.35 88.7285 117.329 88.4986C117.309 88.2676 117.276 88.0828 117.234 87.942C117.191 87.8023 117.134 87.6885 117.067 87.6017C116.999 87.515 116.929 87.4496 116.859 87.4034C116.79 87.3583 116.707 87.3245 116.613 87.3009C116.518 87.2783 116.411 87.2671 116.292 87.2671C116.123 87.2671 115.964 87.3054 115.816 87.382C115.668 87.4586 115.516 87.569 115.362 87.7121C115.208 87.8564 115.09 88.0073 115.013 88.1628C114.934 88.3195 114.896 88.4885 114.896 88.6699V90.9876C114.896 91.2219 114.901 91.4022 114.914 91.525C114.926 91.649 114.945 91.7459 114.972 91.8157C114.999 91.8856 115.033 91.9419 115.075 91.9858C115.116 92.0287 115.175 92.0704 115.25 92.1098C115.327 92.1492 115.441 92.1898 115.593 92.2303V92.5334H113.171V92.2303C113.327 92.1808 113.44 92.138 113.507 92.1008C113.575 92.0636 113.634 92.0118 113.683 91.9464C113.733 91.8811 113.77 91.7797 113.795 91.6433C113.82 91.507 113.832 91.2952 113.832 91.0067V88.3116C113.832 88.0479 113.827 87.8361 113.82 87.675C113.812 87.5138 113.782 87.3854 113.733 87.2885C113.683 87.1916 113.608 87.1195 113.507 87.0722C113.406 87.0248 113.263 86.9843 113.078 86.9516V86.6237L114.525 86.5685H114.902L114.835 87.5758L114.834 87.5735Z" fill="#3A3B3E"/>
<path d="M126.317 93.0359C126.091 93.5463 125.87 93.9609 125.656 94.2787C125.442 94.5964 125.205 94.8353 124.948 94.9953C124.69 95.1564 124.385 95.2364 124.03 95.2364C123.803 95.2364 123.548 95.2094 123.264 95.1564V93.9328H123.814C123.863 94.1018 123.925 94.219 124 94.2854C124.074 94.3508 124.181 94.3846 124.321 94.3846C124.445 94.3846 124.555 94.3609 124.652 94.3136C124.749 94.2663 124.849 94.1852 124.955 94.0691C125.061 93.9531 125.184 93.7762 125.326 93.5373C125.468 93.2984 125.628 92.9953 125.805 92.6291L124.074 87.9746C123.962 87.6738 123.873 87.4631 123.805 87.3436C123.736 87.2242 123.664 87.1329 123.585 87.0721C123.506 87.0101 123.387 86.9605 123.227 86.9234V86.6203H125.743V86.9234C125.549 86.9684 125.412 87.0124 125.335 87.0563C125.256 87.0991 125.198 87.1555 125.161 87.2231C125.124 87.2907 125.106 87.3786 125.106 87.4856C125.106 87.5926 125.119 87.7121 125.147 87.8315C125.174 87.9509 125.215 88.0907 125.273 88.2518L126.372 91.348L127.608 88.3814C127.678 88.2169 127.734 88.0647 127.772 87.9273C127.811 87.7898 127.83 87.6602 127.83 87.5408C127.83 87.3639 127.782 87.2298 127.685 87.1386C127.588 87.0484 127.42 86.9763 127.181 86.9222V86.6191H129.493V86.9222C129.332 86.9549 129.21 87.0056 129.123 87.0732C129.036 87.1408 128.949 87.2479 128.864 87.3943C128.777 87.5408 128.674 87.7459 128.555 88.0095L126.317 93.0348V93.0359Z" fill="#3A3B3E"/>
</svg>
