<svg width="106" height="118" viewBox="0 0 106 118" fill="none" xmlns="http://www.w3.org/2000/svg">
<path d="M65.3781 60.0582L92.2478 80.2301C93.4982 81.1692 92.372 83.1173 90.9345 82.5035L60.0304 69.3196C59.2207 68.9734 58.3044 69.5032 58.1995 70.3776L54.1651 103.733C53.978 105.285 51.7273 105.285 51.5402 103.733L47.5058 70.3776C47.3991 69.5032 46.4845 68.9751 45.6748 69.3196L14.7708 82.5035C13.3333 83.1173 12.2088 81.1675 13.4574 80.2301L40.3271 60.0582C41.0319 59.53 41.0319 58.472 40.3271 57.9422L13.4574 37.7702C12.2071 36.8311 13.3333 34.883 14.7708 35.4968L45.6748 48.6807C46.4845 49.027 47.4009 48.4971 47.5058 47.6227L51.5402 14.2669C51.7273 12.7157 53.978 12.7157 54.1651 14.2669L58.1995 47.6227C58.3044 48.4971 59.2207 49.0252 60.0304 48.6807L90.9345 35.4968C92.372 34.883 93.4965 36.8329 92.2478 37.7702L65.3781 57.9422C64.6734 58.4703 64.6734 59.5283 65.3781 60.0582Z" fill="#CCE9E1"/>
<path d="M51.7662 1.04923C58.4097 0.451153 64.3066 5.37216 64.9046 12.0192C65.1949 15.2387 64.2121 18.3794 62.1416 20.8609C60.0693 23.3424 57.1559 24.8691 53.9347 25.1594C53.5709 25.1926 53.2072 25.2084 52.8452 25.2084C50.243 25.2084 47.7073 24.3707 45.6071 22.8021L47.5971 20.1404C49.3319 21.438 51.4794 22.0448 53.6374 21.8507C55.9737 21.6409 58.088 20.5339 59.5901 18.7327C61.0923 16.9315 61.8058 14.6546 61.5942 12.3182C61.1605 7.49691 56.8848 3.92594 52.0617 4.35963C47.5902 4.76185 44.1958 8.46922 44.0734 12.8516L46.9606 12.4057L43.3721 19.1419L37.916 13.8047L40.7507 13.3657C40.6108 7.06147 45.392 1.62282 51.7627 1.04923H51.7662Z" fill="#29A8DF" stroke="#001D15" stroke-linecap="round" stroke-linejoin="round"/>
<path d="M1.04923 82.8661C0.451153 76.2208 5.37217 70.3257 12.0192 69.7277C15.2387 69.4374 18.3794 70.4202 20.8609 72.4907C23.3424 74.563 24.8691 77.4764 25.1594 80.6976C25.1926 81.0614 25.2083 81.4251 25.2083 81.7871C25.2083 84.3893 24.3707 86.925 22.8021 89.0252L20.1404 87.0351C21.438 85.3004 22.0448 83.1529 21.8507 80.9949C21.6409 78.6586 20.5339 76.5443 18.7327 75.0421C16.9315 73.54 14.6546 72.8265 12.3182 73.0381C7.49691 73.4718 3.92594 77.7475 4.35963 82.5706C4.76185 87.0421 8.46923 90.4365 12.8516 90.5589L12.4057 87.6717L19.1419 91.2601L13.8064 96.7163L13.3675 93.8815C7.06322 94.0214 1.62457 89.2403 1.05098 82.8696L1.04923 82.8661Z" fill="#29A8DF" stroke="#001D15" stroke-linecap="round" stroke-linejoin="round"/>
<path d="M104.651 80.6978C105.249 87.3431 100.328 93.2382 93.6813 93.8363C90.4619 94.1266 87.3211 93.1438 84.8396 91.0732C82.3581 89.001 80.8315 86.0875 80.5412 82.8663C80.5079 82.5026 80.4922 82.1388 80.4922 81.7768C80.4922 79.1747 81.3298 76.639 82.8985 74.5387L85.5601 76.5288C84.2625 78.2636 83.6557 80.411 83.8498 82.569C84.0597 84.9054 85.1666 87.0196 86.9679 88.5218C88.7691 90.024 91.046 90.7375 93.3823 90.5259C98.2036 90.0922 101.775 85.8165 101.341 80.9934C100.939 76.5218 97.2313 73.1275 92.8489 73.005L93.2949 75.8922L86.5586 72.3038L91.8941 66.8477L92.3331 69.6824C98.6373 69.5425 104.076 74.3236 104.65 80.6943L104.651 80.6978Z" fill="#29A8DF" stroke="#001D15" stroke-linecap="round" stroke-linejoin="round"/>
<path d="M80.5414 35.1334C79.9433 41.7787 84.8643 47.6737 91.5114 48.2718C94.7309 48.5621 97.8716 47.5793 100.353 45.5088C102.835 43.4365 104.361 40.5231 104.652 37.3018C104.685 36.9381 104.701 36.5744 104.701 36.2124C104.701 33.6102 103.863 31.0745 102.294 28.9743L99.6326 30.9643C100.93 32.6991 101.537 34.8466 101.343 37.0046C101.133 39.3409 100.026 41.4552 98.2249 42.9573C96.4237 44.4595 94.1468 45.173 91.8104 44.9614C86.9891 44.5277 83.4181 40.252 83.8518 35.4289C84.254 30.9573 87.9614 27.563 92.3438 27.4406L91.8979 30.3278L98.6341 26.7393L93.2986 21.2832L92.8597 24.1179C86.5554 23.978 81.1168 28.7592 80.5432 35.1299L80.5414 35.1334Z" fill="#DD6868" stroke="#001D15" stroke-linecap="round" stroke-linejoin="round"/>
<path d="M5.34223 26.9248C0.221855 31.2005 -0.468909 38.8496 3.80856 43.9717C5.88084 46.4532 8.79428 47.9799 12.0138 48.2702C15.2332 48.5605 18.374 47.5777 20.8555 45.5072C21.1353 45.2728 21.4046 45.028 21.6599 44.7709C23.4996 42.9312 24.701 40.5459 25.0752 37.9508L21.7876 37.4751C21.478 39.6191 20.3886 41.5672 18.7255 42.9557C16.9243 44.4596 14.6474 45.1714 12.311 44.9615C9.97469 44.7517 7.86044 43.6447 6.35825 41.8435C3.25595 38.1274 3.75435 32.5786 7.47046 29.4763C10.9173 26.5978 15.938 26.8217 19.1242 29.833L16.7669 31.559L24.0662 33.7852L24.1502 26.1536L21.8365 27.8482C17.4786 23.2927 10.251 22.8275 5.34048 26.9266L5.34223 26.9248Z" fill="#DD6868" stroke="#001D15" stroke-linecap="round" stroke-linejoin="round"/>
<path d="M45.0942 95.6045C39.9738 99.8802 39.283 107.529 43.5605 112.651C45.6328 115.133 48.5462 116.66 51.7657 116.95C54.9852 117.24 58.1259 116.257 60.6074 114.187C60.8872 113.953 61.1565 113.708 61.4119 113.451C63.2515 111.611 64.453 109.226 64.8272 106.63L61.5395 106.155C61.23 108.299 60.1405 110.247 58.4774 111.635C56.6762 113.139 54.3993 113.851 52.063 113.641C49.7266 113.431 47.6124 112.324 46.1102 110.523C43.0079 106.807 43.5063 101.258 47.2224 98.156C50.6692 95.2775 55.6899 95.5013 58.8762 98.5127L56.5188 100.239L63.8181 102.465L63.9021 94.8333L61.5885 96.5279C57.2306 91.9723 50.0029 91.5072 45.0924 95.6063L45.0942 95.6045Z" fill="#DD6868" stroke="#001D15" stroke-linecap="round" stroke-linejoin="round"/>
<path d="M48.3373 56.9469L46.5693 75.7303H59.1324L57.3627 56.9469L64.4889 58.136L52.8509 42.2695L41.2129 58.136L48.3373 56.9469Z" fill="#009169" stroke="#001D15" stroke-linecap="round" stroke-linejoin="round"/>
</svg>
