<svg width="17" height="16" viewBox="0 0 17 16" fill="none" xmlns="http://www.w3.org/2000/svg">
<path d="M13.7521 4.54581L9.91208 1.85914C8.86542 1.12581 7.25875 1.16581 6.25208 1.94581L2.91208 4.55248C2.24542 5.07248 1.71875 6.13914 1.71875 6.97914V11.5791C1.71875 13.2791 3.09875 14.6658 4.79875 14.6658H11.9854C13.6854 14.6658 15.0654 13.2858 15.0654 11.5858V7.06581C15.0654 6.16581 14.4854 5.05914 13.7521 4.54581ZM8.89208 11.9991C8.89208 12.2725 8.66542 12.4991 8.39208 12.4991C8.11875 12.4991 7.89208 12.2725 7.89208 11.9991V9.99914C7.89208 9.72581 8.11875 9.49914 8.39208 9.49914C8.66542 9.49914 8.89208 9.72581 8.89208 9.99914V11.9991Z" fill="white"/>
</svg>
