<svg width="48" height="47" viewBox="0 0 48 47" fill="none" xmlns="http://www.w3.org/2000/svg">
<path d="M0.609375 7C0.609375 3.13401 3.74338 0 7.60938 0H40.6094C44.4754 0 47.6094 3.13401 47.6094 7V40C47.6094 43.866 44.4754 47 40.6094 47H7.60937C3.74338 47 0.609375 43.866 0.609375 40V7Z" fill="#E5F4F0"/>
<rect width="27" height="27" transform="translate(10.6094 10)" fill="#E5F4F0"/>
<path d="M27.4844 17.9541C27.4844 17.2003 27.1131 16.5028 26.4831 16.0866L21.9831 13.0828C21.2294 12.5766 20.2394 12.5766 19.4856 13.0828L14.9856 16.0866C14.3669 16.5028 13.9844 17.2003 13.9844 17.9541V24.3441C13.9844 24.6591 14.2319 24.9066 14.5469 24.9066H26.9219C27.2369 24.9066 27.4844 24.6591 27.4844 24.3441V17.9541ZM20.7344 22.0941C19.6544 22.0941 18.7656 21.2053 18.7656 20.1253C18.7656 19.0453 19.6544 18.1566 20.7344 18.1566C21.8144 18.1566 22.7031 19.0453 22.7031 20.1253C22.7031 21.2053 21.8144 22.0941 20.7344 22.0941Z" fill="#009169"/>
<path d="M35.3594 33.906H33.9306V30.531C34.9994 30.1823 35.7756 29.181 35.7756 27.9998V25.7498C35.7756 24.276 34.5719 23.0723 33.0981 23.0723C31.6244 23.0723 30.4206 24.276 30.4206 25.7498V27.9998C30.4206 29.1698 31.1856 30.1598 32.2319 30.5198V33.906H27.4844V27.156C27.4844 26.841 27.2369 26.5935 26.9219 26.5935H14.5469C14.2319 26.5935 13.9844 26.841 13.9844 27.156V33.906H12.8594C12.3981 33.906 12.0156 34.2885 12.0156 34.7498C12.0156 35.211 12.3981 35.5935 12.8594 35.5935H33.0306C33.0531 35.5935 33.0644 35.6048 33.0869 35.6048C33.1094 35.6048 33.1206 35.5935 33.1431 35.5935H35.3594C35.8206 35.5935 36.2031 35.211 36.2031 34.7498C36.2031 34.2885 35.8206 33.906 35.3594 33.906ZM19.8906 30.531C19.8906 30.0698 20.2731 29.6873 20.7344 29.6873C21.1956 29.6873 21.5781 30.0698 21.5781 30.531V33.906H19.8906V30.531Z" fill="#009169"/>
</svg>
