<svg width="16" height="16" viewBox="0 0 16 16" fill="none" xmlns="http://www.w3.org/2000/svg">
<path d="M15.9992 7.89176C15.9413 3.47366 12.3098 -0.0602038 7.89477 0.000777506C3.47665 0.0587097 -0.0572303 3.69015 0.000702223 8.10824C0.0586347 12.5233 3.69009 16.0602 8.1082 15.9992C12.5263 15.9413 16.0602 12.3099 15.9992 7.89176ZM7.57766 3.01325C7.83379 2.77543 8.14175 2.65651 8.50154 2.65651C8.86133 2.65651 9.16624 2.77543 9.41931 3.01325C9.67543 3.25108 9.80044 3.54074 9.80044 3.87614C9.80044 4.21154 9.67543 4.5012 9.41931 4.73598C9.16624 4.9738 8.85828 5.09272 8.50154 5.09272C8.14479 5.09272 7.83379 4.9738 7.57766 4.73598C7.32154 4.5012 7.19348 4.21154 7.19348 3.87614C7.19348 3.54074 7.32154 3.25413 7.57766 3.01325ZM9.86143 12.4562C9.42236 12.63 9.07476 12.7611 8.81254 12.8526C8.55337 12.9441 8.24846 12.9898 7.90392 12.9898C7.37338 12.9898 6.96175 12.8587 6.66599 12.6026C6.37328 12.3434 6.22387 12.0141 6.22387 11.6177C6.22387 11.4622 6.23607 11.3067 6.25741 11.1421C6.27876 10.9805 6.31535 10.7975 6.36413 10.5932L6.90992 8.65707C6.9587 8.47108 7.00139 8.29728 7.03188 8.12959C7.06542 7.96494 7.08067 7.81248 7.08067 7.67527C7.08067 7.4283 7.02883 7.2545 6.92821 7.15693C6.82759 7.05936 6.63245 7.01058 6.34279 7.01058C6.20253 7.01058 6.05617 7.03192 5.90677 7.07766C5.75736 7.12035 5.6293 7.16303 5.52259 7.20267L5.66894 6.60505C6.02873 6.4587 6.37023 6.33369 6.69953 6.23002C7.02883 6.12635 7.33679 6.07452 7.6295 6.07452C8.15699 6.07452 8.56252 6.20258 8.84913 6.45565C9.13575 6.71177 9.276 7.04107 9.276 7.44659C9.276 7.53197 9.26686 7.67832 9.24551 7.89176C9.22722 8.10519 9.19063 8.29728 9.13575 8.47718L8.58996 10.4072C8.54422 10.5627 8.50459 10.7396 8.47105 10.9378C8.43446 11.136 8.41921 11.2884 8.41921 11.389C8.41921 11.6452 8.47714 11.819 8.58996 11.9135C8.70582 12.0049 8.90401 12.0537 9.18453 12.0537C9.31869 12.0537 9.46809 12.0293 9.63579 11.9836C9.80349 11.9379 9.92546 11.8982 10.0017 11.8616L9.85533 12.4593L9.86143 12.4562Z" fill="#009169"/>
</svg>
