<svg width="112" height="118" viewBox="0 0 112 118" fill="none" xmlns="http://www.w3.org/2000/svg">
<path d="M44.0546 52.7344L25.5235 30.3626C24.4944 29.121 26.1522 27.4649 27.3938 28.4923L49.7657 47.0233C50.5875 47.7047 51.8362 47.1867 51.9345 46.1242L54.6495 17.2019C54.8006 15.5968 57.1433 15.5968 57.2943 17.2019L60.0094 46.1242C60.1095 47.1867 61.3563 47.703 62.1782 47.0233L84.55 28.4923C85.7916 27.4632 87.4477 29.121 86.4204 30.3626L67.8893 52.7344C67.2079 53.5563 67.7259 54.8049 68.7884 54.9033L97.7107 57.6183C99.3159 57.7693 99.3159 60.112 97.7107 60.2631L68.7884 62.9781C67.7259 63.0782 67.2097 64.3251 67.8893 65.147L86.4204 87.5188C87.4495 88.7604 85.7916 90.4164 84.55 89.3891L62.1782 70.858C61.3563 70.1766 60.1077 70.6947 60.0094 71.7572L57.2943 100.679C57.1433 102.285 54.8006 102.285 54.6495 100.679L51.9345 71.7572C51.8344 70.6947 50.5875 70.1784 49.7657 70.858L27.3938 89.3891C26.1522 90.4182 24.4962 88.7604 25.5235 87.5188L44.0546 65.147C44.736 64.3251 44.2179 63.0765 43.1554 62.9781L14.2331 60.2631C12.628 60.112 12.628 57.7693 14.2331 57.6183L43.1554 54.9033C44.2179 54.8032 44.7342 53.5563 44.0546 52.7344Z" fill="#CCE9E1"/>
<path d="M16.191 36.3068C20.4848 41.4489 28.1663 42.1425 33.3101 37.847C35.8021 35.7659 37.3352 32.8401 37.6268 29.607C37.9183 26.3739 36.9313 23.2199 34.8503 20.7279C34.6149 20.4469 34.3691 20.1764 34.1109 19.92C32.2634 18.0725 29.868 16.8661 27.2619 16.4902L26.7842 19.7918C28.9373 20.1027 30.8936 21.1968 32.288 22.8669C33.7983 24.6757 34.5131 26.9622 34.3023 29.3085C34.0916 31.6547 32.9799 33.7779 31.1711 35.2865C27.4392 38.4019 21.8669 37.9014 18.7515 34.1696C15.8608 30.7081 16.0856 25.6662 19.1098 22.4665L20.8431 24.8338L23.0787 17.5035L15.4148 17.4192L17.1165 19.7427C12.5399 24.119 12.0746 31.3772 16.191 36.3086V36.3068Z" fill="#DD6868" stroke="#001D15" stroke-linecap="round" stroke-linejoin="round"/>
<path d="M95.73 20.6419C91.4362 15.4998 83.7547 14.8061 78.6109 19.1017C76.1189 21.1828 74.5858 24.1085 74.2943 27.3416C74.0027 30.5747 74.9897 33.7288 77.0708 36.2208C77.3061 36.5018 77.552 36.7722 77.8101 37.0286C79.6576 38.8761 82.053 40.0826 84.6592 40.4584L85.1368 37.1568C82.9838 36.846 81.0274 35.7519 79.633 34.0818C78.1227 32.2729 77.4079 29.9864 77.6187 27.6402C77.8294 25.2939 78.9411 23.1707 80.7499 21.6622C84.4818 18.5467 90.0541 19.0473 93.1695 22.7791C96.0602 26.2405 95.8354 31.2825 92.8113 34.4822L91.078 32.1149L88.8424 39.4451L96.5063 39.5294L94.8045 37.206C99.3811 32.8296 99.8465 25.5714 95.73 20.6401V20.6419Z" fill="#DD6868" stroke="#001D15" stroke-linecap="round" stroke-linejoin="round"/>
<path d="M95.7007 81.5872C91.4069 76.4451 83.7254 75.7514 78.5816 80.047C76.0896 82.1281 74.5565 85.0538 74.265 88.2869C73.9735 91.52 74.9604 94.6741 77.0397 97.1661C77.275 97.4471 77.5209 97.7175 77.7791 97.9739C79.6266 99.8214 82.022 101.028 84.6281 101.404L85.1058 98.1021C82.9527 97.7913 80.9963 96.6972 79.6019 95.0271C78.0916 93.2183 77.3769 90.9317 77.5876 88.5855C77.7984 86.2392 78.91 84.116 80.7189 82.6075C84.4507 79.4921 90.0231 79.9926 93.1385 83.7244C96.0291 87.1858 95.8043 92.2278 92.7802 95.4275L91.0469 93.0602L88.8113 100.39L96.4752 100.475L94.7734 98.1513C99.35 93.775 99.8154 86.5167 95.6989 81.5854L95.7007 81.5872Z" fill="#DD6868" stroke="#001D15" stroke-linecap="round" stroke-linejoin="round"/>
<path d="M33.3107 98.6461C38.4528 94.3522 39.1465 86.6708 34.8509 81.5269C32.7698 79.0349 29.844 77.5018 26.6109 77.2103C23.3778 76.9188 20.2237 77.9057 17.7317 79.985C17.4508 80.2204 17.1803 80.4662 16.9239 80.7244C15.0764 82.5719 13.87 84.9673 13.4941 87.5734L16.7957 88.0511C17.1066 85.898 18.2007 83.9417 19.8708 82.5473C21.6796 81.037 23.9662 80.3222 26.3124 80.533C28.6586 80.7437 30.7818 81.8553 32.2904 83.6642C35.4058 87.3961 34.9053 92.9684 31.1734 96.0838C27.712 98.9744 22.6701 98.7497 19.4704 95.7255L21.8377 93.9922L14.5074 91.7566L14.4231 99.4205L16.7465 97.7188C21.1229 102.294 28.3812 102.761 33.3125 98.6443L33.3107 98.6461Z" fill="#DD6868" stroke="#001D15" stroke-linecap="round" stroke-linejoin="round"/>
<path d="M68.074 14.9106C68.6746 21.5823 63.7327 27.5041 57.0575 28.1047C53.8244 28.3962 50.6703 27.4092 48.1783 25.3299C45.6863 23.2489 44.1532 20.3231 43.8617 17.0882C43.8283 16.723 43.8125 16.3577 43.8125 15.9941C43.8125 13.381 44.6537 10.8345 46.229 8.72537L48.9019 10.7221C47.5988 12.4642 46.9894 14.6208 47.1844 16.7879C47.3951 19.1342 48.5067 21.2574 50.3156 22.7659C52.1244 24.2745 54.411 24.991 56.7572 24.7785C61.5989 24.343 65.185 20.0491 64.7495 15.2056C64.3456 10.7151 60.6225 7.30639 56.2216 7.18346L56.6694 10.0829L49.9046 6.47924L55.2627 1L55.7035 3.84674C62.0345 3.70625 67.4962 8.50761 68.0722 14.9053L68.074 14.9106Z" fill="#29A8DF" stroke="#001D15" stroke-linecap="round" stroke-linejoin="round"/>
<path d="M43.8639 103.092C43.2633 96.4184 48.2051 90.4984 54.8803 89.8978C58.1134 89.6063 61.2675 90.5932 63.7595 92.6725C66.2515 94.7536 67.7846 97.6794 68.0762 100.914C68.1095 101.279 68.1253 101.645 68.1253 102.008C68.1253 104.621 67.2841 107.168 65.7088 109.277L63.0359 107.279C64.339 105.536 64.9484 103.38 64.7535 101.213C64.5427 98.8665 63.4311 96.7433 61.6223 95.2348C59.8134 93.7262 57.5268 93.0097 55.1806 93.2222C50.3389 93.6577 46.7528 97.9516 47.1883 102.795C47.5922 107.286 51.3153 110.694 55.7162 110.817L55.2684 107.918L62.0332 111.521L56.6751 117.001L56.2343 114.154C49.9033 114.294 44.4417 109.493 43.8656 103.095L43.8639 103.092Z" fill="#29A8DF" stroke="#001D15" stroke-linecap="round" stroke-linejoin="round"/>
<path d="M87.1178 60.0294C86.5172 53.3577 91.459 47.4359 98.1342 46.8353C101.367 46.5438 104.521 47.5307 107.013 49.61C109.505 51.6911 111.039 54.6169 111.33 57.8517C111.363 58.217 111.379 58.5823 111.379 58.9458C111.379 61.559 110.538 64.1054 108.963 66.2146L106.29 64.2161C107.593 62.4739 108.202 60.3174 108.007 58.1503C107.797 55.804 106.685 53.6808 104.876 52.1723C103.067 50.6637 100.781 49.9472 98.4345 50.1597C93.5928 50.5952 90.0067 54.8891 90.4422 59.7326C90.8461 64.2231 94.5692 67.6318 98.9702 67.7547L98.5223 64.8553L105.287 68.459L99.929 73.9382L99.4882 71.0914C93.1572 71.2319 87.6956 66.4306 87.1196 60.0329L87.1178 60.0294Z" fill="#29A8DF" stroke="#001D15" stroke-linecap="round" stroke-linejoin="round"/>
<path d="M20.8185 49.6105C25.9606 53.9044 26.6543 61.5858 22.3587 66.7296C20.2776 69.2216 17.3518 70.7548 14.1187 71.0463C10.8856 71.3378 7.73158 70.3508 5.23958 68.2715C4.9586 68.0362 4.68813 67.7904 4.43173 67.5322C2.58424 65.6847 1.37777 63.2893 1.00195 60.6832L4.30353 60.2055C4.61437 62.3585 5.70847 64.3149 7.37858 65.7093C9.18743 67.2196 11.474 67.9344 13.8202 67.7236C16.1664 67.5129 18.2896 66.4012 19.7982 64.5924C22.9136 60.8605 22.4131 55.2882 18.6813 52.1728C15.2199 49.2821 10.1779 49.5069 6.97817 52.531L9.3455 54.2644L2.01526 56.5L1.93095 48.8361L4.25438 50.5378C8.63074 45.963 15.889 45.4958 20.8203 49.6123L20.8185 49.6105Z" fill="#29A8DF" stroke="#001D15" stroke-linecap="round" stroke-linejoin="round"/>
<path d="M51.4376 56.8803L49.6604 75.7433H62.2767L60.5012 56.8803L67.6558 58.0763L55.9685 42.1426L44.2812 58.0763L51.4376 56.8803Z" fill="#009169" stroke="#001D15" stroke-linecap="round" stroke-linejoin="round"/>
</svg>
