<svg width="117" height="118" viewBox="0 0 117 118" fill="none" xmlns="http://www.w3.org/2000/svg">
<path d="M73.0402 58.0027L100.549 43.4602C102.076 42.6532 101.115 40.3338 99.4655 40.8436L69.7295 50.0119C68.6366 50.3486 67.6152 49.3253 67.9519 48.2343L77.1202 18.4984C77.63 16.8487 75.3106 15.8874 74.5036 17.4149L59.9611 44.9236C59.4269 45.9338 57.9803 45.9338 57.4461 44.9236L42.9035 17.4149C42.0965 15.8874 39.7772 16.8487 40.287 18.4984L49.4553 48.2343C49.792 49.3253 48.7687 50.3486 47.6777 50.0119L17.9417 40.8436C16.292 40.3338 15.3308 42.6532 16.8582 43.4602L44.367 58.0027C45.3771 58.537 45.3771 59.9835 44.367 60.5177L16.8582 75.0603C15.3308 75.8673 16.292 78.1866 17.9417 77.6768L47.6777 68.5085C48.7687 68.1718 49.792 69.1951 49.4553 70.2861L40.287 100.022C39.7772 101.672 42.0965 102.633 42.9035 101.106L57.4461 73.5968C57.9803 72.5867 59.4269 72.5867 59.9611 73.5968L74.5036 101.106C75.3106 102.633 77.63 101.672 77.1202 100.022L67.9519 70.2861C67.6152 69.1951 68.6385 68.1718 69.7295 68.5085L99.4655 77.6768C101.115 78.1847 102.076 75.8673 100.549 75.0603L73.0402 60.5177C72.03 59.9835 72.03 58.537 73.0402 58.0027Z" fill="#CCE9E1"/>
<path d="M28.6211 12.8733C26.5726 19.7505 30.5003 27.0171 37.3793 29.0675C40.7126 30.0607 44.2321 29.6957 47.2907 28.0423C50.3493 26.3869 52.5803 23.6406 53.5735 20.3092C53.6863 19.933 53.7804 19.553 53.8575 19.1711C54.4124 16.4285 54.072 13.575 52.8662 11.0261L49.6364 12.5554C50.6334 14.6622 50.8158 17.0549 50.1499 19.2897C49.4295 21.7068 47.8099 23.7008 45.5921 24.9009C43.3724 26.101 40.8198 26.3644 38.4008 25.6439C33.4103 24.156 30.5586 18.8871 32.0465 13.8947C33.4253 9.26543 38.0584 6.48144 42.7066 7.28654L41.6193 10.2361L49.4859 7.89224L45.0259 1L43.9574 3.89497C37.3417 2.4014 30.5868 6.28017 28.6211 12.8752V12.8733Z" fill="#DD6868" stroke="#001D15" stroke-linecap="round" stroke-linejoin="round"/>
<path d="M87.7587 95.6785C84.3445 89.3675 76.429 87.0049 70.1142 90.4209C67.0556 92.0744 64.8246 94.8208 63.8314 98.154C62.8382 101.487 63.2032 105.007 64.8566 108.065C65.0428 108.411 65.2441 108.746 65.4604 109.072C67.0067 111.404 69.2658 113.18 71.92 114.13L73.1239 110.765C70.9287 109.98 69.1097 108.417 67.9999 106.365C66.7998 104.145 66.5345 101.593 67.255 99.1735C67.9754 96.7564 69.595 94.7624 71.8128 93.5623C76.3932 91.0849 82.1361 92.7948 84.6135 97.3771C86.9121 101.626 85.6048 106.871 81.7486 109.587L80.4318 106.734L76.5267 113.955L84.5533 115.674L83.261 112.873C88.9945 109.252 91.028 101.732 87.7549 95.6804L87.7587 95.6785Z" fill="#DD6868" stroke="#001D15" stroke-linecap="round" stroke-linejoin="round"/>
<path d="M88.8437 38.5608C86.7952 45.438 90.7229 52.7046 97.602 54.755C100.935 55.7482 104.455 55.3832 107.513 53.7298C110.572 52.0744 112.803 49.3281 113.796 45.9967C113.909 45.6205 114.003 45.2405 114.08 44.8587C114.635 42.116 114.295 39.2625 113.089 36.7136L109.859 38.2429C110.856 40.3497 111.038 42.7424 110.373 44.9772C109.652 47.3943 108.033 49.3883 105.815 50.5884C103.595 51.7885 101.042 52.0519 98.6234 51.3314C93.6329 49.8435 90.7812 44.5746 92.2692 39.5822C93.648 34.9529 98.281 32.1689 102.929 32.974L101.842 35.9236L109.709 33.5797L105.249 26.6875L104.18 29.5825C97.5643 28.0889 90.8094 31.9677 88.8437 38.5627V38.5608Z" fill="#DD6868" stroke="#001D15" stroke-linecap="round" stroke-linejoin="round"/>
<path d="M87.843 10.7229C91.1725 17.0809 88.7083 24.9645 82.3503 28.2959C79.2691 29.9099 75.7458 30.2259 72.4257 29.1894C69.1057 28.1511 66.3894 25.8844 64.7773 22.8032C64.5948 22.4552 64.4293 22.1015 64.2807 21.7404C63.2104 19.1539 62.9978 16.289 63.6938 13.5558L67.1569 14.438C66.5831 16.6972 66.8615 19.0805 67.9431 21.1459C69.1132 23.3807 71.0845 25.0266 73.4923 25.779C75.9001 26.5315 78.4564 26.302 80.6912 25.1319C85.3054 22.7166 87.0924 16.9963 84.6771 12.3839C82.4368 8.10448 77.3542 6.25915 72.9487 7.94082L74.5814 10.627L66.4101 9.83318L69.4668 2.21484L71.0695 4.85022C77.2751 2.11703 84.6508 4.63014 87.843 10.7248V10.7229Z" fill="#29A8DF" stroke="#001D15" stroke-linecap="round" stroke-linejoin="round"/>
<path d="M97.4363 89.2035C90.5873 87.0628 86.7536 79.7455 88.8943 72.8927C89.9327 69.5745 92.1994 66.8582 95.2806 65.2443C98.3618 63.6303 101.885 63.3143 105.205 64.3508C105.579 64.4674 105.948 64.601 106.307 64.7514C108.894 65.8218 111.068 67.6991 112.509 70.1219L109.438 71.9484C108.247 69.9451 106.364 68.4572 104.139 67.763C101.731 67.0106 99.1744 67.2401 96.9397 68.4101C94.7049 69.5802 93.059 71.5515 92.3066 73.9593C90.7528 78.9291 93.533 84.2375 98.5028 85.7912C103.113 87.2321 108.012 84.9447 109.938 80.639L106.885 79.8941L113.224 74.6779L116.45 82.2266L113.454 81.4949C110.999 87.8171 104.007 91.2538 97.44 89.2016L97.4363 89.2035Z" fill="#29A8DF" stroke="#001D15" stroke-linecap="round" stroke-linejoin="round"/>
<path d="M28.6719 97.987C30.8125 91.1381 38.1299 87.3044 44.9826 89.4451C48.3008 90.4834 51.0171 92.7501 52.6311 95.8313C54.245 98.9125 54.5611 102.436 53.5246 105.756C53.408 106.13 53.2744 106.499 53.1239 106.858C52.0536 109.445 50.1763 111.619 47.7516 113.06L45.925 109.988C47.9284 108.798 49.4163 106.915 50.1104 104.689C50.8629 102.282 50.6334 99.7251 49.4633 97.4904C48.2933 95.2557 46.322 93.6098 43.9142 92.8574C38.9444 91.3036 33.636 94.0838 32.0822 99.0536C30.6413 103.664 32.9287 108.562 37.2345 110.489L37.9794 107.436L43.1956 113.775L35.6469 117.001L36.3786 114.004C30.0563 111.55 26.6196 104.558 28.6719 97.9908V97.987Z" fill="#29A8DF" stroke="#001D15" stroke-linecap="round" stroke-linejoin="round"/>
<path d="M10.053 30.0266C16.411 26.6971 24.2946 29.1613 27.626 35.5193C29.2399 38.6005 29.5559 42.1238 28.5195 45.4439C27.4811 48.7621 25.2144 51.4802 22.1332 53.0923C21.7852 53.2748 21.4316 53.4403 21.0704 53.5889C18.484 54.6592 15.6191 54.8718 12.8859 54.1758L13.7681 50.7127C16.0273 51.2865 18.4106 51.0081 20.476 49.9264C22.7107 48.7564 24.3567 46.7851 25.1091 44.3773C25.8615 41.9695 25.6321 39.4131 24.462 37.1784C22.0467 32.5642 16.3264 30.7771 11.714 33.1924C7.43457 35.4328 5.58921 40.5155 7.27089 44.9209L9.95707 43.2881L9.16326 51.4595L1.54492 48.4028L4.18219 46.8001C1.44711 40.5945 3.9621 33.2188 10.0568 30.0266H10.053Z" fill="#29A8DF" stroke="#001D15" stroke-linecap="round" stroke-linejoin="round"/>
<path d="M12.3733 89.255C19.2505 91.3035 26.5171 87.3759 28.5675 80.4968C29.5607 77.1635 29.1957 73.644 27.5423 70.5854C25.8869 67.5268 23.1406 65.2958 19.8092 64.3026C19.433 64.1898 19.053 64.0957 18.6712 64.0186C15.9286 63.4637 13.075 63.8042 10.5261 65.0099L12.0554 68.2397C14.1622 67.2428 16.5549 67.0603 18.7897 67.7262C21.2068 68.4466 23.2008 70.0662 24.4009 72.284C25.601 74.5037 25.8644 77.0563 25.1439 79.4754C23.656 84.4658 18.3871 87.3175 13.3948 85.8296C8.76544 84.4508 5.98143 79.8177 6.78653 75.1696L9.73608 76.2568L7.39222 68.3902L0.5 72.8502L3.39495 73.9187C1.90138 80.5344 5.78019 87.2893 12.3752 89.255H12.3733Z" fill="#DD6868" stroke="#001D15" stroke-linecap="round" stroke-linejoin="round"/>
<path d="M53.8529 56.9831L51.9492 77.1858H65.4628L63.561 56.9831L71.2245 58.2623L58.706 41.1953L46.1875 58.2623L53.8529 56.9831Z" fill="#009169" stroke="#001D15" stroke-linecap="round" stroke-linejoin="round"/>
</svg>
