<svg width="48" height="47" viewBox="0 0 48 47" fill="none" xmlns="http://www.w3.org/2000/svg">
<rect x="0.296875" width="47" height="47" rx="7" fill="#009169"/>
<rect width="27" height="27" transform="translate(10.2969 10)" fill="#E5F4F0"/>
<path d="M23.7969 31.375C28.1461 31.375 31.6719 27.8492 31.6719 23.5C31.6719 19.1508 28.1461 15.625 23.7969 15.625C19.4476 15.625 15.9219 19.1508 15.9219 23.5C15.9219 27.8492 19.4476 31.375 23.7969 31.375Z" fill="#009169"/>
<path d="M23.7969 35.83C23.1781 35.83 22.6719 35.3687 22.6719 34.75V34.66C22.6719 34.0413 23.1781 33.535 23.7969 33.535C24.4156 33.535 24.9219 34.0413 24.9219 34.66C24.9219 35.2787 24.4156 35.83 23.7969 35.83ZM31.8294 32.6575C31.5369 32.6575 31.2556 32.545 31.0306 32.3313L30.8844 32.185C30.4456 31.7463 30.4456 31.0375 30.8844 30.5987C31.3231 30.16 32.0319 30.16 32.4706 30.5987L32.6169 30.745C33.0556 31.1838 33.0556 31.8925 32.6169 32.3313C32.4031 32.545 32.1219 32.6575 31.8294 32.6575ZM15.7644 32.6575C15.4719 32.6575 15.1906 32.545 14.9656 32.3313C14.5269 31.8925 14.5269 31.1838 14.9656 30.745L15.1119 30.5987C15.5506 30.16 16.2594 30.16 16.6981 30.5987C17.1369 31.0375 17.1369 31.7463 16.6981 32.185L16.5519 32.3313C16.3381 32.545 16.0456 32.6575 15.7644 32.6575ZM35.0469 24.625H34.9569C34.3381 24.625 33.8319 24.1187 33.8319 23.5C33.8319 22.8813 34.3381 22.375 34.9569 22.375C35.5756 22.375 36.1269 22.8813 36.1269 23.5C36.1269 24.1187 35.6656 24.625 35.0469 24.625ZM12.6369 24.625H12.5469C11.9281 24.625 11.4219 24.1187 11.4219 23.5C11.4219 22.8813 11.9281 22.375 12.5469 22.375C13.1656 22.375 13.7169 22.8813 13.7169 23.5C13.7169 24.1187 13.2556 24.625 12.6369 24.625ZM31.6831 16.7387C31.3906 16.7387 31.1094 16.6262 30.8844 16.4125C30.4456 15.9737 30.4456 15.265 30.8844 14.8263L31.0306 14.68C31.4694 14.2412 32.1781 14.2412 32.6169 14.68C33.0556 15.1187 33.0556 15.8275 32.6169 16.2663L32.4706 16.4125C32.2569 16.6262 31.9756 16.7387 31.6831 16.7387ZM15.9106 16.7387C15.6181 16.7387 15.3369 16.6262 15.1119 16.4125L14.9656 16.255C14.5269 15.8162 14.5269 15.1075 14.9656 14.6688C15.4044 14.23 16.1131 14.23 16.5519 14.6688L16.6981 14.815C17.1369 15.2538 17.1369 15.9625 16.6981 16.4012C16.4844 16.6263 16.1919 16.7387 15.9106 16.7387ZM23.7969 13.42C23.1781 13.42 22.6719 12.9587 22.6719 12.34V12.25C22.6719 11.6312 23.1781 11.125 23.7969 11.125C24.4156 11.125 24.9219 11.6312 24.9219 12.25C24.9219 12.8687 24.4156 13.42 23.7969 13.42Z" fill="#009169"/>
</svg>
