<svg width="48" height="47" viewBox="0 0 48 47" fill="none" xmlns="http://www.w3.org/2000/svg">
<rect x="0.6875" width="47" height="47" rx="7" fill="#E5F4F0"/>
<path d="M24.1875 31.375C28.5367 31.375 32.0625 27.8492 32.0625 23.5C32.0625 19.1508 28.5367 15.625 24.1875 15.625C19.8383 15.625 16.3125 19.1508 16.3125 23.5C16.3125 27.8492 19.8383 31.375 24.1875 31.375Z" fill="#009169"/>
<path d="M24.1875 35.83C23.5688 35.83 23.0625 35.3687 23.0625 34.75V34.66C23.0625 34.0413 23.5688 33.535 24.1875 33.535C24.8062 33.535 25.3125 34.0413 25.3125 34.66C25.3125 35.2787 24.8062 35.83 24.1875 35.83ZM32.22 32.6575C31.9275 32.6575 31.6462 32.545 31.4212 32.3313L31.275 32.185C30.8362 31.7463 30.8362 31.0375 31.275 30.5987C31.7137 30.16 32.4225 30.16 32.8612 30.5987L33.0075 30.745C33.4463 31.1838 33.4463 31.8925 33.0075 32.3313C32.7938 32.545 32.5125 32.6575 32.22 32.6575ZM16.155 32.6575C15.8625 32.6575 15.5813 32.545 15.3563 32.3313C14.9175 31.8925 14.9175 31.1838 15.3563 30.745L15.5025 30.5987C15.9413 30.16 16.65 30.16 17.0887 30.5987C17.5275 31.0375 17.5275 31.7463 17.0887 32.185L16.9425 32.3313C16.7287 32.545 16.4363 32.6575 16.155 32.6575ZM35.4375 24.625H35.3475C34.7288 24.625 34.2225 24.1187 34.2225 23.5C34.2225 22.8813 34.7288 22.375 35.3475 22.375C35.9662 22.375 36.5175 22.8813 36.5175 23.5C36.5175 24.1187 36.0562 24.625 35.4375 24.625ZM13.0275 24.625H12.9375C12.3187 24.625 11.8125 24.1187 11.8125 23.5C11.8125 22.8813 12.3187 22.375 12.9375 22.375C13.5562 22.375 14.1075 22.8813 14.1075 23.5C14.1075 24.1187 13.6462 24.625 13.0275 24.625ZM32.0737 16.7387C31.7812 16.7387 31.5 16.6262 31.275 16.4125C30.8362 15.9737 30.8362 15.265 31.275 14.8263L31.4212 14.68C31.86 14.2412 32.5688 14.2412 33.0075 14.68C33.4463 15.1187 33.4463 15.8275 33.0075 16.2663L32.8612 16.4125C32.6475 16.6262 32.3663 16.7387 32.0737 16.7387ZM16.3012 16.7387C16.0087 16.7387 15.7275 16.6262 15.5025 16.4125L15.3563 16.255C14.9175 15.8162 14.9175 15.1075 15.3563 14.6688C15.795 14.23 16.5037 14.23 16.9425 14.6688L17.0887 14.815C17.5275 15.2538 17.5275 15.9625 17.0887 16.4012C16.875 16.6263 16.5825 16.7387 16.3012 16.7387ZM24.1875 13.42C23.5688 13.42 23.0625 12.9587 23.0625 12.34V12.25C23.0625 11.6312 23.5688 11.125 24.1875 11.125C24.8062 11.125 25.3125 11.6312 25.3125 12.25C25.3125 12.8687 24.8062 13.42 24.1875 13.42Z" fill="#009169"/>
</svg>
