<svg width="118" height="118" viewBox="0 0 118 118" fill="none" xmlns="http://www.w3.org/2000/svg">
<path d="M51.7417 50.6335L57.8707 13.9839C58.1034 12.5921 60.106 12.597 60.3319 13.9899L66.2814 50.6691C66.3676 51.1972 66.779 51.6122 67.3066 51.6993L103.956 57.8283C105.348 58.061 105.343 60.0636 103.95 60.2895L67.2711 66.239C66.743 66.3252 66.3279 66.7366 66.2408 67.2642L60.1119 103.914C59.8792 105.306 57.8765 105.301 57.6506 103.908L51.7011 67.2287C51.615 66.7006 51.2036 66.2855 50.6759 66.1984L14.0263 60.0695C12.6345 59.8368 12.6394 57.8341 14.0323 57.6082L50.7115 51.6587C51.2396 51.5726 51.6546 51.1612 51.7417 50.6335Z" fill="#CCE9E1"/>
<path d="M3.67206 66.1325C7.69356 70.9724 14.9074 71.6417 19.749 67.6186C22.0946 65.6695 23.5414 62.9247 23.8227 59.8885C24.104 56.8522 23.1841 53.8872 21.2367 51.5416C21.0163 51.2771 20.786 51.0225 20.5441 50.7811C18.8129 49.0414 16.5656 47.9027 14.1185 47.5436L13.6622 50.6438C15.6839 50.9408 17.5191 51.973 18.825 53.545C20.2395 55.2475 20.9057 57.397 20.7023 59.6004C20.499 61.8038 19.4499 63.7956 17.7473 65.2085C14.2347 68.1263 9.00161 67.6434 6.08377 64.1308C3.37645 60.8727 3.59919 56.1372 6.44719 53.1386L8.06992 55.3662L10.1867 48.4859L2.988 48.3891L4.58114 50.5754C0.272171 54.6757 -0.181663 61.4925 3.67371 66.1341L3.67206 66.1325Z" fill="#DD6868" stroke="#001D15" stroke-linecap="round" stroke-linejoin="round"/>
<path d="M66.4477 3.66326C71.2679 7.70839 71.9018 14.9254 67.855 19.7473C65.8945 22.0833 63.1427 23.5167 60.1051 23.7831C57.0675 24.0495 54.107 23.1152 51.771 21.1546C51.5076 20.9329 51.2541 20.7014 51.0139 20.4583C49.2827 18.7186 48.1549 16.4658 47.8079 14.0169L50.9103 13.5758C51.1973 15.5989 52.2205 17.4391 53.7861 18.7528C55.4818 20.1756 57.6279 20.8522 59.8323 20.6597C62.0367 20.4671 64.0336 19.4278 65.4548 17.7322C68.3898 14.2339 67.9325 8.99849 64.4342 6.06349C61.1894 3.34026 56.4529 3.53982 53.4403 6.37311L55.66 8.00672L48.7694 10.0898L48.7078 2.89071L50.8863 4.49453C55.0077 0.205682 61.8266 -0.214782 66.4493 3.66326L66.4477 3.66326Z" fill="#29A8DF" stroke="#001D15" stroke-linecap="round" stroke-linejoin="round"/>
<path d="M114.315 51.7686C110.293 46.9286 103.08 46.2594 98.238 50.2825C95.8924 52.2316 94.4455 54.9763 94.1643 58.0126C93.883 61.0489 94.8028 64.0139 96.7502 66.3595C96.9706 66.624 97.201 66.8786 97.4429 67.12C99.174 68.8596 101.421 69.9984 103.868 70.3574L104.325 67.2573C102.303 66.9603 100.468 65.9281 99.1619 64.3561C97.7474 62.6535 97.0813 60.5041 97.2846 58.3007C97.488 56.0973 98.5371 54.1055 100.24 52.6926C103.752 49.7747 108.985 50.2577 111.903 53.7703C114.61 57.0283 114.388 61.7639 111.54 64.7625L109.917 62.5349L107.8 69.4152L114.999 69.512L113.406 67.3257C117.715 63.2253 118.169 56.4085 114.313 51.7669L114.315 51.7686Z" fill="#DD6868" stroke="#001D15" stroke-linecap="round" stroke-linejoin="round"/>
<path d="M51.539 114.237C46.7187 110.192 46.0848 102.975 50.1316 98.1533C52.0921 95.8172 54.8439 94.3838 57.8815 94.1174C60.9191 93.851 63.8796 94.7854 66.2156 96.7442C66.479 96.9659 66.7325 97.1975 66.9727 97.4406C68.7039 99.1802 69.8317 101.433 70.1787 103.882L67.0763 104.323C66.7893 102.3 65.7661 100.46 64.2005 99.1461C62.5049 97.7233 60.3587 97.0466 58.1543 97.2392C55.9499 97.4318 53.953 98.4711 52.5318 100.167C49.5968 103.665 50.0542 108.9 53.5524 111.835C56.7972 114.559 61.5338 114.359 64.5463 111.526L62.3266 109.892L69.2173 107.809L69.2788 115.008L67.1003 113.404C62.9789 117.693 56.16 118.114 51.5373 114.236L51.539 114.237Z" fill="#29A8DF" stroke="#001D15" stroke-linecap="round" stroke-linejoin="round"/>
<path d="M54.7391 57.0026L53.0263 74.7171L64.8772 74.7461L63.2528 57.0235L69.9706 58.1633L59.029 43.1694L48.0142 58.1096L54.7391 57.0026Z" fill="#009169" stroke="#001D15" stroke-linecap="round" stroke-linejoin="round"/>
</svg>
