<svg width="46" height="46" viewBox="0 0 46 46" fill="none" xmlns="http://www.w3.org/2000/svg">
<path d="M0 7C0 3.13401 3.13401 0 7 0H39C42.866 0 46 3.13401 46 7V39C46 42.866 42.866 46 39 46H7C3.13401 46 0 42.866 0 39V7Z" fill="#E5F4F0"/>
<path d="M37 19.0283C37 18.461 36.8768 17.925 36.6591 17.4384H36.6745L34.2793 12.0428C33.9978 11.4081 33.3776 11 32.6935 11H14.2823C13.5916 11 12.9648 11.4171 12.6877 12.063L10.5323 17.0706C10.1957 17.6424 10 18.3107 10 19.0283C10 20.7125 11.0711 22.141 12.5557 22.6478V34.6365C12.5557 35.3878 13.1562 36 13.893 36H33.0433C33.7801 36 34.3805 35.3878 34.3805 34.6365V22.6904C35.9003 22.1926 37 20.7417 37 19.0283ZM23.4296 17.4384C23.4296 17.4384 23.4274 17.4451 23.4252 17.4496L23.4208 17.4384H23.4296ZM20.555 35.3272V27.3617C20.555 26.9535 20.8805 26.6216 21.2808 26.6216H25.5718C25.9721 26.6216 26.2977 26.9535 26.2977 27.3617V35.3272H20.555ZM33.7207 34.6365C33.7207 35.0178 33.4172 35.3272 33.0433 35.3272H26.9553V27.3617C26.9553 26.5835 26.3328 25.9489 25.5696 25.9489H21.2786C20.5154 25.9489 19.893 26.5835 19.893 27.3617V35.3272H13.8908C13.5169 35.3272 13.2133 35.0178 13.2133 34.6365V22.8048C13.3871 22.8295 13.5652 22.8474 13.7456 22.8474C15.2082 22.8474 16.4707 21.9908 17.0887 20.7461C17.6891 21.8831 18.868 22.6546 20.2229 22.6546C21.5777 22.6546 22.8468 21.8158 23.423 20.6049C23.9993 21.8158 25.2133 22.6546 26.6232 22.6546C28.033 22.6546 29.2229 21.8338 29.8057 20.643C30.4062 21.9594 31.7082 22.8721 33.2258 22.8721C33.393 22.8721 33.5579 22.8564 33.7185 22.8362V34.6343L33.7207 34.6365Z" fill="#009169"/>
</svg>
