<svg width="47" height="47" viewBox="0 0 47 47" fill="none" xmlns="http://www.w3.org/2000/svg">
<rect width="47" height="47" rx="7" fill="#009169"/>
<path d="M18.9536 28.7689C18.4252 28.3808 17.9595 27.9151 17.5714 27.3867C17.4699 27.5748 17.3625 27.7599 17.2431 27.942L16.0012 29.8615C15.7504 29.6973 15.4489 29.6048 15.1295 29.6048C14.2429 29.6048 13.5234 30.3242 13.5234 31.2108C13.5234 32.0975 14.2429 32.8169 15.1295 32.8169C16.0161 32.8169 16.7356 32.0975 16.7356 31.2108C16.7356 30.8884 16.64 30.5899 16.4788 30.3362L18.3984 29.0943C18.5805 28.9779 18.7655 28.8674 18.9536 28.7659V28.7689Z" fill="#E5F4F0"/>
<path d="M17.5793 19.8492C17.9673 19.3208 18.433 18.8551 18.9614 18.467C18.7734 18.3655 18.5883 18.258 18.4062 18.1386L16.4867 16.8968C16.6508 16.646 16.7434 16.3445 16.7434 16.0221C16.7434 15.1355 16.0239 14.416 15.1373 14.416C14.2507 14.416 13.5312 15.1355 13.5312 16.0221C13.5312 16.9087 14.2507 17.6282 15.1373 17.6282C15.4597 17.6282 15.7583 17.5326 16.009 17.3714L17.2509 19.2909C17.3673 19.473 17.4778 19.6581 17.5793 19.8462V19.8492Z" fill="#E5F4F0"/>
<path d="M30.3163 32.8208C31.2029 32.8208 31.9224 32.1014 31.9224 31.2147C31.9224 30.3281 31.2029 29.6087 30.3163 29.6087C29.9939 29.6087 29.6954 29.7042 29.4446 29.8654L28.2027 27.9459C28.0863 27.7638 27.9759 27.5787 27.8744 27.3906C27.4863 27.919 27.0206 28.3847 26.4922 28.7728C26.6803 28.8743 26.8653 28.9818 27.0474 29.1012L28.967 30.343C28.8028 30.5938 28.7102 30.8953 28.7102 31.2177C28.7102 32.1043 29.4297 32.8238 30.3163 32.8238V32.8208Z" fill="#E5F4F0"/>
<path d="M31.9302 16.026C31.9302 15.1394 31.2107 14.4199 30.3241 14.4199C29.4375 14.4199 28.718 15.1394 28.718 16.026C28.718 16.3484 28.8136 16.6469 28.9748 16.9007L27.0553 18.1425C26.8732 18.259 26.6881 18.3694 26.5 18.4709C27.0284 18.859 27.4941 19.3247 27.8822 19.8531C27.9837 19.665 28.0911 19.4799 28.2106 19.2978L29.4524 17.3783C29.7032 17.5425 30.0047 17.635 30.3241 17.635C31.2107 17.635 31.9302 16.9156 31.9302 16.029V16.026Z" fill="#E5F4F0"/>
<path d="M28.5813 23.6207C28.5813 20.3907 25.9543 17.7637 22.7243 17.7637C19.4942 17.7637 16.8672 20.3907 16.8672 23.6207C16.8672 26.8508 19.4942 29.4778 22.7243 29.4778C25.9543 29.4778 28.5813 26.8508 28.5813 23.6207ZM22.7243 28.2569C20.1689 28.2569 18.0882 26.1761 18.0882 23.6207C18.0882 21.0654 20.1689 18.9846 22.7243 18.9846C25.2796 18.9846 27.3604 21.0654 27.3604 23.6207C27.3604 26.1761 25.2796 28.2569 22.7243 28.2569Z" fill="#E5F4F0"/>
<path d="M9.23184 17.5749C9.31543 17.8615 9.41693 18.1391 9.54231 18.4107C10.0379 19.4884 10.8648 20.393 11.8619 20.9661C12.8559 21.5423 14.0202 21.7871 15.1098 21.6527C14.8382 21.6139 14.5695 21.5721 14.3098 21.5005C14.05 21.4318 13.7933 21.3512 13.5485 21.2497C13.3037 21.1482 13.0649 21.0348 12.841 20.9034C12.6171 20.7691 12.3992 20.6288 12.1962 20.4676C11.3812 19.8317 10.7663 18.9809 10.4289 18.0436C10.2588 17.5749 10.1603 17.0853 10.1274 16.5957C10.1125 16.3509 10.1185 16.1031 10.1334 15.8584C10.1543 15.6136 10.1871 15.3718 10.2409 15.1329C10.2976 14.8971 10.3603 14.6613 10.4468 14.4344C10.5334 14.2075 10.6349 13.9866 10.7513 13.7746C10.8707 13.5627 10.9991 13.3567 11.1454 13.1627C11.2917 12.9686 11.4529 12.7865 11.623 12.6134C11.7962 12.4432 11.9783 12.282 12.1723 12.1357C12.3664 11.9895 12.5723 11.8611 12.7843 11.7417C12.9963 11.6223 13.2172 11.5238 13.444 11.4372C13.6709 11.3506 13.9068 11.2879 14.1426 11.2312C14.3814 11.1775 14.6232 11.1446 14.868 11.1237C15.1128 11.1088 15.3576 11.1058 15.6054 11.1178C16.0949 11.1506 16.5845 11.2521 17.0532 11.4193C17.9906 11.7566 18.8414 12.3716 19.4772 13.1865C19.6385 13.3895 19.7788 13.6075 19.9131 13.8314C20.0444 14.0582 20.1579 14.2941 20.2594 14.5389C20.3609 14.7837 20.4415 15.0374 20.5101 15.3001C20.5788 15.5598 20.6236 15.8285 20.6624 16.1002C20.7997 15.0105 20.5549 13.8463 19.9788 12.8522C19.4056 11.8521 18.5011 11.0252 17.4234 10.5327C17.1547 10.4073 16.8741 10.3088 16.5875 10.2222C16.3009 10.1386 16.0084 10.0849 15.7128 10.0461C15.4173 10.0102 15.1158 9.99531 14.8173 10.0013C14.5187 10.0132 14.2172 10.0401 13.9217 10.0938C13.6261 10.1476 13.3336 10.2222 13.047 10.3207C12.7634 10.4222 12.4828 10.5386 12.2171 10.6789C11.9514 10.8222 11.6947 10.9804 11.4499 11.1596C11.2081 11.3417 10.9782 11.5357 10.7633 11.7477C10.5513 11.9626 10.3543 12.1925 10.1752 12.4343C9.99607 12.6791 9.83486 12.9358 9.69456 13.2015C9.41693 13.7388 9.21393 14.312 9.10945 14.9061C9.05571 15.2016 9.02885 15.5031 9.0169 15.8016C9.01093 16.1002 9.02586 16.3987 9.06168 16.6972C9.10348 16.9928 9.15721 17.2883 9.2408 17.5719L9.23184 17.5749Z" fill="#E5F4F0"/>
<path d="M24.9509 15.304C25.0195 15.0443 25.1001 14.7876 25.2016 14.5428C25.3031 14.298 25.4166 14.0592 25.5479 13.8353C25.6822 13.6114 25.8226 13.3935 25.9838 13.1905C26.6196 12.3755 27.4704 11.7605 28.4078 11.4232C28.8765 11.253 29.3661 11.1545 29.8556 11.1217C30.1004 11.1067 30.3482 11.1127 30.593 11.1276C30.8378 11.1485 31.0796 11.1814 31.3184 11.2351C31.5542 11.2918 31.7901 11.3545 32.017 11.4411C32.2438 11.5277 32.4648 11.6292 32.6767 11.7456C32.8887 11.865 33.0946 11.9934 33.2887 12.1396C33.4827 12.2859 33.6648 12.4471 33.838 12.6173C34.0081 12.7904 34.1693 12.9725 34.3156 13.1666C34.4619 13.3606 34.5903 13.5666 34.7097 13.7786C34.8291 13.9905 34.9276 14.2114 35.0142 14.4383C35.1007 14.6652 35.1634 14.901 35.2201 15.1368C35.2739 15.3757 35.3067 15.6175 35.3276 15.8623C35.3425 16.1071 35.3455 16.3518 35.3336 16.5996C35.3007 17.0892 35.1992 17.5788 35.0321 18.0475C34.6947 18.9848 34.0798 19.8356 33.2648 20.4715C33.0618 20.6327 32.8439 20.773 32.62 20.9073C32.3931 21.0387 32.1573 21.1521 31.9125 21.2536C31.6677 21.3551 31.4139 21.4357 31.1512 21.5044C30.8915 21.5731 30.6228 21.6178 30.3512 21.6566C31.4408 21.794 32.6051 21.5492 33.5991 20.97C34.5992 20.3969 35.4231 19.4923 35.9187 18.4147C36.0441 18.146 36.1426 17.8654 36.2292 17.5788C36.3127 17.2922 36.3665 16.9996 36.4053 16.7011C36.4411 16.4056 36.456 16.1041 36.4501 15.8055C36.4381 15.507 36.4113 15.2055 36.3575 14.91C36.3038 14.6144 36.2292 14.3219 36.1306 14.0353C36.0291 13.7517 35.9127 13.4711 35.7724 13.2054C35.6291 12.9397 35.4709 12.683 35.2918 12.4382C35.1127 12.1964 34.9156 11.9665 34.7037 11.7516C34.4888 11.5396 34.2589 11.3426 34.0171 11.1635C33.7723 10.9843 33.5185 10.8231 33.2499 10.6828C32.7125 10.4052 32.1394 10.2022 31.5453 10.0977C31.2498 10.044 30.9482 10.0171 30.6497 10.0052C30.3512 9.99922 30.0527 10.0141 29.7541 10.05C29.4586 10.0918 29.1631 10.1455 28.8795 10.2291C28.5929 10.3127 28.3152 10.4142 28.0436 10.5395C26.9659 11.0351 26.0614 11.862 25.4882 12.8591C24.9121 13.8532 24.6673 15.0174 24.8016 16.1071C24.8404 15.8354 24.8822 15.5667 24.9538 15.307L24.9509 15.304Z" fill="#E5F4F0"/>
<path d="M36.2257 29.6646C36.1421 29.378 36.0406 29.1004 35.9152 28.8287C35.4196 27.7511 34.5927 26.8465 33.5956 26.2734C32.6016 25.6972 31.4373 25.4524 30.3477 25.5868C30.6193 25.6256 30.888 25.6674 31.1477 25.739C31.4075 25.8077 31.6642 25.8883 31.909 25.9898C32.1538 26.0942 32.3926 26.2047 32.6165 26.3361C32.8404 26.4704 33.0583 26.6107 33.2613 26.7719C34.0763 27.4078 34.6912 28.2586 35.0286 29.1959C35.1987 29.6646 35.2972 30.1542 35.3301 30.6438C35.345 30.8886 35.339 31.1363 35.3241 31.3811C35.3032 31.6259 35.2704 31.8677 35.2166 32.1066C35.1599 32.3424 35.0972 32.5782 35.0107 32.8051C34.9241 33.032 34.8226 33.2529 34.7062 33.4648C34.5867 33.6768 34.4584 33.8828 34.3121 34.0768C34.1658 34.2709 34.0046 34.453 33.8345 34.6261C33.6613 34.7963 33.4792 34.9575 33.2852 35.1038C33.0911 35.25 32.8852 35.3784 32.6732 35.4978C32.4612 35.6172 32.2403 35.7157 32.0135 35.8023C31.7866 35.8889 31.5507 35.9516 31.3149 36.0083C31.0761 36.062 30.8343 36.0949 30.5895 36.1158C30.3447 36.1307 30.0999 36.1337 29.8521 36.1217C29.3626 36.0889 28.873 35.9874 28.4043 35.8202C27.4669 35.4829 26.6161 34.8679 25.9803 34.0529C25.8191 33.8499 25.6787 33.632 25.5444 33.4081C25.4101 33.1812 25.2996 32.9454 25.1981 32.7006C25.0966 32.4558 25.016 32.1991 24.9474 31.9394C24.8787 31.6797 24.8339 31.411 24.7951 31.1393C24.6578 32.2289 24.9026 33.3932 25.4817 34.3873C26.0549 35.3874 26.9594 36.2143 28.0371 36.7068C28.3058 36.8322 28.5864 36.9307 28.873 37.0173C29.1596 37.1009 29.4521 37.1546 29.7506 37.1934C30.0462 37.2293 30.3477 37.2442 30.6462 37.2382C30.9447 37.2263 31.2462 37.1994 31.5418 37.1457C31.8373 37.0919 32.1299 37.0173 32.4165 36.9188C32.7001 36.8173 32.9807 36.7009 33.2464 36.5606C33.5121 36.4173 33.7688 36.259 34.0136 36.0799C34.2554 35.8978 34.4853 35.7038 34.7002 35.4918C34.9121 35.2769 35.1092 35.047 35.2883 34.8052C35.4674 34.5604 35.6286 34.3067 35.7689 34.038C36.0465 33.5007 36.2495 32.9275 36.354 32.3334C36.4078 32.0379 36.4346 31.7364 36.4466 31.4379C36.4525 31.1393 36.4376 30.8408 36.4018 30.5423C36.36 30.2467 36.3063 29.9512 36.2227 29.6676L36.2257 29.6646Z" fill="#E5F4F0"/>
<path d="M20.5005 31.9368C20.4318 32.1965 20.3512 32.4532 20.2497 32.698C20.1482 32.9428 20.0348 33.1816 19.9034 33.4055C19.7691 33.6294 19.6288 33.8474 19.4676 34.0504C18.8317 34.8653 17.9809 35.4803 17.0436 35.8176C16.5749 35.9878 16.0853 36.0863 15.5957 36.1191C15.3509 36.1341 15.1031 36.1281 14.8584 36.1132C14.6136 36.0923 14.3718 36.0594 14.1329 36.0057C13.8971 35.949 13.6613 35.8863 13.4344 35.7997C13.2075 35.7131 12.9866 35.6116 12.7746 35.4952C12.5627 35.3758 12.3567 35.2474 12.1627 35.1012C11.9686 34.9549 11.7865 34.7937 11.6134 34.6235C11.4432 34.4504 11.282 34.2683 11.1357 34.0742C10.9895 33.8802 10.8611 33.6742 10.7417 33.4623C10.6223 33.2503 10.5238 33.0294 10.4372 32.8025C10.3506 32.5756 10.2879 32.3398 10.2312 32.104C10.1775 31.8652 10.1446 31.6233 10.1237 31.3786C10.1088 31.1338 10.1058 30.889 10.1178 30.6412C10.1506 30.1516 10.2521 29.662 10.4193 29.1933C10.7566 28.256 11.3716 27.4052 12.1865 26.7693C12.3895 26.6081 12.6075 26.4678 12.8314 26.3335C13.0582 26.1991 13.2941 26.0887 13.5389 25.9872C13.7837 25.8857 14.0404 25.8051 14.3001 25.7364C14.5598 25.6678 14.8285 25.623 15.1002 25.5842C14.0105 25.4468 12.8463 25.6916 11.8522 26.2708C10.8521 26.8439 10.0252 27.7485 9.53266 28.8262C9.40727 29.0948 9.30876 29.3754 9.22219 29.662C9.1386 29.9486 9.08487 30.2412 9.04606 30.5397C9.01024 30.8352 8.99531 31.1367 9.00128 31.4353C9.01322 31.7338 9.04009 32.0353 9.09382 32.3309C9.14756 32.6264 9.22219 32.9189 9.3207 33.2055C9.4222 33.4891 9.53863 33.7697 9.67893 34.0354C9.82223 34.3011 9.98044 34.5579 10.1596 34.8026C10.3387 35.0444 10.5357 35.2743 10.7477 35.4893C10.9626 35.7012 11.1925 35.8982 11.4343 36.0773C11.6791 36.2565 11.9328 36.4177 12.2015 36.558C12.7388 36.8356 13.312 37.0386 13.9061 37.1431C14.2016 37.1968 14.5031 37.2237 14.8016 37.2356C15.1002 37.2416 15.3987 37.2267 15.6972 37.1908C15.9928 37.1491 16.2883 37.0953 16.5719 37.0117C16.8585 36.9281 17.1361 36.8266 17.4078 36.7013C18.4854 36.2057 19.39 35.3788 19.9631 34.3817C20.5393 33.3876 20.7841 32.2234 20.6498 31.1338C20.6109 31.4054 20.5692 31.6741 20.4975 31.9338L20.5005 31.9368Z" fill="#E5F4F0"/>
</svg>
