<svg width="43" height="43" viewBox="0 0 43 43" fill="none" xmlns="http://www.w3.org/2000/svg">
<path d="M34.0713 0H8.92872C3.99753 0 0 3.99753 0 8.92872V34.0713C0 39.0025 3.99753 43 8.92872 43H34.0713C39.0025 43 43 39.0025 43 34.0713V8.92872C43 3.99753 39.0025 0 34.0713 0Z" fill="#009169"/>
<path d="M25.7063 34.1447H21.3041L20.0303 27.4531C17.4281 27.6471 15.375 29.814 15.375 32.4662V34.9077H31.6354V32.4662C31.6354 29.814 29.5828 27.6471 26.981 27.4531L25.7059 34.1447H25.7063Z" fill="white"/>
<path d="M22.125 34.1449H24.8863L24.2009 29.6457H24.1772L24.8496 28.4111H22.1608L22.8328 29.6457H22.8091L22.125 34.1449Z" fill="white"/>
<path d="M21.1179 14.7295C21.1929 14.6614 21.2658 14.5993 21.33 14.5515C21.6188 14.3347 22.5227 14.0127 22.7167 13.998H22.718C22.8525 13.998 23.0033 14.0868 23.1814 14.2377C23.1947 13.9243 23.1822 13.6097 23.1452 13.295L22.1499 13.0571C22.0977 12.7958 22.024 12.5359 21.9305 12.2812L22.6611 11.5613C22.5714 11.3674 22.4736 11.1768 22.3632 10.9911C22.2533 10.8048 22.1339 10.6268 22.0055 10.4566L21.024 10.7501C20.846 10.5445 20.6533 10.3557 20.4485 10.185L20.7201 9.19746C20.3688 8.94616 19.9942 8.73624 19.6028 8.56814L18.8976 9.31385C18.6433 9.22591 18.3825 9.15867 18.1183 9.11255L17.8584 8.11985C17.4338 8.07803 17.0045 8.08278 16.5773 8.13536L16.3376 9.13022C16.0764 9.18152 15.8178 9.25479 15.5626 9.34919L14.8423 8.62072C14.6505 8.70779 14.4578 8.80521 14.272 8.91599C14.0858 9.02591 13.9082 9.14574 13.7384 9.27247L14.0311 10.2557C13.8259 10.4341 13.6362 10.626 13.4664 10.8307L12.4793 10.56C12.228 10.9109 12.0177 11.2846 11.8496 11.6764L12.5953 12.382C12.5078 12.6359 12.4418 12.8971 12.3948 13.1609L11.4039 13.4217C11.3616 13.8463 11.3655 14.2761 11.4172 14.7041L12.4129 14.9412C12.4642 15.2032 12.5379 15.4619 12.6302 15.7179L11.9026 16.4378C11.9892 16.6317 12.0875 16.8214 12.1978 17.0063C12.3091 17.193 12.428 17.3714 12.5539 17.5412L13.5367 17.2486C13.7156 17.4542 13.9087 17.6434 14.1126 17.8132L13.8419 18.8016C14.1923 19.0521 14.5656 19.2629 14.9574 19.4297L15.6635 18.6852C15.9186 18.7736 16.1768 18.8396 16.4432 18.8848L16.7036 19.8775C16.8932 19.8956 17.0842 19.9038 17.2764 19.9038L17.2747 19.8724C17.2747 17.4382 18.8972 15.3856 21.1188 14.73L21.1179 14.7295ZM18.4217 15.8593C17.348 16.4947 15.9587 16.1257 15.3423 15.0343C14.763 14.0092 15.11 12.6605 16.1113 12.0411C17.1777 11.3807 18.5713 11.729 19.2071 12.8015C19.8343 13.8623 19.4821 15.2313 18.4217 15.8593Z" fill="white"/>
<path d="M29.4423 20.8722C29.4642 20.6778 29.4798 20.479 29.4798 20.2778L29.4767 20.2213C29.478 20.0777 29.4729 19.9286 29.4535 19.7682V19.7674C29.3664 18.8406 29.0444 17.9833 28.5457 17.2552C28.2883 16.8789 27.9827 16.5406 27.6418 16.2419C26.7288 15.4436 25.5452 14.9509 24.2455 14.919L24.1796 14.8672C24.1244 14.8065 24.0624 14.7953 24.0214 14.7953C23.9236 14.7953 23.8555 14.8599 23.8003 14.9125H23.7822C23.6779 14.8086 23.583 14.7185 23.4938 14.644C23.3162 14.4922 23.1653 14.4043 23.0304 14.4043H23.0287C22.8356 14.419 21.9313 14.7405 21.6416 14.9569C21.5778 15.0043 21.5054 15.0668 21.4304 15.1349C19.2088 15.7914 17.5867 17.8432 17.5867 20.2773L17.588 20.3096L17.5906 20.3881C17.588 20.5519 17.5932 20.7131 17.6087 20.8717C16.9492 20.986 16.4453 21.5304 16.4453 22.1968V22.636C16.4453 23.3847 17.079 23.9938 17.8574 23.9938H17.9406C18.3652 25.4844 19.42 26.7241 20.811 27.4344C21.614 27.8439 22.5274 28.078 23.499 28.078C24.4706 28.078 25.3839 27.8439 26.1861 27.4344C27.5771 26.7245 28.6319 25.4844 29.0565 23.9938H29.1397C29.919 23.9938 30.5518 23.3847 30.5518 22.636V22.1968C30.5518 21.5476 30.075 21.0058 29.4414 20.8717L29.4423 20.8722ZM17.2764 22.6364V22.1972C17.2764 21.9209 17.4884 21.695 17.7635 21.6511C17.7647 21.758 17.7678 21.8627 17.7708 21.9696C17.7484 22.1541 17.7311 22.3407 17.7311 22.5317C17.7311 22.7541 17.7488 22.9714 17.7755 23.1873C17.4941 23.1481 17.2768 22.9166 17.2768 22.636L17.2764 22.6364ZM28.4073 23.0412C28.375 23.3283 28.3151 23.6063 28.2323 23.8753C27.628 25.8408 25.7361 27.2797 23.4998 27.2797C21.2636 27.2797 19.3713 25.8408 18.7665 23.8753C18.6842 23.6063 18.6243 23.3283 18.5915 23.0412C18.5734 22.8744 18.5622 22.7041 18.5622 22.5317C18.5622 22.2907 18.5872 22.055 18.623 21.8231C18.6398 21.7153 18.6639 21.6101 18.6881 21.5054C19.3657 21.0243 20.2334 20.2756 20.5644 19.6859C20.5644 19.6859 26.0456 20.9696 28.0422 21.1174C28.0995 21.1209 28.153 21.1235 28.2056 21.1243C28.2789 21.3511 28.3383 21.5843 28.3763 21.8239C28.4121 22.0554 28.4366 22.2912 28.4366 22.5321C28.4366 22.7041 28.4258 22.8744 28.4073 23.0416V23.0412ZM29.722 22.6364C29.722 22.9171 29.5048 23.1485 29.2237 23.1878C29.2509 22.9718 29.2677 22.7545 29.2677 22.5321C29.2677 22.3097 29.2479 22.1067 29.2207 21.8994C29.2461 21.8209 29.2711 21.7433 29.2927 21.6644C29.5388 21.7295 29.7224 21.9403 29.7224 22.1972V22.6364H29.722Z" fill="white"/>
</svg>
