<svg width="43" height="43" viewBox="0 0 43 43" fill="none" xmlns="http://www.w3.org/2000/svg">
<path d="M34.0713 0H8.92872C3.99753 0 0 3.99753 0 8.92872V34.0713C0 39.0025 3.99753 43 8.92872 43H34.0713C39.0025 43 43 39.0025 43 34.0713V8.92872C43 3.99753 39.0025 0 34.0713 0Z" fill="#353535"/>
<path d="M25.7002 34.1449H21.298L20.0242 27.4534C17.422 27.6473 15.3689 29.8142 15.3689 32.4664V34.9079H31.6293V32.4664C31.6293 29.8142 29.5767 27.6473 26.9748 27.4534L25.6998 34.1449H25.7002Z" fill="white"/>
<path d="M22.1193 34.145H24.8806L24.1952 29.6457H24.1715L24.8439 28.4112H22.155L22.827 29.6457H22.8033L22.1193 34.145Z" fill="white"/>
<path d="M21.1144 14.7293C21.1894 14.6612 21.2622 14.5992 21.3265 14.5513C21.6153 14.3345 22.5192 14.0125 22.7132 13.9979H22.7144C22.8489 13.9979 22.9998 14.0867 23.1778 14.2375C23.1912 13.9241 23.1787 13.6095 23.1416 13.2948L22.1463 13.0569C22.0942 12.7957 22.0205 12.5357 21.9269 12.281L22.6576 11.5611C22.5679 11.3672 22.47 11.1767 22.3597 10.9909C22.2498 10.8047 22.1304 10.6266 22.0019 10.4564L21.0204 10.7499C20.8424 10.5443 20.6497 10.3555 20.445 10.1848L20.7165 9.19728C20.3652 8.94598 19.9907 8.73606 19.5993 8.56795L18.8941 9.31366C18.6398 9.22573 18.379 9.15849 18.1147 9.11237L17.8548 8.11966C17.4302 8.07785 17.0009 8.08259 16.5737 8.13518L16.3341 9.13004C16.0729 9.18133 15.8142 9.25461 15.5591 9.34901L14.8388 8.62054C14.647 8.70761 14.4543 8.80503 14.2685 8.91581C14.0823 9.02573 13.9047 9.14556 13.7349 9.27228L14.0276 10.2555C13.8224 10.434 13.6327 10.6258 13.4629 10.8305L12.4758 10.5598C12.2245 10.9107 12.0141 11.2844 11.846 11.6762L12.5917 12.3819C12.5042 12.6357 12.4383 12.897 12.3913 13.1608L11.4003 13.4215C11.3581 13.8461 11.362 14.2759 11.4137 14.7039L12.4094 14.941C12.4607 15.2031 12.5344 15.4617 12.6266 15.7177L11.899 16.4376C11.9857 16.6316 12.084 16.8212 12.1943 17.0061C12.3055 17.1928 12.4245 17.3712 12.5503 17.5411L13.5331 17.2484C13.712 17.454 13.9051 17.6432 14.109 17.8131L13.8383 18.8015C14.1888 19.0519 14.562 19.2627 14.9539 19.4295L15.6599 18.6851C15.9151 18.7734 16.1733 18.8394 16.4397 18.8846L16.7 19.8773C16.8897 19.8954 17.0807 19.9036 17.2729 19.9036L17.2712 19.8722C17.2712 17.438 18.8936 15.3854 21.1153 14.7298L21.1144 14.7293ZM18.4182 15.8591C17.3445 16.4945 15.9552 16.1255 15.3388 15.0341C14.7595 14.0091 15.1065 12.6603 16.1078 12.0409C17.1742 11.3805 18.5678 11.7288 19.2036 12.8013C19.8307 13.8621 19.4786 15.2311 18.4182 15.8591Z" fill="white"/>
<path d="M29.4424 20.8717C29.4644 20.6773 29.4799 20.4786 29.4799 20.2773L29.4769 20.2209C29.4782 20.0773 29.473 19.9282 29.4536 19.7678V19.767C29.3665 18.8402 29.0445 17.9829 28.5458 17.2548C28.2885 16.8785 27.9829 16.5401 27.6419 16.2414C26.7289 15.4431 25.5453 14.9504 24.2457 14.9185L24.1797 14.8668C24.1245 14.806 24.0625 14.7948 24.0215 14.7948C23.9237 14.7948 23.8556 14.8595 23.8004 14.9121H23.7823C23.678 14.8082 23.5832 14.7181 23.4939 14.6435C23.3163 14.4918 23.1655 14.4039 23.0305 14.4039H23.0288C22.8357 14.4185 21.9314 14.7401 21.6417 14.9565C21.5779 15.0039 21.5055 15.0664 21.4305 15.1345C19.2089 15.791 17.5868 17.8428 17.5868 20.2769L17.5881 20.3092L17.5907 20.3877C17.5881 20.5515 17.5933 20.7127 17.6088 20.8713C16.9493 20.9855 16.4454 21.5299 16.4454 22.1963V22.6356C16.4454 23.3843 17.0791 23.9934 17.8575 23.9934H17.9407C18.3653 25.4839 19.4201 26.7236 20.8111 27.434C21.6141 27.8435 22.5275 28.0776 23.4991 28.0776C24.4707 28.0776 25.3841 27.8435 26.1862 27.434C27.5772 26.7241 28.632 25.4839 29.0566 23.9934H29.1398C29.9191 23.9934 30.5519 23.3843 30.5519 22.6356V22.1963C30.5519 21.5472 30.0752 21.0054 29.4415 20.8713L29.4424 20.8717ZM17.2765 22.636V22.1968C17.2765 21.9205 17.4886 21.6946 17.7636 21.6506C17.7649 21.7575 17.7679 21.8623 17.7709 21.9692C17.7485 22.1537 17.7312 22.3403 17.7312 22.5313C17.7312 22.7537 17.7489 22.9709 17.7756 23.1869C17.4942 23.1477 17.2769 22.9162 17.2769 22.6356L17.2765 22.636ZM28.4074 23.0408C28.3751 23.3278 28.3152 23.6059 28.2324 23.8748C27.6281 25.8404 25.7362 27.2793 23.5 27.2793C21.2637 27.2793 19.3714 25.8404 18.7666 23.8748C18.6843 23.6059 18.6244 23.3278 18.5916 23.0408C18.5735 22.874 18.5623 22.7037 18.5623 22.5313C18.5623 22.2903 18.5873 22.0545 18.6231 21.8226C18.6399 21.7149 18.664 21.6097 18.6882 21.5049C19.3658 21.0239 20.2335 20.2752 20.5645 19.6855C20.5645 19.6855 26.0457 20.9692 28.0423 21.117C28.0997 21.1205 28.1531 21.123 28.2057 21.1239C28.279 21.3506 28.3385 21.5838 28.3764 21.8235C28.4122 22.055 28.4367 22.2907 28.4367 22.5317C28.4367 22.7037 28.426 22.874 28.4074 23.0412V23.0408ZM29.7221 22.636C29.7221 22.9166 29.5049 23.1481 29.2238 23.1873C29.251 22.9714 29.2678 22.7541 29.2678 22.5317C29.2678 22.3093 29.248 22.1063 29.2208 21.8989C29.2463 21.8205 29.2713 21.7429 29.2928 21.664C29.5389 21.7291 29.7226 21.9399 29.7226 22.1968V22.636H29.7221Z" fill="white"/>
</svg>
