<svg width="52" height="52" viewBox="0 0 52 52" fill="none" xmlns="http://www.w3.org/2000/svg">
<path d="M51.9926 51.2071C51.9722 49.2028 52.0119 47.1949 51.9036 45.1955C51.6991 41.406 50.5816 38.0174 47.3625 35.6472C44.2962 33.3889 40.7283 32.5042 37.0593 31.9492C36.2774 31.8313 36.0994 31.54 36.0922 30.8478C36.0825 29.75 36.0597 28.6461 35.9358 27.5567C35.7144 25.5873 34.064 24.2632 32.0948 24.339C31.4741 24.3631 31.1769 24.5377 31.1962 25.219C31.2347 26.5937 31.2455 29.2949 31.2455 29.2949V29.3443C31.2455 29.3443 31.2864 30.2856 31.3093 30.7563C31.5198 35.1621 31.9661 39.533 33.5564 43.6932C35.1238 47.7932 37.7787 50.7123 42.2861 51.5995C45.3271 52.1978 48.3946 51.9077 51.4513 51.9955C52.0997 52.0136 51.9962 51.5862 51.9926 51.2071ZM47.1965 46.711C47.1003 47.2563 47.0858 47.2611 45.8961 47.2274C41.3478 47.0974 39.1885 45.5096 37.7209 41.2098C37.3155 40.0229 37.0509 38.7987 36.8163 37.566C36.6888 36.8943 36.9174 36.733 37.5417 36.8546C39.6625 37.2699 41.7472 37.7851 43.6262 38.9106C46.0826 40.3804 47.6921 43.9074 47.1953 46.7098L47.1965 46.711Z" fill="#009169"/>
<path d="M20.795 26.6663C20.7517 25.3698 20.6519 24.2178 20.6519 22.9202L20.6386 22.7745C20.6386 22.0294 20.6795 21.2819 20.6326 20.5391C20.3848 16.651 19.9614 12.7881 18.6598 9.0829C17.1862 4.89139 14.7117 1.67854 10.1658 0.549409C6.99488 -0.237853 3.75657 0.073922 0.542311 0.00651115C-0.00262042 -0.00432274 0.00940903 0.308656 0.0118149 0.685435C0.0310619 2.8486 -0.0375056 5.01417 0.070759 7.17132C0.359464 12.8543 3.26817 16.604 8.6008 18.5349C10.6783 19.2872 12.8111 19.7868 14.9908 20.0745C15.6296 20.1575 15.8569 20.3537 15.8569 21.0074C15.8593 22.1437 15.9063 23.2873 16.0338 24.4177C16.2503 26.3509 17.8225 27.6666 19.7436 27.663C20.4618 27.663 20.8227 27.456 20.795 26.6639V26.6663ZM13.0541 14.8838C11.8644 14.6335 10.712 14.2615 9.58601 13.7944C6.06019 12.3331 4.79831 9.4994 4.80192 5.92061C4.5493 4.8962 5.05815 4.72045 5.9399 4.76499C11.1342 5.0238 13.6868 7.33383 14.8585 13.0433C15.3373 15.3798 15.8317 15.4713 13.0553 14.885L13.0541 14.8838Z" fill="#009169"/>
<path d="M51.9672 0.61375C51.978 0.0275164 51.6784 0.00344103 51.2394 0.00825609C49.1174 0.0335351 46.9918 -0.0302644 44.8734 0.0684443C39.2557 0.330865 35.4761 3.14286 33.5092 8.42137C32.7382 10.4918 32.192 12.6213 31.9406 14.8049C31.836 15.7102 31.4967 15.8907 30.7004 15.8811C29.643 15.8679 28.5784 15.9148 27.5282 16.034C25.5819 16.2543 24.2322 17.9492 24.3248 19.8969C24.3549 20.5288 24.5461 20.8009 25.2294 20.7756C26.5238 20.7262 27.823 20.7612 29.1197 20.7612C29.1197 20.7612 30.6896 20.6986 31.4691 20.6456C35.8213 20.3447 40.1531 19.9185 44.2395 18.2128C48.2994 16.5179 50.9266 13.624 51.6736 9.20502C52.1548 6.35811 51.9154 3.47991 51.9672 0.61375ZM42.1391 13.9358C40.4274 14.6244 38.647 15.0541 36.6886 15.2708C37.0074 13.1702 37.4248 11.255 38.2428 9.45059C40.034 5.50344 42.8549 4.8522 46.5888 4.77035C47.0495 4.75951 47.2071 4.95693 47.2023 5.40112C47.1554 9.57578 46.3001 12.259 42.1379 13.9358H42.1391Z" fill="#009169"/>
<path d="M27.6383 32.1316C27.6107 31.5105 27.4423 31.1975 26.7554 31.2156C25.3792 31.2517 24.2773 31.354 22.9012 31.354L22.6269 31.3564C21.9208 31.3564 21.2122 31.3167 20.5085 31.3624C16.1479 31.6477 11.8137 32.1052 7.73571 33.835C3.6397 35.5732 1.04015 38.5537 0.296733 43.0161C-0.165196 45.7908 0.0681743 48.5943 0.00201266 51.3847C-0.0112197 51.9661 0.281095 52.001 0.726182 51.995C2.77238 51.9697 4.82339 52.054 6.86238 51.9324C13.0178 51.5664 16.6098 48.7905 18.6536 42.9499C19.3308 41.013 19.7952 39.0232 20.0574 36.9937C20.1416 36.3364 20.3594 36.1402 20.9957 36.1342C22.1722 36.1233 23.3559 36.0884 24.5215 35.9452C26.4234 35.7128 27.7226 34.042 27.6371 32.1304L27.6383 32.1316ZM14.471 40.3762C14.2544 41.1262 13.9874 41.8701 13.6602 42.5779C11.8077 46.5768 8.917 47.0872 5.40201 47.216C4.74641 47.2401 4.7031 47.0764 4.78851 45.9184C5.15661 40.9264 6.76253 38.9666 11.6922 37.5257C12.8109 37.1983 14.4361 36.3557 14.987 36.9624C15.6583 37.7015 14.8042 39.223 14.4722 40.375L14.471 40.3762Z" fill="#009169"/>
<path d="M26.1856 23.4277C24.6639 23.4277 23.4297 24.6628 23.4297 26.1856C23.4297 27.7083 24.6639 28.9434 26.1856 28.9434C27.7073 28.9434 28.9416 27.7083 28.9416 26.1856C28.9416 24.6628 27.7073 23.4277 26.1856 23.4277ZM26.1856 27.1847C25.6335 27.1847 25.186 26.7369 25.186 26.1844C25.186 25.6318 25.6335 25.184 26.1856 25.184C26.7378 25.184 27.1853 25.6318 27.1853 26.1844C27.1853 26.7369 26.7378 27.1847 26.1856 27.1847Z" fill="#1A2310"/>
</svg>
