<svg width="49" height="49" viewBox="0 0 49 49" fill="none" xmlns="http://www.w3.org/2000/svg">
<path d="M48.9447 47.9309C48.9255 46.0549 48.9627 44.1755 48.8613 42.304C48.6697 38.757 47.623 35.5853 44.6079 33.3667C41.7358 31.253 38.3939 30.4248 34.9574 29.9054C34.225 29.795 34.0582 29.5223 34.0515 28.8745C34.0425 27.8469 34.0211 26.8137 33.905 25.794C33.6977 23.9506 32.1518 22.7112 30.3073 22.7822C29.7259 22.8047 29.4476 22.9681 29.4657 23.6058C29.5017 24.8926 29.5119 27.421 29.5119 27.421V27.4672C29.5119 27.4672 29.5502 28.3483 29.5716 28.7888C29.7688 32.9127 30.1868 37.0038 31.6763 40.8978C33.1445 44.7355 35.6312 47.4678 39.853 48.2982C42.7014 48.8582 45.5746 48.5867 48.4376 48.6689C49.0449 48.6858 48.948 48.2858 48.9447 47.9309ZM44.4524 43.7226C44.3622 44.233 44.3487 44.2375 43.2344 44.2059C38.9742 44.0842 36.9517 42.5981 35.5771 38.5734C35.1974 37.4624 34.9495 36.3165 34.7298 35.1628C34.6103 34.534 34.8244 34.3831 35.4092 34.4969C37.3956 34.8856 39.3483 35.3678 41.1082 36.4213C43.409 37.7971 44.9166 41.0984 44.4512 43.7214L44.4524 43.7226Z" fill="#009169"/>
<path d="M19.7243 24.9598C19.6837 23.7463 19.5902 22.668 19.5902 21.4534L19.5778 21.3171C19.5778 20.6196 19.6161 19.9199 19.5722 19.2247C19.34 15.5854 18.9434 11.9697 17.7243 8.50161C16.3441 4.57831 14.0264 1.57106 9.76956 0.515308C6.79836 -0.222704 3.76518 0.0691204 0.754546 0.00602324C0.244135 -0.00411738 0.255402 0.288834 0.257656 0.640375C0.275683 2.66512 0.211458 4.69211 0.312865 6.71122C0.583281 12.0305 3.30773 15.5403 8.30254 17.3476C10.2484 18.0518 12.2461 18.5194 14.2878 18.7887C14.8861 18.8664 15.099 19.0501 15.099 19.6619C15.1013 20.7256 15.1452 21.796 15.2646 22.854C15.4675 24.6635 16.9401 25.895 18.7395 25.8916C19.4122 25.8916 19.7502 25.6978 19.7243 24.9564V24.9598ZM12.4737 13.9313C11.3594 13.697 10.28 13.3488 9.22534 12.9116C5.92288 11.5438 4.74093 8.89146 4.74431 5.54167C4.5077 4.58282 4.98431 4.41832 5.81021 4.46001C10.6754 4.70226 13.0664 6.86446 14.1638 12.2086C14.6123 14.3956 15.0753 14.4812 12.4748 13.9325L12.4737 13.9313Z" fill="#009169"/>
<path d="M48.9228 0.574976C48.9329 0.0262555 48.6524 0.00372076 48.2411 0.0082277C46.2536 0.0318891 44.2626 -0.0278278 42.2784 0.0645645C37.0166 0.310193 33.4764 2.94225 31.6342 7.88298C30.9119 9.82096 30.4004 11.8142 30.1649 13.8581C30.0669 14.7054 29.7491 14.8744 29.0032 14.8654C28.0128 14.853 27.0157 14.8969 26.032 15.0085C24.209 15.2146 22.9448 16.8011 23.0315 18.6241C23.0597 19.2157 23.2389 19.4703 23.8789 19.4467C25.0912 19.4005 26.3081 19.4331 27.5227 19.4331C27.5227 19.4331 28.9931 19.3746 29.7232 19.325C33.7998 19.0433 37.8571 18.6444 41.6846 17.0478C45.4874 15.4614 47.9482 12.7527 48.6479 8.61648C49.0986 5.95176 48.8743 3.25773 48.9228 0.574976ZM39.7174 13.0446C38.114 13.689 36.4465 14.0913 34.6121 14.2941C34.9107 12.328 35.3017 10.5353 36.0679 8.84634C37.7456 5.15177 40.3878 4.54221 43.8852 4.46559C44.3167 4.45545 44.4643 4.64024 44.4598 5.056C44.4159 8.96352 43.6147 11.475 39.7162 13.0446H39.7174Z" fill="#009169"/>
<path d="M26.1336 30.0749C26.1077 29.4935 25.9499 29.2006 25.3066 29.2175C24.0176 29.2513 22.9855 29.3471 21.6965 29.3471L21.4396 29.3493C20.7782 29.3493 20.1146 29.3121 19.4554 29.355C15.371 29.622 11.3114 30.0501 7.49176 31.6693C3.65523 33.2963 1.22035 36.0861 0.52403 40.2629C0.0913635 42.86 0.309949 45.4842 0.247978 48.0959C0.235584 48.6401 0.50938 48.6728 0.926272 48.6672C2.84285 48.6435 4.76393 48.7224 6.67375 48.6086C12.4393 48.2661 15.8037 45.6678 17.718 40.2009C18.3524 38.388 18.7873 36.5255 19.0329 34.6258C19.1118 34.0106 19.3157 33.827 19.9118 33.8213C21.0137 33.8112 22.1224 33.7785 23.2142 33.6444C24.9956 33.427 26.2125 31.8631 26.1325 30.0738L26.1336 30.0749ZM13.7992 37.7919C13.5964 38.4939 13.3463 39.1902 13.0398 39.8527C11.3046 43.5958 8.59709 44.0735 5.30477 44.1941C4.6907 44.2166 4.65013 44.0634 4.73013 42.9794C5.07491 38.3069 6.57911 36.4725 11.1965 35.1238C12.2443 34.8174 13.7666 34.0286 14.2826 34.5965C14.9113 35.2883 14.1113 36.7125 13.8004 37.7908L13.7992 37.7919Z" fill="#009169"/>
<path d="M24.7688 21.9277C23.3435 21.9277 22.1875 23.0838 22.1875 24.5091C22.1875 25.9344 23.3435 27.0904 24.7688 27.0904C26.1942 27.0904 27.3502 25.9344 27.3502 24.5091C27.3502 23.0838 26.1942 21.9277 24.7688 21.9277ZM24.7688 25.4443C24.2517 25.4443 23.8325 25.0251 23.8325 24.508C23.8325 23.9908 24.2517 23.5716 24.7688 23.5716C25.286 23.5716 25.7052 23.9908 25.7052 24.508C25.7052 25.0251 25.286 25.4443 24.7688 25.4443Z" fill="#001D15"/>
</svg>
