<svg width="49" height="49" viewBox="0 0 49 49" fill="none" xmlns="http://www.w3.org/2000/svg">
<path d="M48.9486 47.9309C48.9294 46.0549 48.9666 44.1755 48.8652 42.304C48.6736 38.757 47.6269 35.5853 44.6118 33.3667C41.7397 31.253 38.3978 30.4248 34.9613 29.9054C34.2289 29.795 34.0621 29.5223 34.0554 28.8745C34.0464 27.8469 34.025 26.8137 33.9089 25.794C33.7016 23.9506 32.1557 22.7112 30.3112 22.7822C29.7298 22.8047 29.4515 22.9681 29.4696 23.6058C29.5056 24.8926 29.5158 27.421 29.5158 27.421V27.4672C29.5158 27.4672 29.5541 28.3483 29.5755 28.7888C29.7727 32.9127 30.1907 37.0038 31.6802 40.8978C33.1484 44.7355 35.6351 47.4678 39.8569 48.2982C42.7053 48.8582 45.5785 48.5867 48.4415 48.6689C49.0488 48.6858 48.9519 48.2858 48.9486 47.9309ZM44.4563 43.7226C44.3661 44.233 44.3526 44.2375 43.2383 44.2059C38.9781 44.0842 36.9556 42.5981 35.581 38.5734C35.2013 37.4624 34.9534 36.3165 34.7337 35.1628C34.6142 34.534 34.8283 34.3831 35.4131 34.4969C37.3995 34.8856 39.3522 35.3678 41.1121 36.4213C43.4129 37.7971 44.9205 41.0984 44.4552 43.7214L44.4563 43.7226Z" fill="#33A787"/>
<path d="M19.7282 24.9598C19.6876 23.7463 19.5941 22.668 19.5941 21.4534L19.5817 21.3171C19.5817 20.6196 19.62 19.9199 19.5761 19.2247C19.344 15.5854 18.9473 11.9697 17.7282 8.50161C16.348 4.57831 14.0303 1.57106 9.77346 0.515308C6.80226 -0.222704 3.76909 0.0691204 0.758453 0.00602324C0.248042 -0.00411738 0.259308 0.288834 0.261562 0.640375C0.27959 2.66512 0.215365 4.69211 0.316771 6.71122C0.587187 12.0305 3.31163 15.5403 8.30645 17.3476C10.2523 18.0518 12.25 18.5194 14.2917 18.7887C14.89 18.8664 15.1029 19.0501 15.1029 19.6619C15.1052 20.7256 15.1491 21.796 15.2685 22.854C15.4714 24.6635 16.944 25.895 18.7434 25.8916C19.4161 25.8916 19.7541 25.6978 19.7282 24.9564V24.9598ZM12.4776 13.9313C11.3633 13.697 10.2839 13.3488 9.22925 12.9116C5.92679 11.5438 4.74484 8.89146 4.74822 5.54167C4.5116 4.58282 4.98822 4.41832 5.81411 4.46001C10.6794 4.70226 13.0703 6.86446 14.1677 12.2086C14.6162 14.3956 15.0793 14.4812 12.4787 13.9325L12.4776 13.9313Z" fill="#33A787"/>
<path d="M48.9267 0.573022C48.9368 0.0243024 48.6563 0.00176764 48.245 0.00627458C46.2575 0.029936 44.2665 -0.029781 42.2823 0.0626113C37.0205 0.30824 33.4803 2.94029 31.6381 7.88103C30.9158 9.81901 30.4043 11.8122 30.1688 13.8561C30.0708 14.7034 29.7531 14.8724 29.0072 14.8634C28.0168 14.851 27.0196 14.895 26.036 15.0065C24.2129 15.2127 22.9487 16.7991 23.0355 18.6222C23.0636 19.2137 23.2428 19.4684 23.8828 19.4447C25.0951 19.3985 26.312 19.4312 27.5266 19.4312C27.5266 19.4312 28.997 19.3726 29.7271 19.323C33.8037 19.0413 37.861 18.6425 41.6886 17.0459C45.4913 15.4594 47.9521 12.7508 48.6518 8.61453C49.1025 5.9498 48.8783 3.25578 48.9267 0.573022ZM39.7213 13.0426C38.1179 13.6871 36.4504 14.0893 34.616 14.2922C34.9146 12.326 35.3056 10.5334 36.0718 8.84439C37.7495 5.14982 40.3917 4.54026 43.8891 4.46364C44.3206 4.4535 44.4682 4.63828 44.4637 5.05405C44.4198 8.96157 43.6187 11.4731 39.7202 13.0426H39.7213Z" fill="#33A787"/>
<path d="M26.1375 30.0749C26.1116 29.4935 25.9538 29.2006 25.3105 29.2175C24.0215 29.2513 22.9894 29.3471 21.7004 29.3471L21.4435 29.3493C20.7821 29.3493 20.1185 29.3121 19.4593 29.355C15.3749 29.622 11.3153 30.0501 7.49567 31.6693C3.65913 33.2963 1.22426 36.0861 0.527936 40.2629C0.0952697 42.86 0.313855 45.4842 0.251885 48.0959C0.23949 48.6401 0.513286 48.6728 0.930178 48.6672C2.84675 48.6435 4.76784 48.7224 6.67766 48.6086C12.4432 48.2661 15.8076 45.6678 17.7219 40.2009C18.3563 38.388 18.7912 36.5255 19.0368 34.6258C19.1157 34.0106 19.3196 33.827 19.9157 33.8213C21.0176 33.8112 22.1263 33.7785 23.2181 33.6444C24.9995 33.427 26.2164 31.8631 26.1364 30.0738L26.1375 30.0749ZM13.8031 37.7919C13.6003 38.4939 13.3502 39.1902 13.0437 39.8527C11.3085 43.5958 8.60099 44.0735 5.30867 44.1941C4.6946 44.2166 4.65404 44.0634 4.73404 42.9794C5.07882 38.3069 6.58301 36.4725 11.2004 35.1238C12.2482 34.8174 13.7705 34.0286 14.2865 34.5965C14.9152 35.2883 14.1152 36.7125 13.8043 37.7908L13.8031 37.7919Z" fill="#33A787"/>
<path d="M24.7767 21.9277C23.3513 21.9277 22.1953 23.0838 22.1953 24.5091C22.1953 25.9344 23.3513 27.0904 24.7767 27.0904C26.202 27.0904 27.358 25.9344 27.358 24.5091C27.358 23.0838 26.202 21.9277 24.7767 21.9277ZM24.7767 25.4443C24.2595 25.4443 23.8403 25.0251 23.8403 24.508C23.8403 23.9908 24.2595 23.5716 24.7767 23.5716C25.2938 23.5716 25.713 23.9908 25.713 24.508C25.713 25.0251 25.2938 25.4443 24.7767 25.4443Z" fill="#99D3C3"/>
</svg>
