<svg width="43" height="43" viewBox="0 0 43 43" fill="none" xmlns="http://www.w3.org/2000/svg">
<path d="M14.2426 14.1434V30.0228H16.2866V29.5374C16.2866 28.3163 16.7621 27.1684 17.6255 26.3054C18.4889 25.442 19.6367 24.9666 20.8575 24.9666H24.7783C25.9994 24.9666 27.1473 25.442 28.0103 26.3054C28.8737 27.1688 29.3491 28.3167 29.3491 29.5374V30.0228H31.3936V12.4141H14.2422V14.1434H14.2426ZM19.1087 15.0939C20.0954 14.1072 21.4075 13.5637 22.8032 13.5637C24.199 13.5637 25.5111 14.1072 26.4977 15.0939C27.4844 16.0806 28.0279 17.3927 28.0279 18.7884C28.0279 20.1841 27.4844 21.4962 26.4977 22.4829C25.5111 23.4696 24.199 24.0131 22.8032 24.0131C21.4075 24.0131 20.0958 23.4696 19.1087 22.4829C18.122 21.4962 17.5785 20.1841 17.5785 18.7884C17.5785 17.3927 18.122 16.081 19.1087 15.0939Z" fill="#009169"/>
<path d="M34.0709 0H8.92872C3.99753 0 0 3.99753 0 8.92872V34.0713C0 39.0025 3.99753 43 8.92872 43H34.0713C39.0025 43 43 39.0025 43 34.0713V8.92872C42.9996 3.99753 39.002 0 34.0709 0ZM32.2488 30.0246C32.2488 30.4936 31.8669 30.8755 31.3979 30.8755H30.0436V32.6066C30.0436 33.0756 29.6617 33.4575 29.1927 33.4575H12.0374C11.568 33.4575 11.1861 33.0756 11.1861 32.6066V14.994C11.1861 14.5246 11.568 14.1431 12.0374 14.1431H13.3922V12.412C13.3922 11.9426 13.7737 11.5607 14.2431 11.5607H31.3984C31.8678 11.5607 32.2492 11.9426 32.2492 12.412V30.0246H32.2488Z" fill="#009169"/>
<path d="M16.2892 30.8755H14.243C13.7736 30.8755 13.3921 30.4935 13.3921 30.0246V14.9961H12.0391V32.6048H29.1904V30.8759H16.2892V30.8755Z" fill="#009169"/>
</svg>
